<?xml version="1.0" encoding="UTF-8" standalone="no"?><!DOCTYPE svg PUBLIC "-//W3C//DTD SVG 1.1//EN" "http://www.w3.org/Graphics/SVG/1.1/DTD/svg11.dtd"><svg width="100%" height="100%" viewBox="0 0 457 377" version="1.1" xmlns="http://www.w3.org/2000/svg" xmlns:xlink="http://www.w3.org/1999/xlink" xml:space="preserve" xmlns:serif="http://www.serif.com/" style="fill-rule:evenodd;clip-rule:evenodd;stroke-linejoin:round;stroke-miterlimit:2;"><path d="M406.208,359.152c-22.721,-17.264 -61.582,-60.101 -10.407,-127.347c63.284,-83.158 -12.505,-117.275 -85.15,-113.714c-58.444,2.865 -124.218,-70.61 -189.831,-57.478c-87.088,17.431 -30.541,92.426 -89.59,132.831c-50.358,34.459 -28.738,139.453 36.803,165.708l338.175,-0Z" style="fill:#cbe2f2;fill-rule:nonzero;"/><path d="M447.219,206.655c-0.351,-12.331 -11.838,-17.114 -19.505,-8.187c-4.399,5.121 -8.592,12.467 -9.377,22.291c-1.755,21.986 17.48,15.616 24.667,3.844c3.066,-5.02 4.393,-11.715 4.215,-17.948Z" style="fill:#cbe2f2;fill-rule:nonzero;"/><path d="M235.56,56.259c-12.12,-2.293 -19.249,7.906 -12.167,17.305c4.062,5.392 10.343,11.058 19.772,13.925c21.102,6.415 18.991,-13.737 9.028,-23.275c-4.249,-4.068 -10.505,-6.795 -16.633,-7.955Z" style="fill:#cbe2f2;fill-rule:nonzero;"/><path d="M35.223,169.243c4.85,-11.344 -3.575,-20.501 -14.278,-15.609c-6.14,2.806 -13.026,7.718 -17.856,16.309c-10.808,19.226 9.325,21.503 20.784,13.828c4.889,-3.273 8.899,-8.795 11.35,-14.528Z" style="fill:#cbe2f2;fill-rule:nonzero;"/><path d="M436.138,362.512c-0,7.554 -93.018,13.678 -207.76,13.678c-114.743,-0 -207.761,-6.124 -207.761,-13.678c-0,-7.552 93.018,-13.676 207.761,-13.676c114.742,-0 207.76,6.124 207.76,13.676Z" style="fill:#cbe2f2;fill-rule:nonzero;"/><path d="M430.539,250.305c-12.72,12.716 1.469,13.794 -7.865,23.398c-8.507,8.753 -21.061,0.233 -20.225,21.611c0.182,4.677 -3.221,8.147 -7.996,9.924c-7.857,2.924 -15.544,0.22 -20.277,-5.155c-0.386,-0.433 -0.751,-0.887 -1.094,-1.358c-3.592,-4.903 -4.903,-11.548 -2.241,-18.134c2.16,-5.343 5.985,-10.6 12.765,-12.696c15.904,-4.916 7.076,-25.98 20.519,-26.904c16.211,-1.116 16.793,-7.062 28.298,-15.078c12.196,-8.497 15.357,7.161 -1.884,24.392Z" style="fill:#276ab4;fill-rule:nonzero;"/><path d="M424.836,243.358c-0.355,0.366 -29.85,30.776 -50.66,56.725c-0.386,-0.433 -0.751,-0.887 -1.094,-1.358c20.867,-25.964 50.177,-56.187 50.534,-56.554c0.329,-0.336 0.867,-0.344 1.204,-0.016c0.337,0.327 0.344,0.866 0.016,1.203Z" style="fill:#2c58a8;fill-rule:nonzero;"/><path d="M433.805,292.755c-19.929,11.732 -2.614,17.643 -17.324,26.591c-13.409,8.156 -26.292,-6.491 -32.137,20.389c-1.278,5.88 -6.633,9.103 -13.147,9.778c-10.722,1.109 -19.419,-4.732 -23.582,-12.947c-0.339,-0.663 -0.648,-1.346 -0.923,-2.042c-2.894,-7.261 -2.385,-15.953 3.049,-23.295c4.41,-5.956 10.865,-11.268 19.978,-11.692c21.38,-0.997 17.175,-30.061 34.206,-26.883c20.539,3.832 23.177,-3.382 40.08,-9.654c17.918,-6.652 16.809,13.857 -10.2,29.755Z" style="fill:#297abf;fill-rule:nonzero;"/><path d="M428.944,282.271c-0.561,0.341 -47.068,28.696 -81.329,54.295c-0.339,-0.663 -0.648,-1.346 -0.923,-2.042c34.336,-25.6 80.552,-53.782 81.115,-54.123c0.517,-0.315 1.189,-0.149 1.504,0.366c0.313,0.517 0.148,1.19 -0.367,1.504Z" style="fill:#276ab4;fill-rule:nonzero;"/><path d="M45.136,105.039c6.837,16.635 -6.671,12.163 -1.759,24.621c4.477,11.355 19.344,8.331 10.335,27.737c-1.97,4.245 -0.167,8.758 3.554,12.238c6.123,5.725 14.258,6.192 20.698,3.057c0.523,-0.251 1.035,-0.529 1.533,-0.832c5.204,-3.139 8.974,-8.766 9.056,-15.869c0.066,-5.763 -1.438,-12.089 -6.886,-16.635c-12.782,-10.665 3.482,-26.7 -8.568,-32.733c-14.529,-7.278 -12.774,-12.988 -20.302,-24.819c-7.98,-12.541 -16.93,0.69 -7.661,23.235Z" style="fill:#276ab4;fill-rule:nonzero;"/><path d="M53.075,100.825c0.187,0.475 15.685,39.903 24.889,71.867c0.523,-0.251 1.035,-0.529 1.533,-0.832c-9.251,-32 -24.651,-71.184 -24.839,-71.66c-0.172,-0.437 -0.666,-0.651 -1.104,-0.478c-0.437,0.172 -0.651,0.666 -0.479,1.103Z" style="fill:#2c58a8;fill-rule:nonzero;"/><path d="M25.663,148.493c14.422,18.078 -3.862,17.412 6.68,31.026c9.608,12.408 26.876,3.331 22.729,30.525c-0.908,5.95 2.941,10.873 8.786,13.832c9.617,4.866 19.828,2.518 26.651,-3.666c0.554,-0.499 1.086,-1.027 1.592,-1.579c5.297,-5.747 7.928,-14.047 5.475,-22.845c-1.99,-7.139 -6.121,-14.407 -14.48,-18.06c-19.613,-8.571 -5.3,-34.213 -22.342,-37.33c-20.553,-3.761 -20.439,-11.441 -33.985,-23.34c-14.358,-12.614 -20.651,6.937 -1.106,31.437Z" style="fill:#297abf;fill-rule:nonzero;"/><path d="M33.95,140.438c0.402,0.519 33.707,43.62 56.559,79.772c0.554,-0.499 1.086,-1.027 1.592,-1.579c-22.922,-36.178 -56.018,-79.015 -56.421,-79.534c-0.37,-0.478 -1.057,-0.565 -1.535,-0.195c-0.478,0.371 -0.564,1.058 -0.195,1.536Z" style="fill:#276ab4;fill-rule:nonzero;"/><path d="M122.932,132.755c5.809,-3.978 20.36,5.835 27.968,17.75l-6.749,-18.908c-2.443,-2.119 -6.72,-5.092 -13.403,-7.461c-10.394,-3.683 -20.811,-9.454 -14.99,-13.439c5.454,-3.736 18.611,4.686 26.497,15.59l-8.668,-24.282c-1.612,-1.24 -4.066,-2.747 -7.574,-3.989c-6.549,-2.322 -13.115,-5.959 -9.446,-8.471c3.183,-2.179 10.529,2.21 15.546,8.329l-2.81,-7.87c-1.285,-2.287 -3.112,-5.554 -5.992,-8.534c-6.673,-6.904 -11.718,-14.67 -6.572,-15.796c5.151,-1.126 13.582,12.403 14.908,24.626l1.446,4.05c-1.123,-8.89 2.074,-19.655 6.531,-20.035c4.43,-0.379 1.652,6.592 -1.948,12.537c-2.74,4.525 -3.497,8.116 -3.699,9.974l6.828,19.128c-1.737,-14.084 3.325,-31.069 10.378,-31.672c7.028,-0.601 2.62,10.461 -3.091,19.894c-4.316,7.128 -5.532,12.798 -5.864,15.764l8.188,22.938c-1.452,-13.918 3.526,-30.809 10.47,-30.864c5.353,-0.042 3.714,7.516 -2.68,18.186c-4.345,7.251 -5.735,13.762 -6.179,17.192l3.857,10.804c-0.646,0.457 -1.318,0.696 -1.986,0.708l-1.534,-4.299c-2.168,-2.097 -6.684,-5.66 -14.442,-8.41c-10.393,-3.684 -20.81,-9.454 -14.99,-13.44Z" style="fill:#297abf;fill-rule:nonzero;"/><path d="M71.813,293.002c-5.96,3.75 -2.739,21.001 5.17,32.719l-14.667,-13.71c-0.973,-3.083 -2.001,-8.189 -1.518,-15.263c0.752,-11.001 -0.402,-22.854 -6.373,-19.098c-5.596,3.52 -3.099,18.941 3.772,30.512l-18.835,-17.607c-0.497,-1.972 -0.904,-4.823 -0.651,-8.535c0.474,-6.934 -0.253,-14.403 -4.016,-12.036c-3.266,2.055 -2.158,10.541 1.462,17.576l-6.104,-5.707c-1.588,-2.087 -3.859,-5.063 -5.449,-8.891c-3.682,-8.867 -8.803,-16.584 -11.882,-12.309c-3.081,4.279 5.982,17.393 16.671,23.47l3.141,2.936c-7.712,-4.564 -18.859,-5.911 -20.981,-1.972c-2.108,3.914 5.394,4.136 12.279,3.197c5.242,-0.716 8.837,0.017 10.622,0.57l14.838,13.869c-12.233,-7.193 -29.831,-9.3 -33.188,-3.067c-3.345,6.21 8.558,6.562 19.484,5.071c8.256,-1.126 13.942,0.012 16.796,0.887l17.792,16.631c-12.193,-6.865 -29.672,-9.011 -32.482,-2.661c-2.167,4.894 5.42,6.395 17.752,4.77c8.381,-1.104 14.908,0.209 18.232,1.164l8.381,7.834c0.676,-0.411 1.162,-0.933 1.439,-1.54l-3.335,-3.118c-1.062,-2.822 -2.537,-8.382 -1.976,-16.595c0.751,-11.001 -0.403,-22.853 -6.374,-19.097Z" style="fill:#297abf;fill-rule:nonzero;"/><rect x="54.503" y="138.416" width="318.094" height="219.728" style="fill:#f99f2d;fill-rule:nonzero;"/><path d="M372.587,138.424l-0,14.086l-159.036,140.96l-159.048,-140.96l-0,-14.086l159.037,141.443l159.047,-141.443Z" style="fill:#f47f2b;fill-rule:nonzero;"/><path d="M182.906,252.129l-119.19,106.015l-9.213,-0l-0,-5.601l121.551,-108.113l6.852,7.699Z" style="fill:#f47f2b;fill-rule:nonzero;"/><path d="M372.597,353.287l-0,4.857l-10.047,-0l-119.189,-106.015l6.851,-7.699l122.385,108.857Z" style="fill:#f47f2b;fill-rule:nonzero;"/><path d="M54.493,138.415l159.048,141.453l159.047,-141.453l-318.095,-0Z" style="fill:#f3be53;fill-rule:nonzero;"/><path d="M284.838,118.626l4.059,8.685l-8.58,0.133l-3.311,-7.903l7.832,-0.915Z" style="fill:#f5a385;fill-rule:nonzero;"/><path d="M286.196,126.768c-0,-0 1.761,-2.368 3.162,-2.266c1.399,0.101 12.196,8.685 15.895,9.394c3.699,0.709 3.357,4.477 1.808,4.477c-4.458,-0 -29.061,0.042 -29.061,0.042c-0,-0 -0.743,-8.801 0.199,-11.426c0.941,-2.624 5.104,0.4 7.997,-0.221Z" style="fill:#297abf;fill-rule:nonzero;"/><path d="M292.163,132.758c-0.131,0.039 -0.277,0.027 -0.405,-0.046c-0.248,-0.142 -0.335,-0.458 -0.193,-0.707c0.047,-0.083 1.176,-2.045 2.697,-2.811c2.022,-1.022 3.601,0.122 3.667,0.171c0.229,0.17 0.277,0.495 0.106,0.725c-0.17,0.229 -0.495,0.278 -0.724,0.106c-0.043,-0.03 -1.142,-0.801 -2.582,-0.077c-1.239,0.625 -2.254,2.382 -2.264,2.4c-0.069,0.12 -0.179,0.202 -0.302,0.239Z" style="fill:#fff;fill-rule:nonzero;"/><path d="M290.619,131.299c-0.13,0.039 -0.277,0.027 -0.405,-0.046c-0.249,-0.142 -0.336,-0.458 -0.194,-0.707c0.048,-0.083 1.178,-2.045 2.698,-2.812c2.024,-1.022 3.6,0.122 3.666,0.171c0.231,0.171 0.278,0.495 0.107,0.725c-0.17,0.23 -0.495,0.278 -0.725,0.107c-0.043,-0.031 -1.142,-0.802 -2.582,-0.077c-1.244,0.627 -2.253,2.381 -2.263,2.399c-0.069,0.12 -0.179,0.203 -0.302,0.24Z" style="fill:#fff;fill-rule:nonzero;"/><path d="M294.257,133.942c-0.131,0.039 -0.277,0.027 -0.405,-0.046c-0.248,-0.142 -0.335,-0.458 -0.195,-0.706c0.048,-0.084 1.178,-2.046 2.699,-2.812c2.024,-1.023 3.6,0.121 3.667,0.171c0.229,0.17 0.277,0.495 0.106,0.724c-0.17,0.23 -0.495,0.278 -0.724,0.107c-0.043,-0.03 -1.143,-0.802 -2.582,-0.077c-1.246,0.627 -2.254,2.382 -2.264,2.399c-0.069,0.121 -0.179,0.203 -0.302,0.24Z" style="fill:#fff;fill-rule:nonzero;"/><path d="M287.282,121.457l-3.8,1.24l-2.114,0.125l-3.631,0.213c-4.799,-3.796 -17.745,-15.217 -20.267,-21.951c-0,-0 -16.656,38.732 -39.684,38.732c-1.494,-0 2.454,-19.273 6.208,-23.281c-0,-0 21.226,-39.559 34.987,-35.361c6.162,1.882 12.395,10.852 28.301,40.283Z" style="fill:#383355;fill-rule:nonzero;"/><path d="M283.482,122.697l-2.114,0.125c-14.126,-10.696 -20.669,-19.754 -23.682,-25.556c-0.104,-0.201 -0.273,-0.267 -0.387,-0.264c-0.099,0.002 -0.17,0.057 -0.216,0.172c-6.764,15.923 -14.882,25.479 -20.501,30.695c-6.123,5.682 -10.603,7.555 -10.788,7.634l-0.26,-0.632l-0.258,-0.63c0.043,-0.019 4.488,-1.887 10.444,-7.433c5.503,-5.12 13.459,-14.51 20.109,-30.169c0.253,-0.602 0.786,-0.976 1.418,-1c0.681,-0.028 1.32,0.365 1.65,0.998c3.037,5.851 9.765,15.096 24.585,26.06Z" style="fill:#1c1737;fill-rule:nonzero;"/><path d="M273.928,120.445c0.604,1.13 1.643,2.727 2.636,3.499c-0,-0 8.134,-0.376 12.09,-2.363l-1.776,-4.135c-0,-0 -6.474,2.363 -12.95,2.999Z" style="fill:#534f83;fill-rule:nonzero;"/><path d="M284.574,64.919c-11.567,4.711 -20.812,7.08 -28.679,8.055l-0.016,-0.003c-0.101,0.003 -1.953,0.154 -2.665,0.125c-2.119,-0.073 -4.989,-0.553 -7.895,-1.911c-2.071,-0.967 -5.029,-3.466 -8.123,-6.445c-3.832,-3.697 -7.872,-8.133 -10.667,-11.302c-2.174,-2.462 -3.596,-4.16 -3.596,-4.16c1.929,-2.87 6.201,-5.48 9.919,-6.877c-0,-0 7.758,12.919 19.512,19.263c0.639,0.349 1.293,0.671 1.955,0.97c2.678,-0.434 9.923,-0.764 13.065,-0.988c8.515,-0.605 15.467,-2.082 15.467,-2.082l1.723,5.355Z" style="fill:#276ab4;fill-rule:nonzero;"/><path d="M282.558,59.138c-0,-0 1.61,-4.069 3.802,-5.23c2.19,-1.161 8.427,-5.249 9.758,-4.026c1.332,1.224 1.056,7.098 -4.535,12.008c-3.561,3.128 -7.149,2.995 -7.149,2.995l-1.876,-5.747Z" style="fill:#f5a385;fill-rule:nonzero;"/><path d="M296.517,53.62l-9.205,8.599c-0.346,0.325 -0.971,0.419 -1.398,0.212l-5.641,-2.728c-0.175,-0.086 -0.29,-0.208 -0.339,-0.346l-0.013,-0.045l-0.277,-0.943l1.496,-0.568l14.483,-5.501l0.785,-0.296l0.294,0.997l0.023,0.068l0.003,0.025c0.033,0.175 -0.037,0.365 -0.211,0.526Z" style="fill:#1c1737;fill-rule:nonzero;"/><path d="M295.623,52.3l-14.483,5.501l8.191,-7.653c0.345,-0.323 0.971,-0.419 1.395,-0.213l4.897,2.365Z" style="fill:#272337;fill-rule:nonzero;"/><path d="M285.634,61.475l-5.645,-2.729c-0.425,-0.206 -0.491,-0.634 -0.145,-0.956l9.205,-8.601c0.346,-0.322 0.97,-0.416 1.396,-0.21l5.644,2.729c0.425,0.206 0.49,0.633 0.146,0.956l-9.206,8.6c-0.345,0.322 -0.97,0.416 -1.395,0.211Z" style="fill:#383355;fill-rule:nonzero;"/><path d="M286.83,60.042c-0.181,-0 -0.359,-0.035 -0.511,-0.108l-4.373,-2.115c-0.426,-0.206 -0.491,-0.633 -0.146,-0.956l7.159,-6.688c0.222,-0.207 0.559,-0.32 0.884,-0.32c0.181,-0 0.359,0.035 0.512,0.109l4.372,2.114c0.426,0.206 0.491,0.634 0.145,0.956l-7.159,6.689c-0.221,0.207 -0.558,0.319 -0.883,0.319Z" style="fill:#555788;fill-rule:nonzero;"/><path d="M296.732,53.092l-0.004,0.002l-0.003,-0.025l0.007,0.023Z" style="fill:#272337;fill-rule:nonzero;"/><path d="M286.202,51.85c-0,-0 1.311,0.204 1.445,1.332c0.134,1.127 -1.086,0.678 -1.87,0.431c-0.786,-0.248 -1.492,-0 -1.599,0.128c-0.343,0.404 -0.284,-2.225 2.024,-1.891Z" style="fill:#f5a385;fill-rule:nonzero;"/><path d="M292.064,57.972c-0,-0 2.057,-3.382 3.635,-5.229c1.05,-1.23 1.586,0.555 0.868,1.8c-0.72,1.244 -2.138,3.779 -4.503,3.429Z" style="fill:#f5a385;fill-rule:nonzero;"/><path d="M196.2,118.938l-4.56,-29.397l-0.27,-1.743l0.031,-1.312l1.017,-41.646l11.554,-3.905l0.619,-0.21l2.594,-0.879l2.057,-0.694l12.199,1.679l1.986,0.273l0.699,0.096l8.728,1.201c0.081,27.609 -2.569,33.573 2.532,56.031c2.569,8.471 -6.853,38.471 -39.186,20.506Z" style="fill:#297abf;fill-rule:nonzero;"/><path d="M202.696,111.417l0.002,-0.001c9.135,-2.551 15.8,-8.856 19.782,-13.696c4.307,-5.235 6.496,-9.942 6.518,-9.989c0.105,-0.229 0.005,-0.5 -0.224,-0.605c-0.229,-0.105 -0.5,-0.005 -0.606,0.223c-0.021,0.046 -2.171,4.665 -6.408,9.81c-3.897,4.732 -10.41,10.894 -19.308,13.378c-0.242,0.068 -0.384,0.319 -0.316,0.562c0.067,0.242 0.318,0.384 0.56,0.318Z" style="fill:#276ab4;fill-rule:nonzero;"/><path d="M213.081,111.908c7.937,-2.179 14.611,-8.874 14.913,-9.181c0.177,-0.18 0.175,-0.469 -0.004,-0.646c-0.18,-0.177 -0.469,-0.174 -0.646,0.005c-0.078,0.079 -7.931,7.954 -16.423,9.366c-0.253,0.04 -0.417,0.277 -0.375,0.525c0.041,0.249 0.276,0.417 0.525,0.376c0.677,-0.113 1.348,-0.263 2.01,-0.445Z" style="fill:#276ab4;fill-rule:nonzero;"/><path d="M207.464,53.185c7.932,-2.199 14.588,-8.911 14.89,-9.219c0.177,-0.18 0.174,-0.469 -0.006,-0.645c-0.18,-0.177 -0.469,-0.173 -0.646,0.006c-0.078,0.079 -7.911,7.974 -16.399,9.407c-0.253,0.041 -0.417,0.278 -0.375,0.526c0.042,0.249 0.278,0.417 0.526,0.375c0.677,-0.114 1.348,-0.267 2.01,-0.45Z" style="fill:#276ab4;fill-rule:nonzero;"/><path d="M277.066,195.021l3.194,7.11l-6.55,2.818l-3.81,-7.344l7.166,-2.584Z" style="fill:#f5a385;fill-rule:nonzero;"/><path d="M278.829,201.981c-0,-0 0.671,-2.874 1.995,-3.341c1.323,-0.466 14.65,3.092 18.325,2.265c3.675,-0.827 4.103,1.956 4.038,3.503c-0.067,1.547 -27.263,11.303 -27.263,11.303c-0,-0 -4.152,-7.551 -4.338,-10.334c-0.184,-2.782 4.84,-1.671 7.243,-3.396Z" style="fill:#297abf;fill-rule:nonzero;"/><path d="M286.694,205.088c-0.105,0.089 -0.244,0.136 -0.39,0.121c-0.285,-0.032 -0.49,-0.287 -0.46,-0.571c0.01,-0.094 0.262,-2.344 1.351,-3.654c1.446,-1.745 3.348,-1.326 3.429,-1.308c0.279,0.065 0.452,0.343 0.388,0.621c-0.064,0.28 -0.344,0.454 -0.622,0.388c-0.052,-0.011 -1.367,-0.279 -2.399,0.961c-0.886,1.067 -1.115,3.083 -1.117,3.104c-0.014,0.137 -0.083,0.256 -0.18,0.338Z" style="fill:#fff;fill-rule:nonzero;"/><path d="M284.695,204.369c-0.104,0.088 -0.244,0.134 -0.39,0.119c-0.284,-0.03 -0.49,-0.286 -0.46,-0.57c0.01,-0.096 0.263,-2.346 1.351,-3.656c1.447,-1.746 3.348,-1.326 3.429,-1.307c0.279,0.064 0.452,0.342 0.387,0.622c-0.063,0.278 -0.343,0.452 -0.621,0.386c-0.053,-0.01 -1.368,-0.279 -2.399,0.961c-0.89,1.073 -1.115,3.083 -1.117,3.104c-0.014,0.138 -0.082,0.257 -0.18,0.341Z" style="fill:#fff;fill-rule:nonzero;"/><path d="M289.085,205.338c-0.103,0.089 -0.242,0.136 -0.389,0.121c-0.285,-0.032 -0.491,-0.287 -0.46,-0.571c0.01,-0.095 0.262,-2.345 1.35,-3.655c1.447,-1.746 3.35,-1.327 3.43,-1.308c0.279,0.065 0.452,0.343 0.388,0.621c-0.065,0.279 -0.343,0.454 -0.622,0.388c-0.052,-0.011 -1.369,-0.279 -2.399,0.961c-0.89,1.071 -1.114,3.083 -1.116,3.104c-0.016,0.137 -0.083,0.256 -0.182,0.339Z" style="fill:#fff;fill-rule:nonzero;"/><path d="M278.715,196.4c-0.679,0.771 -2.775,1.941 -5.06,2.964c-0.415,0.187 -0.839,0.368 -1.259,0.542c-0.742,0.305 -1.479,0.584 -2.171,0.821c-0,-0 -15.538,-28.64 -21.501,-49.408c-0,-0 -52.595,-6.494 -54.416,-24.914c-0.063,-0.616 -0.066,-1.246 -0.008,-1.893c0.155,-1.756 0.763,-3.61 1.9,-5.572c1.2,-2.067 19.2,-0.052 28.926,2.677c-0,-0 26.365,10.271 36.113,20.852c4.934,5.355 17.476,53.931 17.476,53.931Z" style="fill:#383355;fill-rule:nonzero;"/><path d="M273.655,199.364c-0.415,0.187 -0.839,0.368 -1.259,0.542c-7.859,-13.005 -18.77,-43.39 -21.202,-50.683c-0.163,-0.493 -0.586,-0.862 -1.104,-0.96c-25.553,-4.804 -40.276,-11.506 -48.129,-16.282c-3.46,-2.105 -5.93,-4.025 -7.653,-5.576c-0.063,-0.616 -0.066,-1.246 -0.008,-1.893c1.671,1.634 4.37,3.886 8.525,6.397c7.752,4.687 22.287,11.271 47.518,16.015c1.004,0.189 1.824,0.906 2.146,1.868c2.432,7.299 13.387,37.82 21.166,50.572Z" style="fill:#1c1737;fill-rule:nonzero;"/><path d="M267.419,197.726l2.481,3.968c-0,-0 6.179,-1.067 10.36,-5.294l-1.545,-3.545c-0,-0 -7.516,3.705 -11.296,4.871Z" style="fill:#534f83;fill-rule:nonzero;"/><path d="M183.711,129.811c-0,-0 3.58,4.853 3.284,7.364c-0.295,2.512 -3.536,7.244 -6.127,7.472c-2.59,0.228 2.977,-6.081 1.663,-5.877c-1.59,0.246 -12.325,9.053 -14.59,9.053c-2.265,-0 2.665,-4.093 4.586,-5.128c-0,-0 -5.078,2.272 -6.261,3.454c-1.181,1.182 -2.04,-1.353 3.87,-4.948c-0,-0 -5.421,3.076 -5.79,3.126c-1.206,0.16 2.234,-3.872 5.196,-5.331c-0,-0 -4.345,2.116 -4.787,2.125c-0.611,0.013 0.7,-1.409 3.924,-3.196c2.902,-1.608 7.655,-8.992 7.655,-8.992l7.377,0.878Z" style="fill:#f5a385;fill-rule:nonzero;"/><path d="M192.417,44.841c-0,-0 -12.047,23.139 -14.79,47.342l-1.293,36.75c-0,-0 1.239,2.619 7.377,0.878l5.938,-36.746l4.55,-16.813c-0,-0 2.068,-20.691 -1.782,-31.411Z" style="fill:#276ab4;fill-rule:nonzero;"/><path d="M229.417,19.823c-1.279,7.239 -8.185,12.07 -15.425,10.791c-7.239,-1.28 -12.07,-8.186 -10.791,-15.426c1.28,-7.239 8.186,-12.07 15.426,-10.791c7.239,1.28 12.071,8.187 10.79,15.426Z" style="fill:#383355;fill-rule:nonzero;"/><path d="M229.618,17.435c-0,-0 3.894,-0.369 4.041,-4.059c0.125,-3.139 -3.828,-1.788 -3.087,-4.128c0.74,-2.341 1.829,-4.395 -1.165,-5.543c-2.62,-1.003 -2.994,0.847 -6.078,-2.478c-3.644,-3.929 -8.179,2.875 -11.973,2.433c-5.595,-0.652 -6.848,2.356 -7.836,4.765c-0.987,2.409 0.834,4.544 0.834,4.544l25.264,4.466Z" style="fill:#383355;fill-rule:nonzero;"/><path d="M226.567,23.102c-0,-0 2.566,-2.402 3.705,0.16c1.139,2.562 -2.239,8.938 -5.727,6.619l2.022,-6.779Z" style="fill:#f47a62;fill-rule:nonzero;"/><path d="M225.74,27.938c0.139,0.024 0.284,-0.045 0.348,-0.179c0.955,-1.984 3.268,-2.448 3.29,-2.452c0.176,-0.034 0.292,-0.204 0.258,-0.38c-0.033,-0.176 -0.202,-0.291 -0.378,-0.258c-0.108,0.02 -2.655,0.524 -3.754,2.809c-0.078,0.161 -0.01,0.355 0.152,0.433l0.084,0.027Z" style="fill:#f15b51;fill-rule:nonzero;"/><path d="M228.109,27.272l0.181,-0.02c0.165,-0.069 0.243,-0.26 0.174,-0.425c-0.012,-0.027 -0.291,-0.679 -1.028,-1.178c-0.148,-0.101 -0.35,-0.062 -0.451,0.086c-0.1,0.149 -0.061,0.35 0.087,0.451c0.57,0.386 0.792,0.887 0.793,0.892c0.045,0.106 0.139,0.175 0.244,0.194Z" style="fill:#f15b51;fill-rule:nonzero;"/><path d="M209.27,33.095l-1.188,6.724c-0,-0 2.241,3.452 4.911,4.164c2.667,0.716 4.884,-2.211 4.884,-2.211l1.143,-6.466l-9.75,-2.211Z" style="fill:#f5a385;fill-rule:nonzero;"/><path d="M209.27,33.095l-0.527,2.983c1.462,2.341 4.605,3.417 9.512,3.556l0.765,-4.328l-9.75,-2.211Z" style="fill:#f47a62;fill-rule:nonzero;"/><path d="M205.234,14.574c-0.338,2.635 -0.666,5.947 -0.63,8.647c0.01,0.674 0.042,1.312 0.101,1.889c0.539,5.205 2.577,14.327 13.111,12.539c4.653,-0.788 7.543,-5.304 9.323,-10.101c1.208,-3.259 1.902,-6.644 2.288,-9.083c0.391,-2.491 -0.563,-4.998 -2.506,-6.603c-5.263,-4.35 -11.653,-4.205 -15.992,-3.361c-3.012,0.584 -5.307,3.035 -5.695,6.073Z" style="fill:#f5a385;fill-rule:nonzero;"/><path d="M221.431,23.099c-0.127,0.717 0.14,1.364 0.596,1.445c0.457,0.081 0.929,-0.436 1.056,-1.153c0.127,-0.718 -0.14,-1.365 -0.596,-1.446c-0.456,-0.081 -0.93,0.436 -1.056,1.154Z" style="fill:#383355;fill-rule:nonzero;"/><path d="M211.755,21.388c-0.127,0.718 0.14,1.365 0.597,1.446c0.456,0.081 0.929,-0.436 1.055,-1.154c0.127,-0.718 -0.14,-1.365 -0.596,-1.446c-0.456,-0.08 -0.929,0.436 -1.056,1.154Z" style="fill:#383355;fill-rule:nonzero;"/><path d="M225.65,19.729c-0,-0 -3.199,-1.968 -6.05,-1.291l0.004,1.268c-0,-0 2.982,-0.133 5.605,1.41c0.275,-0.535 0.562,-0.765 0.441,-1.387Z" style="fill:#383355;fill-rule:nonzero;"/><path d="M209.911,16.946c-0,-0 3.68,-0.751 6.126,0.862l-0.439,1.19c-0,-0 -2.754,-1.147 -5.748,-0.597c-0.075,-0.598 -0.265,-0.911 0.061,-1.455Z" style="fill:#383355;fill-rule:nonzero;"/><path d="M215.949,27.403c-0.539,-0.095 -1.036,-0.399 -1.113,-0.447c-0.151,-0.096 -0.197,-0.296 -0.101,-0.448c0.095,-0.152 0.296,-0.197 0.447,-0.101c0.268,0.168 0.928,0.474 1.26,0.347c0.064,-0.024 0.155,-0.079 0.21,-0.27c0.312,-1.095 0.668,-4.888 0.672,-4.926c0.016,-0.178 0.174,-0.309 0.352,-0.292c0.179,0.016 0.31,0.174 0.293,0.352c-0.015,0.159 -0.365,3.892 -0.693,5.045c-0.124,0.433 -0.396,0.619 -0.603,0.697c-0.226,0.087 -0.479,0.086 -0.724,0.043Z" style="fill:#f47a62;fill-rule:nonzero;"/><path d="M219.622,30.068c-0.493,1.267 -1.788,3.53 -4.711,3.014c-2.93,-0.518 -3.361,-2.872 -3.375,-4.443l8.086,1.429Z" style="fill:#fff;fill-rule:nonzero;"/><path d="M214.656,34.756c-0.827,-0.146 -1.454,-0.689 -1.48,-0.712c-0.135,-0.118 -0.149,-0.323 -0.031,-0.458c0.118,-0.134 0.324,-0.148 0.458,-0.03c0.005,0.005 0.521,0.447 1.166,0.561c0.591,0.105 1.217,-0.135 1.222,-0.136c0.167,-0.067 0.355,0.014 0.422,0.181c0.066,0.166 -0.015,0.355 -0.182,0.421c-0.032,0.013 -0.795,0.311 -1.575,0.173Z" style="fill:#f47a62;fill-rule:nonzero;"/><path d="M226.519,25.291c0.474,-1.275 1.013,-2.933 0.993,-3.835c-0.038,-1.598 -1.155,-2.73 -0.466,-4.142c0.69,-1.418 -0.6,-3.294 -1.712,-3.764c-1.109,-0.473 -3.915,-0.375 -6.354,-2.109c-2.328,-1.658 -6.898,-1.574 -7.906,-0.071c-1.221,1.821 -0.068,2.217 -2.823,3.932c-1.097,0.684 -0.365,3.093 -0.458,4.559c-0.045,0.674 -0.092,0.999 -0.243,1.704l-0.074,0.359l-2.845,-0.503c0.081,-2.284 0.336,-4.775 0.602,-6.849c0.388,-3.038 2.685,-5.485 5.696,-6.071c4.34,-0.843 10.728,-0.991 15.993,3.361c1.942,1.606 2.897,4.112 2.504,6.602c-0.305,1.934 -0.805,4.465 -1.603,7.057l-1.304,-0.23Z" style="fill:#383355;fill-rule:nonzero;"/><path d="M205.675,22.874c0.14,-0.743 0.219,-1.497 0.219,-2.252c-0.001,-1.034 -0.131,-1.995 -1.083,-2.594c-0.765,-0.481 -1.645,-0.644 -2.437,0.175c-1.948,2.017 -1.488,9.444 2.584,8.462l0.717,-3.791Z" style="fill:#f5a385;fill-rule:nonzero;"/><path d="M204.594,24.461c-0.132,-0.051 -0.219,-0.186 -0.205,-0.334c0.216,-2.191 -1.517,-3.79 -1.535,-3.806c-0.132,-0.12 -0.143,-0.325 -0.023,-0.458c0.12,-0.133 0.326,-0.143 0.458,-0.024c0.081,0.074 1.995,1.828 1.746,4.352c-0.018,0.178 -0.176,0.308 -0.355,0.29l-0.086,-0.02Z" style="fill:#f47a62;fill-rule:nonzero;"/><path d="M202.917,22.661l-0.145,-0.112c-0.105,-0.146 -0.072,-0.348 0.073,-0.453c0.024,-0.018 0.602,-0.429 1.491,-0.472c0.178,-0.009 0.331,0.129 0.34,0.308c0.008,0.179 -0.13,0.331 -0.309,0.34c-0.688,0.034 -1.138,0.346 -1.142,0.349c-0.092,0.067 -0.209,0.078 -0.308,0.04Z" style="fill:#f47a62;fill-rule:nonzero;"/><path d="M355.929,176.58c-0,-0 -4.382,8.311 -9.54,14.895c-1.523,1.943 -3.11,3.734 -4.677,5.116c-2.536,2.244 -5.01,3.417 -7.024,2.422c-7.472,-3.69 -24.128,-33.059 -24.128,-33.059l4.101,-4.767c-0,-0 7.414,8.387 12.835,13.407c5.001,4.629 8.845,8.089 8.845,8.089c0.692,-1.033 1.43,-2.163 2.196,-3.36c0.816,-1.271 1.662,-2.615 2.523,-3.999c6.243,-10.042 13.761,-21.026 13.761,-21.026l1.108,22.282Z" style="fill:#f5a385;fill-rule:nonzero;"/><path d="M315.749,164.071c-0,-0 1.691,-2.777 1.037,-5.263c-0.653,-2.486 -1.289,-8.106 -4.005,-7.953c-0.992,0.055 0.457,2.403 -0.208,4.578c-0,-0 -2.909,-1.401 -4.856,-2.84c-1.712,-1.265 -5.258,-3.32 -6.907,-4.259c-0.452,-0.257 -0.975,0.236 -0.713,0.679c0.423,0.717 1.458,1.787 3.849,3.284c-0,-0 -5.941,-3.327 -6.936,-2.596c-0.996,0.731 6.51,4.757 6.51,4.757c-0,-0 -6.061,-2.45 -6.557,-1.553c-0.302,0.546 5.642,4.037 5.642,4.037c-0,-0 -5.904,-1.822 -4.808,-0.44c0.319,0.403 11.534,5.478 13.871,11.371c-0,-0 3.268,-1.79 4.081,-3.802Z" style="fill:#f5a385;fill-rule:nonzero;"/><path d="M346.389,191.475c-1.523,1.943 -3.11,3.734 -4.677,5.116l-3.175,-17.268c0.816,-1.271 1.662,-2.615 2.523,-3.999l5.329,16.151Z" style="fill:#f47a62;fill-rule:nonzero;"/><path d="M355.047,153.524l-15.791,22.775l5.026,20.292l12.39,-19.766c-0,-0 2.32,-13.225 -1.625,-23.301Z" style="fill:#297abf;fill-rule:nonzero;"/><path d="M363.151,348.396l-0,7.19l6.712,-0.106l0.438,-7.619l-7.15,0.535Z" style="fill:#f5a385;fill-rule:nonzero;"/><path d="M380.192,243.347c-0.047,0.854 -0.279,4.957 -0.631,10.678c-0.946,15.717 -2.715,43.645 -3.753,49.92c-1.066,6.437 -0.584,27.547 -0.241,38.597c0.055,1.879 -0.677,3.586 -1.9,4.839c-0.454,0.463 -0.982,0.863 -1.557,1.19c-1,0.554 -2.15,0.872 -3.373,0.872l-5.116,-0c-3.855,-0 -6.951,-3.124 -6.83,-6.901c0.287,-9.343 0.639,-26.385 -0.028,-39.551c-0.64,-12.53 0.287,-34.702 1.001,-48.522l0.009,-0c0.288,-5.52 0.538,-9.697 0.639,-11.403l21.78,0.281Z" style="fill:#383355;fill-rule:nonzero;"/><path d="M358.412,243.066l21.78,0.281c-0.047,0.854 -0.279,4.957 -0.631,10.678c-7.396,0.89 -15.097,1.262 -21.788,0.444c0.288,-5.52 0.538,-9.697 0.639,-11.403Z" style="fill:#1c1737;fill-rule:nonzero;"/><path d="M373.583,322.835c0.191,7.067 0.389,14.373 0.259,20.263c-0.036,1.653 -0.095,3.067 -0.173,4.279c-0.455,0.469 -0.982,0.872 -1.563,1.192c0.125,-1.406 0.222,-3.206 0.273,-5.502c0.127,-5.856 -0.07,-13.144 -0.261,-20.194c-0.234,-8.615 -0.454,-16.753 0.025,-20.218c1.045,-7.581 3.382,-48.679 3.995,-59.651l1.465,0.065c-0.613,10.965 -2.957,52.146 -4.01,59.777c-0.462,3.35 -0.241,11.434 -0.01,19.989Z" style="fill:#1c1737;fill-rule:nonzero;"/><path d="M364.871,355.317c-0,-0 -1.389,-1.915 -2.529,-1.859c-1.139,0.055 -10.065,6.701 -13.084,7.2c-3.018,0.5 -2.483,2.68 -1.958,3.801c0.526,1.12 23.987,0.098 23.987,0.098c-0,-0 0.797,-6.817 0.078,-8.924c-0.717,-2.105 -4.154,0.229 -6.494,-0.316Z" style="fill:#297abf;fill-rule:nonzero;"/><path d="M359.915,359.981c0.106,0.034 0.225,0.026 0.329,-0.029c0.205,-0.109 0.282,-0.359 0.171,-0.559c-0.037,-0.067 -0.92,-1.649 -2.142,-2.286c-1.625,-0.849 -2.928,0.034 -2.983,0.072c-0.189,0.132 -0.234,0.39 -0.099,0.575c0.133,0.186 0.397,0.23 0.587,0.098c0.036,-0.023 0.942,-0.618 2.099,-0.016c0.996,0.519 1.789,1.935 1.797,1.95c0.054,0.096 0.142,0.164 0.241,0.195Z" style="fill:#fff;fill-rule:nonzero;"/><path d="M361.196,358.847c0.105,0.033 0.224,0.027 0.33,-0.03c0.205,-0.108 0.281,-0.358 0.171,-0.559c-0.038,-0.067 -0.92,-1.649 -2.143,-2.286c-1.626,-0.848 -2.928,0.034 -2.982,0.072c-0.19,0.132 -0.235,0.39 -0.1,0.576c0.135,0.185 0.397,0.229 0.587,0.097c0.036,-0.023 0.942,-0.619 2.099,-0.016c1,0.521 1.79,1.935 1.797,1.95c0.054,0.097 0.142,0.164 0.241,0.196Z" style="fill:#fff;fill-rule:nonzero;"/><path d="M358.193,360.887c0.105,0.034 0.224,0.027 0.33,-0.029c0.204,-0.108 0.28,-0.358 0.17,-0.56c-0.037,-0.066 -0.92,-1.648 -2.142,-2.285c-1.627,-0.849 -2.928,0.033 -2.982,0.072c-0.191,0.131 -0.235,0.389 -0.101,0.575c0.135,0.186 0.397,0.23 0.588,0.097c0.035,-0.023 0.942,-0.618 2.1,-0.015c1,0.52 1.788,1.935 1.795,1.949c0.054,0.098 0.142,0.165 0.242,0.196Z" style="fill:#fff;fill-rule:nonzero;"/><path d="M395.84,348.396l0.723,7.178l5.989,-0.094l0.438,-7.619l-7.15,0.535Z" style="fill:#f5a385;fill-rule:nonzero;"/><path d="M408.17,302.991c-0.667,13.166 -0.315,30.208 -0.028,39.551c0.111,3.777 -2.975,6.901 -6.83,6.901l-5.115,-0c-1.131,-0 -2.207,-0.273 -3.142,-0.745c-0.565,-0.29 -1.094,-0.654 -1.548,-1.09c-1.372,-1.262 -2.206,-3.068 -2.141,-5.066c0.343,-11.05 0.825,-32.16 -0.241,-38.597c-1.056,-6.384 -2.873,-35.166 -3.808,-50.72c-0.307,-5.193 -0.52,-8.906 -0.576,-9.823l21.817,0.281c0.064,1.108 0.166,2.815 0.287,4.976c0.704,12.438 2.066,39.832 1.325,54.332Z" style="fill:#383355;fill-rule:nonzero;"/><path d="M406.845,248.659c-4.105,1.098 -12.252,3.114 -21.528,4.566c-0.307,-5.193 -0.52,-8.906 -0.576,-9.823l21.817,0.281c0.064,1.108 0.166,2.815 0.287,4.976Z" style="fill:#1c1737;fill-rule:nonzero;"/><path d="M392.777,343.067c0.05,2.366 0.153,4.203 0.28,5.627c-0.568,-0.287 -1.092,-0.651 -1.553,-1.082c-0.088,-1.263 -0.154,-2.753 -0.193,-4.514c-0.127,-5.89 0.071,-13.196 0.262,-20.263c0.231,-8.555 0.449,-16.639 -0.013,-19.989c-1.052,-7.634 -3.397,-48.837 -4.007,-59.786l1.463,-0.065c0.612,10.957 2.949,52.077 3.997,59.66c0.478,3.465 0.257,11.603 0.024,20.218c-0.19,7.05 -0.387,14.338 -0.26,20.194Z" style="fill:#1c1737;fill-rule:nonzero;"/><path d="M398.898,354.47c-0,-0 3.054,-0.798 3.898,-0.782c0.845,0.017 6.502,6.214 8.407,6.579c3.454,0.662 3.459,5.946 1.357,6.209c-6.08,0.76 -16.482,-1.757 -16.482,-1.757c-0,-0 -0.958,-6.781 -0.542,-8.909c0.416,-2.128 1.663,-0.714 3.362,-1.34Z" style="fill:#297abf;fill-rule:nonzero;"/><path d="M403.933,360.258c-0.109,0.024 -0.227,0.005 -0.326,-0.059c-0.194,-0.128 -0.244,-0.384 -0.116,-0.573c0.044,-0.063 1.078,-1.555 2.356,-2.075c1.7,-0.692 2.911,0.308 2.962,0.351c0.176,0.149 0.195,0.41 0.043,0.582c-0.152,0.173 -0.418,0.191 -0.594,0.042c-0.033,-0.026 -0.877,-0.703 -2.089,-0.212c-1.041,0.423 -1.969,1.759 -1.978,1.772c-0.063,0.092 -0.157,0.151 -0.258,0.172Z" style="fill:#fff;fill-rule:nonzero;"/><path d="M402.768,359.009c-0.109,0.024 -0.226,0.005 -0.325,-0.06c-0.194,-0.127 -0.245,-0.383 -0.116,-0.572c0.043,-0.064 1.077,-1.556 2.355,-2.075c1.702,-0.693 2.911,0.307 2.962,0.351c0.176,0.148 0.195,0.409 0.043,0.581c-0.152,0.173 -0.418,0.192 -0.594,0.043c-0.033,-0.027 -0.878,-0.704 -2.088,-0.213c-1.046,0.425 -1.969,1.759 -1.978,1.772c-0.063,0.092 -0.158,0.152 -0.259,0.173Z" style="fill:#fff;fill-rule:nonzero;"/><path d="M405.559,361.322c-0.109,0.023 -0.227,0.005 -0.326,-0.061c-0.193,-0.127 -0.244,-0.383 -0.115,-0.572c0.043,-0.063 1.077,-1.556 2.355,-2.075c1.702,-0.694 2.911,0.307 2.962,0.35c0.176,0.15 0.195,0.411 0.043,0.582c-0.152,0.173 -0.418,0.192 -0.594,0.043c-0.033,-0.027 -0.878,-0.704 -2.089,-0.212c-1.046,0.424 -1.969,1.758 -1.977,1.772c-0.064,0.092 -0.158,0.15 -0.259,0.173Z" style="fill:#fff;fill-rule:nonzero;"/><path d="M411.509,245.551c-19.704,4.859 -39.385,4.872 -59.045,-0c-0.103,-7.196 -0.207,-35.972 0.36,-59.59c0.01,-0.465 0.023,-0.927 0.035,-1.387c0.004,-0.229 0.011,-0.457 0.017,-0.681l-0,-0.037c0.008,-0.295 0.014,-0.585 0.025,-0.876c0.42,-15.576 1.154,-28.296 2.41,-29.995l0.002,-0.002c2.934,-3.949 17.677,-10.256 21.757,-13.073c0.34,0.536 2.346,3.515 4.976,3.735c2.887,0.25 5.453,-3.078 5.453,-3.078l-0,-0.629c4.097,2.814 17.454,8.651 20.385,12.589c3.205,4.316 3.761,80.763 3.625,93.024Z" style="fill:#297abf;fill-rule:nonzero;"/><path d="M358.83,174.872c-1.691,2.241 -4.162,7.318 -5.271,9.665c-0.152,0.321 -0.277,0.592 -0.372,0.798c-0.125,0.268 -0.196,0.424 -0.201,0.436l-0.162,0.19c0.01,-0.465 0.023,-0.927 0.035,-1.387c0.004,-0.229 0.011,-0.457 0.017,-0.681l-0,-0.037c0.227,-0.479 0.496,-1.04 0.796,-1.656c1.261,-2.576 3.061,-6.05 4.424,-7.858c0.149,-0.199 0.436,-0.24 0.639,-0.094c0.203,0.147 0.243,0.427 0.095,0.624Z" style="fill:#276ab4;fill-rule:nonzero;"/><path d="M396.56,157.489l-0.015,-0c-7.829,-0.244 -13.87,-3.436 -17.559,-6.07c-3.996,-2.853 -6.116,-5.612 -6.204,-5.729c-0.15,-0.197 -0.108,-0.478 0.093,-0.625c0.203,-0.147 0.489,-0.106 0.639,0.091c0.084,0.11 8.532,10.986 23.06,11.439c0.252,0.008 0.45,0.215 0.442,0.461c-0.008,0.242 -0.211,0.433 -0.456,0.433Z" style="fill:#276ab4;fill-rule:nonzero;"/><path d="M370.183,230.537c-0.238,-0 -0.44,-0.182 -0.455,-0.418c-0.017,-0.247 0.174,-0.459 0.426,-0.476c12.845,-0.825 20.508,-7.203 24.674,-12.407c4.53,-5.659 6.033,-11.201 6.047,-11.257c0.064,-0.238 0.312,-0.383 0.556,-0.32c0.244,0.061 0.391,0.305 0.328,0.545c-0.061,0.231 -1.554,5.751 -6.189,11.554c-4.283,5.361 -12.157,11.93 -25.357,12.778l-0.03,0.001Z" style="fill:#276ab4;fill-rule:nonzero;"/><path d="M377.08,222.544c-0.201,-0 -0.385,-0.13 -0.44,-0.331c-0.066,-0.237 0.078,-0.483 0.321,-0.547c11.163,-2.956 13.318,-12.09 13.338,-12.182c0.053,-0.241 0.297,-0.396 0.542,-0.342c0.246,0.052 0.402,0.289 0.35,0.53c-0.022,0.101 -0.563,2.484 -2.561,5.272c-1.839,2.566 -5.315,5.965 -11.431,7.585l-0.119,0.015Z" style="fill:#276ab4;fill-rule:nonzero;"/><path d="M425.968,244.76c-0.28,3.914 -2.679,6.822 -2.69,9.398c-0.013,2.579 -3.05,0.892 -1.644,-4.198c1.404,-5.089 -0.679,-10.015 -1.792,-9.969c-1.114,0.048 0.354,5.736 -0.816,7.626c-1.169,1.887 -2.053,-2.078 -3.079,-4.533c-1.065,-2.548 -0.469,-7.832 0.496,-11.555c0.964,-3.72 -3.771,-27.325 -3.151,-33.977l-1.709,-8.629l-0.999,-5.033l-0.186,-5.254l9.127,-3.543c0.343,1.687 0.695,3.436 1.045,5.194c0.153,0.776 0.304,1.553 0.454,2.328c1.22,6.292 2.317,12.485 2.763,16.459c1.234,10.991 -0.791,33.407 -0.791,33.407c-0,-0 3.236,8.61 2.972,12.279Z" style="fill:#f5a385;fill-rule:nonzero;"/><path d="M421.024,182.615c-2.059,2.304 -5.348,5.238 -9.441,6.308l-0.999,-5.033l-0.186,-5.254l9.127,-3.543c0.343,1.687 0.695,3.436 1.045,5.194c0.153,0.776 0.304,1.553 0.454,2.328Z" style="fill:#f47a62;fill-rule:nonzero;"/><path d="M423.558,177.633c-0,-0 -1.089,1.265 -2.989,2.653c-2.3,1.69 -5.794,3.568 -9.974,3.604c-0.505,-14.562 -1.248,-26.867 -2.33,-30.479c1.926,2.329 11.174,13.798 15.293,24.222Z" style="fill:#297abf;fill-rule:nonzero;"/><path d="M404.331,173.41c1.691,2.24 4.162,7.317 5.271,9.664c0.151,0.322 0.276,0.593 0.372,0.798c0.126,0.268 0.196,0.424 0.201,0.436c0.075,0.168 0.242,0.266 0.418,0.266l0.009,-0c-0.005,-0.228 -0.012,-0.456 -0.019,-0.682c0.135,-0 0.27,-0 0.4,-0.005c-0.062,-0.132 -0.21,-0.453 -0.422,-0.907c-0.268,-0.57 -0.637,-1.353 -1.072,-2.242c-1.26,-2.578 -3.061,-6.052 -4.423,-7.858c-0.151,-0.199 -0.436,-0.241 -0.639,-0.094c-0.203,0.145 -0.244,0.427 -0.096,0.624Z" style="fill:#276ab4;fill-rule:nonzero;"/><path d="M396.08,116.523c-0,7.887 -4.956,13.323 -13.006,13.323c-8.052,-0 -13.663,-5.844 -13.663,-13.732c-0,-7.888 4.767,-13.864 12.819,-13.864c9.655,-0 13.85,6.385 13.85,14.273Z" style="fill:#383355;fill-rule:nonzero;"/><path d="M394.272,119.919c-0,-0 2.237,-2.922 3.9,-0.506c1.663,2.416 -0.688,9.553 -4.761,7.811l0.861,-7.305Z" style="fill:#f47a62;fill-rule:nonzero;"/><path d="M394.301,125.018c0.15,-0 0.288,-0.097 0.331,-0.246c0.631,-2.203 2.961,-3.096 2.984,-3.105c0.177,-0.066 0.267,-0.261 0.2,-0.435c-0.068,-0.174 -0.266,-0.262 -0.444,-0.196c-0.108,0.041 -2.675,1.017 -3.403,3.554c-0.051,0.179 0.056,0.365 0.238,0.415l0.094,0.013Z" style="fill:#f15b51;fill-rule:nonzero;"/><path d="M396.653,123.908l0.185,-0.053c0.16,-0.101 0.206,-0.31 0.104,-0.466c-0.018,-0.026 -0.43,-0.642 -1.292,-1.02c-0.172,-0.077 -0.377,-0 -0.454,0.17c-0.079,0.17 -0,0.369 0.173,0.445c0.666,0.292 0.991,0.765 0.994,0.77c0.066,0.1 0.176,0.154 0.29,0.154Z" style="fill:#f15b51;fill-rule:nonzero;"/><path d="M371.22,119.919c-0,-0 -2.237,-2.922 -3.9,-0.506c-1.663,2.416 0.688,9.553 4.76,7.811l-0.86,-7.305Z" style="fill:#f47a62;fill-rule:nonzero;"/><path d="M371.191,125.018c-0.151,-0 -0.288,-0.097 -0.331,-0.246c-0.631,-2.203 -2.961,-3.096 -2.985,-3.105c-0.176,-0.066 -0.266,-0.261 -0.199,-0.435c0.067,-0.174 0.266,-0.262 0.443,-0.196c0.109,0.041 2.676,1.017 3.404,3.554c0.051,0.179 -0.056,0.365 -0.239,0.415l-0.093,0.013Z" style="fill:#f15b51;fill-rule:nonzero;"/><path d="M368.839,123.908l-0.185,-0.053c-0.161,-0.101 -0.206,-0.31 -0.104,-0.466c0.018,-0.026 0.43,-0.642 1.292,-1.02c0.173,-0.077 0.377,-0 0.454,0.17c0.078,0.17 -0,0.369 -0.173,0.445c-0.667,0.292 -0.991,0.765 -0.994,0.77c-0.066,0.1 -0.177,0.154 -0.29,0.154Z" style="fill:#f15b51;fill-rule:nonzero;"/><path d="M377.24,133.277l-0,7.097c-0,-0 2.16,3.614 5.082,3.86c2.918,0.249 5.511,-3.112 5.511,-3.112l-0,-7.347l-10.593,-0.498Z" style="fill:#f5a385;fill-rule:nonzero;"/><path d="M377.24,133.277l-0,3.149c1.96,2.131 5.442,2.663 10.593,1.918l-0,-4.569l-10.593,-0.498Z" style="fill:#f47a62;fill-rule:nonzero;"/><path d="M395.468,119.693c-0.109,1.504 -0.29,3.092 -0.588,4.673c-0.971,5.231 -3.158,10.376 -7.873,12.027c-10.673,3.734 -14.487,-5.235 -16.013,-10.463c-0.167,-0.58 -0.317,-1.226 -0.451,-1.916c-0.242,-1.246 -0.43,-2.636 -0.577,-4.036c-0.175,-1.698 -0.291,-3.416 -0.362,-4.927c-0.157,-3.182 1.787,-6.102 4.826,-7.248c4.376,-1.648 11.025,-2.95 17.326,0.55c2.328,1.289 3.787,3.684 3.839,6.303c0.027,1.424 0.007,3.162 -0.127,5.037Z" style="fill:#f5a385;fill-rule:nonzero;"/><path d="M388.406,131.034l-0,0.003l-0.003,-0c-0.472,0.443 -0.954,0.814 -1.433,1.066c-2.704,1.433 -2.998,1.215 -4.064,1.262c-1.088,0.05 -2.585,-0.264 -4.107,-1.095c-0.472,-0.262 -1.179,-0.764 -1.952,-1.457c-0,-0 -1.097,-3.674 5.87,-2.753c6.984,-1.176 5.805,2.257 5.689,2.974Zm5.74,-11.056c-0.36,0.643 -2.36,6.689 -2.916,7.536c-1.262,-2.72 -7.351,-0.743 -7.351,-0.743c-0.383,0.12 -0.779,0.184 -1.179,0.184c-0.386,-0 -0.773,-0.061 -1.145,-0.175l-0.031,-0.009c-0,-0 -6.16,-1.893 -7.374,0.957c-0.564,-0.844 -2.301,-6.775 -2.625,-7.75l-1.559,-0c0.147,1.4 0.335,2.79 0.577,4.036c0.134,0.69 0.284,1.336 0.451,1.916c1.526,5.228 5.34,14.197 16.013,10.463c4.715,-1.651 6.902,-6.796 7.873,-12.027c0.298,-1.581 0.479,-3.169 0.588,-4.673l-1.322,0.285Z" style="fill:#383355;fill-rule:nonzero;"/><path d="M387.324,120.845c-0,0.758 0.398,1.372 0.889,1.372c0.492,-0 0.891,-0.614 0.891,-1.372c-0,-0.758 -0.399,-1.372 -0.891,-1.372c-0.491,-0 -0.889,0.614 -0.889,1.372Z" style="fill:#383355;fill-rule:nonzero;"/><path d="M376.831,120.817c-0,0.757 0.399,1.372 0.891,1.372c0.491,-0 0.89,-0.615 0.89,-1.372c-0,-0.758 -0.399,-1.372 -0.89,-1.372c-0.492,-0 -0.891,0.614 -0.891,1.372Z" style="fill:#383355;fill-rule:nonzero;"/><path d="M391.743,116.971c-0,-0 -3.41,-1.32 -6.036,-0.209l0.263,1.431c-0,-0 3.854,-0.319 5.796,0.452c0.174,-0.551 0.199,-1.108 -0.023,-1.674Z" style="fill:#383355;fill-rule:nonzero;"/><path d="M374.783,116.971c-0,-0 3.411,-1.32 6.037,-0.209l-0.263,1.431c-0,-0 -3.855,-0.319 -5.796,0.452c-0.174,-0.551 -0.199,-1.108 0.022,-1.674Z" style="fill:#383355;fill-rule:nonzero;"/><path d="M382.626,126.154c-0.58,-0 -1.156,-0.221 -1.245,-0.257c-0.176,-0.07 -0.261,-0.267 -0.188,-0.439c0.071,-0.173 0.272,-0.255 0.448,-0.185c0.31,0.124 1.057,0.317 1.38,0.127c0.062,-0.036 0.148,-0.108 0.17,-0.314c0.124,-1.177 -0.205,-5.123 -0.208,-5.163c-0.016,-0.185 0.125,-0.348 0.314,-0.363c0.191,-0.016 0.356,0.122 0.371,0.308c0.014,0.165 0.338,4.049 0.207,5.288c-0.05,0.467 -0.3,0.705 -0.501,0.824c-0.219,0.128 -0.484,0.174 -0.748,0.174Z" style="fill:#f47a62;fill-rule:nonzero;"/><path d="M387.324,128.625c-0.282,1.386 -1.216,3.937 -4.366,3.937c-3.157,-0 -4.042,-2.331 -4.346,-3.937l8.712,-0Z" style="fill:#fff;fill-rule:nonzero;"/><path d="M369.966,119.979l1.56,-0c-0.172,-1.535 -0.419,-4.237 0.867,-4.623c4.063,-1.223 -1.203,-4.037 0.632,-5.439c1.834,-1.406 6.399,-0.804 9.574,-0.905c3.194,-0.101 8.329,-0.057 9.575,0.226c1.249,0.28 0.565,2.312 0.107,3.887c-0.461,1.571 1.531,3.311 1.865,4.94c0.095,0.467 0.076,1.161 -0.001,1.914l1.301,-0c0.154,-1.982 0.176,-3.828 0.148,-5.323c-0.051,-2.62 -1.51,-5.014 -3.837,-6.305c-6.301,-3.499 -12.949,-2.195 -17.326,-0.546c-3.039,1.143 -4.983,4.066 -4.828,7.245c0.073,1.512 0.187,3.23 0.363,4.929Z" style="fill:#383355;fill-rule:nonzero;"/><path d="M141.291,292.686l-79.165,-0c1.308,-7.941 7.608,-13.712 14.95,-13.688l24.632,0.072l24.633,-0.072c7.342,-0.024 13.642,5.747 14.95,13.688Z" style="fill:#fff;fill-rule:nonzero;"/><rect x="68.352" y="291.549" width="4.314" height="73.81" style="fill:#fff;fill-rule:nonzero;"/><rect x="130.751" y="291.549" width="4.313" height="73.81" style="fill:#fff;fill-rule:nonzero;"/><rect x="72.666" y="312.231" width="58.085" height="4.159" style="fill:#cbe2f2;fill-rule:nonzero;"/><path d="M82.327,193.327c-0,-0 -13.222,17.633 -14.981,33.009c-1.242,10.861 14.981,27.09 14.981,27.09l5.588,-2.781l-5.571,-12.56c-1.982,-6.118 -4.423,-8.536 -2.62,-14.708l4.035,-8.7l-1.432,-21.35Z" style="fill:#276ab4;fill-rule:nonzero;"/><path d="M123.99,193.061c-0,-0 13.049,18.801 14.13,34.241c0.932,13.312 -15.043,26.124 -15.043,26.124l-4.614,-2.297l6.39,-12.69c1.982,-6.117 2.924,-9.806 0.221,-16.462l-3.429,-7.3l2.345,-21.616Z" style="fill:#276ab4;fill-rule:nonzero;"/><path d="M85.02,233.483l-8.764,27.879c-0,-0 37.943,4.84 49.547,1.708l-5.894,-30.364l4.081,-39.645c-5.679,-2.393 -11.699,-3.922 -17.847,-4.365c-8.972,-0.649 -14.64,0.832 -23.816,4.631l2.693,40.156Z" style="fill:#297abf;fill-rule:nonzero;"/><path d="M94.506,201.733c8.37,-0.981 16.158,-6.731 16.512,-6.995c0.207,-0.154 0.249,-0.447 0.095,-0.653c-0.154,-0.208 -0.447,-0.249 -0.654,-0.096c-0.092,0.068 -9.256,6.829 -18.071,6.949c-0.261,0.001 -0.464,0.216 -0.46,0.474c0.003,0.257 0.215,0.465 0.473,0.461c0.703,-0.01 1.406,-0.059 2.105,-0.14Z" style="fill:#276ab4;fill-rule:nonzero;"/><path d="M101.25,351.098l0.684,6.155l6.547,0.15l0.549,-5.108l-7.78,-1.197Z" style="fill:#f5a385;fill-rule:nonzero;"/><path d="M100.223,253.502c-0,-0 -16.954,-0.932 -22.697,3.766c-5.742,4.698 -4.588,18.181 1.263,21.862c5.85,3.681 15.822,10.914 15.822,10.914l6.343,63.061l8.382,0.284c-0,-0 7.723,-63.345 3.807,-75.613c-3.915,-12.268 -12.92,-24.274 -12.92,-24.274Z" style="fill:#1c1737;fill-rule:nonzero;"/><path d="M110.109,350.261c0.456,1.473 0.239,2.901 -0.216,4.319l-9.644,-0.214c-0.34,-1.405 -0.391,-2.816 -0.187,-4.231l10.047,0.126Z" style="fill:#383355;fill-rule:nonzero;"/><path d="M124.215,253.025l-44.491,-0l-4.111,-24.044c-0.356,-2.082 1.248,-3.983 3.36,-3.983l45.993,-0c2.112,-0 3.716,1.901 3.36,3.983l-4.111,24.044Z" style="fill:#fff;fill-rule:nonzero;"/><path d="M120.637,258.253l-37.291,-0c-2,-0 -3.622,-1.621 -3.622,-3.621l-0,-1.607l44.535,-0l-0,1.607c-0,2 -1.622,3.621 -3.622,3.621Z" style="fill:#cbe2f2;fill-rule:nonzero;"/><path d="M105.933,240.002c-0,2.135 -1.73,3.865 -3.864,3.865c-2.134,-0 -3.864,-1.73 -3.864,-3.865c-0,-2.133 1.73,-3.864 3.864,-3.864c2.134,-0 3.864,1.731 3.864,3.864Z" style="fill:#cbe2f2;fill-rule:nonzero;"/><path d="M73.442,333.785l-1.451,6.092l5.875,1.161l2.394,-5.44l-6.818,-1.813Z" style="fill:#f5a385;fill-rule:nonzero;"/><path d="M108.836,252.458c-0,-0 -11.354,-3.916 -18.01,4.306c-6.656,8.222 -17.802,77.629 -17.802,77.629l7.641,3.153l24.562,-61.64c-0,-0 20.002,11.415 22.425,-4.813c1.917,-12.84 -18.816,-18.635 -18.816,-18.635Z" style="fill:#383355;fill-rule:nonzero;"/><path d="M82.396,334.365c-0.028,1.592 -0.701,2.922 -1.605,4.167l-9.392,-3.321c0.12,-1.488 0.524,-2.887 1.181,-4.209l9.816,3.363Z" style="fill:#534f83;fill-rule:nonzero;"/><path d="M76.474,338.875c-0,-0 -3.561,-1.807 -4.609,-2.013c-1.049,-0.207 -9.705,5.934 -12.158,5.875c-4.447,-0.109 -5.871,6.422 -3.343,7.31c7.311,2.571 20.843,2.252 20.843,2.252c-0,-0 3.006,-8.124 3.062,-10.866c0.057,-2.741 -1.863,-1.329 -3.795,-2.558Z" style="fill:#297abf;fill-rule:nonzero;"/><path d="M68.697,344.678c0.128,0.058 0.278,0.067 0.419,0.013c0.272,-0.105 0.404,-0.408 0.295,-0.677c-0.036,-0.09 -0.913,-2.212 -2.354,-3.196c-1.916,-1.314 -3.68,-0.401 -3.755,-0.361c-0.257,0.135 -0.351,0.453 -0.209,0.707c0.141,0.254 0.464,0.348 0.722,0.212c0.049,-0.025 1.274,-0.635 2.639,0.297c1.174,0.803 1.962,2.704 1.969,2.722c0.054,0.13 0.154,0.229 0.274,0.283Z" style="fill:#fff;fill-rule:nonzero;"/><path d="M70.472,343.447c0.127,0.057 0.278,0.066 0.418,0.013c0.273,-0.106 0.406,-0.409 0.296,-0.677c-0.036,-0.09 -0.913,-2.212 -2.353,-3.197c-1.918,-1.314 -3.681,-0.402 -3.756,-0.362c-0.257,0.137 -0.351,0.453 -0.21,0.708c0.142,0.254 0.466,0.349 0.724,0.211c0.048,-0.024 1.274,-0.634 2.638,0.298c1.179,0.807 1.961,2.703 1.969,2.723c0.053,0.13 0.154,0.228 0.274,0.283Z" style="fill:#fff;fill-rule:nonzero;"/><path d="M66.402,345.555c0.128,0.059 0.277,0.068 0.418,0.014c0.273,-0.106 0.405,-0.408 0.296,-0.678c-0.037,-0.09 -0.913,-2.211 -2.354,-3.196c-1.917,-1.315 -3.681,-0.401 -3.755,-0.361c-0.258,0.136 -0.351,0.453 -0.21,0.707c0.141,0.253 0.466,0.349 0.723,0.211c0.048,-0.024 1.274,-0.634 2.639,0.298c1.179,0.807 1.961,2.703 1.969,2.722c0.053,0.131 0.154,0.229 0.274,0.283Z" style="fill:#fff;fill-rule:nonzero;"/><path d="M104.459,356.996c-0,-0 3.645,-1.106 4.664,-1.126c1.018,-0.02 8.13,7.185 10.443,7.536c4.196,0.637 4.449,7.007 1.927,7.422c-7.294,1.201 -19.951,-1.345 -19.951,-1.345c-0,-0 -1.474,-8.129 -1.072,-10.714c0.402,-2.585 1.971,-0.939 3.989,-1.773Z" style="fill:#297abf;fill-rule:nonzero;"/><path d="M110.801,363.737c-0.13,0.033 -0.273,0.016 -0.396,-0.057c-0.238,-0.144 -0.312,-0.451 -0.165,-0.685c0.049,-0.078 1.225,-1.925 2.741,-2.612c2.018,-0.915 3.524,0.235 3.587,0.285c0.22,0.17 0.255,0.484 0.08,0.699c-0.175,0.215 -0.495,0.25 -0.714,0.079c-0.041,-0.031 -1.09,-0.808 -2.528,-0.158c-1.236,0.558 -2.291,2.213 -2.301,2.229c-0.072,0.113 -0.182,0.189 -0.304,0.22Z" style="fill:#fff;fill-rule:nonzero;"/><path d="M109.338,362.286c-0.129,0.033 -0.273,0.017 -0.395,-0.057c-0.24,-0.144 -0.313,-0.451 -0.166,-0.685c0.049,-0.079 1.225,-1.926 2.741,-2.612c2.02,-0.916 3.524,0.234 3.588,0.283c0.219,0.171 0.255,0.485 0.079,0.7c-0.175,0.215 -0.495,0.251 -0.714,0.079c-0.041,-0.031 -1.091,-0.808 -2.528,-0.158c-1.241,0.561 -2.29,2.212 -2.301,2.229c-0.071,0.114 -0.182,0.189 -0.304,0.221Z" style="fill:#fff;fill-rule:nonzero;"/><path d="M112.811,364.943c-0.13,0.033 -0.272,0.017 -0.395,-0.058c-0.239,-0.144 -0.313,-0.451 -0.166,-0.685c0.05,-0.078 1.225,-1.925 2.741,-2.612c2.02,-0.916 3.524,0.235 3.588,0.284c0.219,0.172 0.254,0.485 0.079,0.7c-0.174,0.215 -0.495,0.25 -0.714,0.078c-0.041,-0.03 -1.091,-0.807 -2.528,-0.158c-1.241,0.562 -2.291,2.214 -2.301,2.23c-0.072,0.114 -0.182,0.189 -0.304,0.221Z" style="fill:#fff;fill-rule:nonzero;"/><path d="M114.357,153.563c-0,-0 5.396,8.356 4.804,17.062c-0.591,8.705 0.796,18.754 -6.994,18.312c-7.789,-0.442 -21.682,3.123 -26.099,-3.657c-4.415,-6.78 28.289,-31.717 28.289,-31.717Z" style="fill:#383355;fill-rule:nonzero;"/><path d="M116.357,168.929c-0,-0 1.4,12.618 -4.587,16.092c-5.988,3.474 -10.321,-0.404 -10.321,-0.404c-0,-0 12.621,-17.588 14.908,-15.688Z" style="fill:#181230;fill-rule:nonzero;"/><path d="M91.486,168.87c-0,-0 -2.15,-2.866 -3.748,-0.496c-1.599,2.371 0.661,9.372 4.575,7.663l-0.827,-7.167Z" style="fill:#f47a62;fill-rule:nonzero;"/><path d="M91.459,173.873c-0.145,-0 -0.278,-0.096 -0.319,-0.242c-0.607,-2.161 -2.846,-3.037 -2.868,-3.046c-0.171,-0.065 -0.257,-0.256 -0.192,-0.426c0.065,-0.171 0.256,-0.257 0.426,-0.192c0.105,0.039 2.572,0.997 3.271,3.486c0.049,0.176 -0.053,0.358 -0.229,0.408l-0.089,0.012Z" style="fill:#f15b51;fill-rule:nonzero;"/><path d="M89.198,172.784l-0.179,-0.053c-0.153,-0.099 -0.197,-0.303 -0.099,-0.457c0.017,-0.025 0.413,-0.629 1.242,-1c0.166,-0.075 0.362,-0 0.437,0.166c0.074,0.167 -0,0.363 -0.167,0.437c-0.641,0.287 -0.953,0.751 -0.956,0.755c-0.063,0.099 -0.169,0.152 -0.278,0.152Z" style="fill:#f15b51;fill-rule:nonzero;"/><path d="M113.642,168.87c-0,-0 2.15,-2.866 3.749,-0.496c1.599,2.371 -0.662,9.372 -4.576,7.663l0.827,-7.167Z" style="fill:#f47a62;fill-rule:nonzero;"/><path d="M113.67,173.873c0.145,-0 0.278,-0.096 0.318,-0.242c0.607,-2.161 2.846,-3.037 2.869,-3.046c0.17,-0.065 0.256,-0.256 0.191,-0.426c-0.064,-0.171 -0.255,-0.257 -0.426,-0.192c-0.104,0.039 -2.572,0.997 -3.271,3.486c-0.049,0.176 0.054,0.358 0.229,0.408l0.09,0.012Z" style="fill:#f15b51;fill-rule:nonzero;"/><path d="M115.93,172.784l0.179,-0.053c0.154,-0.099 0.198,-0.303 0.099,-0.457c-0.016,-0.025 -0.412,-0.629 -1.241,-1c-0.166,-0.075 -0.363,-0 -0.437,0.166c-0.075,0.167 -0,0.363 0.167,0.437c0.641,0.287 0.952,0.751 0.955,0.755c0.063,0.099 0.17,0.152 0.278,0.152Z" style="fill:#f15b51;fill-rule:nonzero;"/><path d="M107.856,181.975l-0,6.962c-0,-0 -2.076,3.546 -4.884,3.787c-2.805,0.246 -5.297,-3.052 -5.297,-3.052l-0,-7.208l10.181,-0.489Z" style="fill:#f5a385;fill-rule:nonzero;"/><path d="M107.856,181.975l-0,3.089c-1.884,2.091 -5.229,2.832 -10.18,2.101l-0.001,-4.701l10.181,-0.489Z" style="fill:#f47a62;fill-rule:nonzero;"/><path d="M115.197,164.094c-0.129,2.706 -0.387,6.089 -0.903,8.795c-0.129,0.675 -0.275,1.31 -0.437,1.879c-1.465,5.13 -5.13,13.928 -15.389,10.263c-4.532,-1.617 -6.632,-6.665 -7.568,-11.798c-0.636,-3.486 -0.731,-7.009 -0.685,-9.526c0.049,-2.57 1.452,-4.918 3.688,-6.185c6.056,-3.433 12.446,-2.153 16.653,-0.536c2.921,1.121 4.789,3.989 4.641,7.108Z" style="fill:#f5a385;fill-rule:nonzero;"/><path d="M98.046,169.945c-0,0.744 -0.383,1.346 -0.856,1.346c-0.472,-0 -0.855,-0.602 -0.855,-1.346c-0,-0.743 0.383,-1.345 0.855,-1.345c0.473,-0 0.856,0.602 0.856,1.345Z" style="fill:#383355;fill-rule:nonzero;"/><path d="M108.611,169.945c-0,0.744 -0.384,1.346 -0.856,1.346c-0.472,-0 -0.855,-0.602 -0.855,-1.346c-0,-0.743 0.383,-1.345 0.855,-1.345c0.472,-0 0.856,0.602 0.856,1.345Z" style="fill:#383355;fill-rule:nonzero;"/><path d="M95.496,165.468c0.711,-0.201 2.146,-0.544 3.66,-0.549c0.398,-0 0.703,0.354 0.633,0.746l-0.002,0.009c-0.056,0.313 -0.337,0.535 -0.654,0.52c-1.03,-0.048 -3.735,0.097 -5.012,0.615c-0.026,-0.223 0.106,-0.465 0.291,-0.681c0.282,-0.327 0.668,-0.543 1.084,-0.66Z" style="fill:#383355;fill-rule:nonzero;"/><path d="M109.319,165.495c-0.711,-0.201 -2.146,-0.544 -3.66,-0.548c-0.398,-0.001 -0.703,0.353 -0.633,0.745l0.002,0.01c0.056,0.313 0.337,0.535 0.654,0.52c1.03,-0.048 3.735,0.097 5.012,0.614c0.025,-0.222 -0.106,-0.465 -0.292,-0.681c-0.281,-0.326 -0.668,-0.543 -1.083,-0.66Z" style="fill:#383355;fill-rule:nonzero;"/><path d="M102.679,175.419c-0.253,-0 -0.507,-0.045 -0.719,-0.172c-0.193,-0.116 -0.434,-0.35 -0.481,-0.807c-0.126,-1.216 0.185,-5.026 0.199,-5.188c0.015,-0.182 0.174,-0.318 0.356,-0.303c0.183,0.015 0.318,0.175 0.303,0.357c-0.003,0.039 -0.32,3.911 -0.2,5.066c0.021,0.2 0.103,0.272 0.163,0.307c0.31,0.186 1.027,-0.004 1.326,-0.125c0.17,-0.069 0.363,0.012 0.431,0.181c0.069,0.169 -0.012,0.362 -0.181,0.432c-0.085,0.035 -0.639,0.252 -1.197,0.252Z" style="fill:#f47a62;fill-rule:nonzero;"/><path d="M98.479,177.507c0.25,1.258 1.081,3.573 3.881,3.573c2.806,-0 3.593,-2.115 3.864,-3.573l-7.745,-0Z" style="fill:#fff;fill-rule:nonzero;"/><path d="M102.32,183.01c-0.809,-0 -1.522,-0.435 -1.552,-0.454c-0.155,-0.096 -0.203,-0.3 -0.107,-0.455c0.096,-0.155 0.299,-0.203 0.454,-0.108c0.006,0.004 0.588,0.356 1.205,0.356c0.667,-0 1.264,-0.354 1.27,-0.357c0.157,-0.094 0.359,-0.044 0.454,0.113c0.093,0.156 0.044,0.358 -0.112,0.453c-0.03,0.019 -0.756,0.452 -1.612,0.452Z" style="fill:#f47a62;fill-rule:nonzero;"/><path d="M116.529,163.555c-0.107,0.301 -0.402,0.494 -0.797,0.61c0.029,0.73 -0.048,1.607 -0.119,2.448c-0.409,4.781 -1.614,5.62 -1.887,4.438c-0.18,-0.785 -0.169,-5.287 -0.083,-6.755c-0.944,-0.063 -1.751,-0.22 -1.751,-0.22l-1.109,-4.641l-0.388,4.584c-1.664,0.578 -5.544,-0.349 -5.544,-0.349l-1.301,-4.574l-0.806,4.402c-2.494,1.214 -5.612,0.405 -5.612,0.405l-0.716,-4.747l-1.655,4.747c-0,-0 -5.321,1.91 -5.379,-0c-0.036,-1.111 0.778,-4.239 1.466,-6.663c0.749,-2.644 2.486,-4.877 4.834,-6.136c6.601,-3.543 13.582,-1.659 15.977,-0.228c5.078,3.031 4.87,12.679 4.87,12.679Z" style="fill:#383355;fill-rule:nonzero;"/><path d="M92.313,153.916c-0,-0 -4.381,5.211 -5.823,14.517c-1.441,9.307 -3.437,16.184 2.171,19.257c6.07,3.325 5.545,-3.496 5.457,-5.35c-0.087,-1.854 -5.251,-6.921 -1.805,-21.194c1.113,-4.608 -0,-7.23 -0,-7.23Z" style="fill:#383355;fill-rule:nonzero;"/><path d="M91.289,173.148l-0,0.011c0.002,0.069 0.007,0.439 0.034,1.018c0.013,0.359 0.035,0.796 0.068,1.293c0.206,3.135 0.816,8.55 2.608,10.428c0.707,0.743 2.071,1.116 3.677,1.267l-0,-2.464c-1.692,-0.803 -3.012,-2.122 -4.034,-3.745c-0.632,-1.369 -1.721,-3.511 -2.231,-6.879l-0.122,-0.929Z" style="fill:#181230;fill-rule:nonzero;"/><path d="M115.276,176.193c-0,0.429 -0.347,0.776 -0.775,0.776c-0.428,-0 -0.775,-0.347 -0.775,-0.776c-0,-0.427 0.347,-0.774 0.775,-0.774c0.428,-0 0.775,0.347 0.775,0.774Z" style="fill:#fff;fill-rule:nonzero;"/><path d="M348.76,109.461l-19.008,-0c-1.459,-0 -2.641,-1.184 -2.641,-2.643l-0,-19.007c-0,-1.459 1.182,-2.642 2.641,-2.642l19.008,-0c1.46,-0 2.643,1.183 2.643,2.642l-0,19.007c-0,1.459 -1.183,2.643 -2.643,2.643Z" style="fill:#f99f2d;fill-rule:nonzero;"/><path d="M347.528,97.315c-0,2.001 -0.711,3.835 -1.894,5.266c-1.517,1.835 -3.81,3.005 -6.378,3.005c-2.566,-0 -4.859,-1.169 -6.377,-3.004c-1.182,-1.431 -1.893,-3.266 -1.893,-5.267c-0,-4.569 3.703,-8.271 8.27,-8.271c4.568,-0 8.272,3.702 8.272,8.271Z" style="fill:#f3be53;fill-rule:nonzero;"/><path d="M345.634,102.581c-1.517,1.835 -3.81,3.005 -6.378,3.005c-2.566,-0 -4.859,-1.169 -6.377,-3.004l0.111,-0.22c0.179,-0.354 0.427,-0.664 0.725,-0.914c0.297,-0.251 0.645,-0.442 1.025,-0.557c1.346,-0.411 2.596,-0.827 3.296,-2.03c-0.852,-0.401 -1.421,-1.204 -1.659,-1.77c-0.936,0.2 -1.608,-1.532 -1.108,-1.991c0.19,-0.174 0.384,-0.223 0.553,-0.213c0.154,-1.761 1.632,-3.335 3.434,-3.335c1.802,-0 3.281,1.574 3.436,3.335c0.169,-0.01 0.362,0.039 0.551,0.213c0.501,0.459 -0.171,2.191 -1.107,1.991c-0.204,0.632 -0.906,1.394 -1.539,1.661c0.701,1.203 1.829,1.728 3.177,2.139c0.38,0.115 0.727,0.306 1.024,0.557c0.298,0.25 0.546,0.56 0.725,0.914l0.111,0.219Z" style="fill:#fff;fill-rule:nonzero;"/><path d="M33.136,238.63l-19.008,-0c-1.459,-0 -2.642,-1.182 -2.642,-2.641l-0,-19.008c-0,-1.459 1.183,-2.642 2.642,-2.642l19.008,-0c1.459,-0 2.641,1.183 2.641,2.642l-0,19.008c-0,1.459 -1.182,2.641 -2.641,2.641Z" style="fill:#f99f2d;fill-rule:nonzero;"/><path d="M23.631,225.344c-1.239,-0 -2.245,-1.004 -2.245,-2.245c-0,-1.24 1.006,-2.244 2.245,-2.244c1.24,-0 2.244,1.004 2.244,2.244c-0,1.241 -1.004,2.245 -2.244,2.245Zm0.364,-6.913c-3.102,-0.207 -5.682,2.25 -5.682,5.304c-0,0.99 0.271,1.917 0.744,2.712c0.704,1.185 1.43,2.358 2.098,3.564l2.52,4.54l3.842,-6.931c0.225,-0.406 0.469,-0.799 0.704,-1.199c0.485,-0.822 0.753,-1.788 0.727,-2.816c-0.064,-2.723 -2.235,-4.995 -4.953,-5.174Z" style="fill:#fff;fill-rule:nonzero;"/><path d="M432.276,126.605c2.051,-0 3.721,-1.669 3.721,-3.722c-0,-2.052 -1.67,-3.721 -3.721,-3.721c-2.052,-0 -3.722,1.669 -3.722,3.721c-0,2.053 1.67,3.722 3.722,3.722Zm-0,-9.144c2.99,-0 5.423,2.432 5.423,5.422c-0,2.991 -2.433,5.423 -5.423,5.423c-2.991,-0 -5.423,-2.432 -5.423,-5.423c-0,-2.99 2.432,-5.422 5.423,-5.422Z" style="fill:#297abf;fill-rule:nonzero;"/><path d="M412.755,107.581c2.052,-0 3.721,-1.669 3.721,-3.722c-0,-2.051 -1.669,-3.721 -3.721,-3.721c-2.053,-0 -3.722,1.67 -3.722,3.721c-0,2.053 1.669,3.722 3.722,3.722Zm-0,-9.144c2.989,-0 5.422,2.433 5.422,5.422c-0,2.991 -2.433,5.423 -5.422,5.423c-2.99,-0 -5.423,-2.432 -5.423,-5.423c-0,-2.989 2.433,-5.422 5.423,-5.422Z" style="fill:#f99f2d;fill-rule:nonzero;"/><path d="M406.055,80.816c0.47,-0 0.851,0.381 0.851,0.851l-0,3.751c-0,0.47 -0.381,0.851 -0.851,0.851c-0.47,-0 -0.851,-0.381 -0.851,-0.851l-0,-3.751c-0,-0.47 0.381,-0.851 0.851,-0.851Z" style="fill:#297abf;fill-rule:nonzero;"/><path d="M406.055,74.252c0.47,-0 0.851,0.381 0.851,0.851l-0,3.751c-0,0.469 -0.381,0.85 -0.851,0.85c-0.47,-0 -0.851,-0.381 -0.851,-0.85l-0,-3.751c-0,-0.47 0.381,-0.851 0.851,-0.851Z" style="fill:#297abf;fill-rule:nonzero;"/><path d="M400.79,79.41l3.369,-0c0.47,-0 0.851,0.38 0.851,0.85c-0,0.47 -0.381,0.851 -0.851,0.851l-3.369,-0c-0.469,-0 -0.85,-0.381 -0.85,-0.851c-0,-0.47 0.381,-0.85 0.85,-0.85Z" style="fill:#297abf;fill-rule:nonzero;"/><path d="M407.95,79.41l3.371,-0c0.469,-0 0.85,0.38 0.85,0.85c-0,0.47 -0.381,0.851 -0.85,0.851l-3.371,-0c-0.469,-0 -0.85,-0.381 -0.85,-0.851c-0,-0.47 0.381,-0.85 0.85,-0.85Z" style="fill:#297abf;fill-rule:nonzero;"/><path d="M435.997,101.835c0.47,-0 0.851,0.381 0.851,0.851l-0,3.751c-0,0.469 -0.381,0.85 -0.851,0.85c-0.469,-0 -0.85,-0.381 -0.85,-0.85l-0,-3.751c-0,-0.47 0.381,-0.851 0.85,-0.851Z" style="fill:#f99f2d;fill-rule:nonzero;"/><path d="M435.997,95.271c0.47,-0 0.851,0.38 0.851,0.85l-0,3.751c-0,0.47 -0.381,0.851 -0.851,0.851c-0.469,-0 -0.85,-0.381 -0.85,-0.851l-0,-3.751c-0,-0.47 0.381,-0.85 0.85,-0.85Z" style="fill:#f99f2d;fill-rule:nonzero;"/><path d="M430.732,100.428l3.37,-0c0.47,-0 0.85,0.381 0.85,0.851c-0,0.47 -0.38,0.85 -0.85,0.85l-3.37,-0c-0.47,-0 -0.851,-0.38 -0.851,-0.85c-0,-0.47 0.381,-0.851 0.851,-0.851Z" style="fill:#f99f2d;fill-rule:nonzero;"/><path d="M437.893,100.428l3.369,-0c0.47,-0 0.851,0.381 0.851,0.851c-0,0.47 -0.381,0.85 -0.851,0.85l-3.369,-0c-0.47,-0 -0.851,-0.38 -0.851,-0.85c-0,-0.47 0.381,-0.851 0.851,-0.851Z" style="fill:#f99f2d;fill-rule:nonzero;"/><path d="M96.466,49.92c-2.053,-0 -3.722,1.67 -3.722,3.722c-0,2.052 1.669,3.721 3.722,3.721c2.051,-0 3.721,-1.669 3.721,-3.721c-0,-2.052 -1.67,-3.722 -3.721,-3.722Zm-0,-1.701c2.989,-0 5.422,2.433 5.422,5.423c-0,2.99 -2.433,5.423 -5.422,5.423c-2.991,-0 -5.423,-2.433 -5.423,-5.423c-0,-2.99 2.432,-5.423 5.423,-5.423Z" style="fill:#297abf;fill-rule:nonzero;"/><path d="M76.716,32.009c-2.052,-0 -3.722,1.669 -3.722,3.721c-0,2.052 1.67,3.722 3.722,3.722c2.052,-0 3.722,-1.67 3.722,-3.722c-0,-2.052 -1.67,-3.721 -3.722,-3.721Zm-0,-1.701c2.99,-0 5.423,2.432 5.423,5.422c-0,2.99 -2.433,5.423 -5.423,5.423c-2.99,-0 -5.423,-2.433 -5.423,-5.423c-0,-2.99 2.433,-5.422 5.423,-5.422Z" style="fill:#f99f2d;fill-rule:nonzero;"/><path d="M69.563,61.304c-0,0.469 0.38,0.85 0.85,0.85l3.751,-0c0.47,-0 0.851,-0.381 0.851,-0.85c-0,-0.47 -0.381,-0.851 -0.851,-0.851l-3.751,-0c-0.47,-0 -0.85,0.381 -0.85,0.851Z" style="fill:#297abf;fill-rule:nonzero;"/><path d="M62.998,61.304c-0,0.469 0.381,0.85 0.851,0.85l3.751,-0c0.47,-0 0.85,-0.381 0.85,-0.85c-0,-0.47 -0.38,-0.851 -0.85,-0.851l-3.751,-0c-0.47,-0 -0.851,0.381 -0.851,0.851Z" style="fill:#297abf;fill-rule:nonzero;"/><path d="M68.156,56.038l-0,3.37c-0,0.469 0.38,0.85 0.851,0.85c0.469,-0 0.85,-0.381 0.85,-0.85l-0,-3.37c-0,-0.469 -0.381,-0.85 -0.85,-0.85c-0.471,-0 -0.851,0.381 -0.851,0.85Z" style="fill:#297abf;fill-rule:nonzero;"/><path d="M68.156,63.199l-0,3.37c-0,0.469 0.38,0.85 0.851,0.85c0.469,-0 0.85,-0.381 0.85,-0.85l-0,-3.37c-0,-0.469 -0.381,-0.85 -0.85,-0.85c-0.471,-0 -0.851,0.381 -0.851,0.85Z" style="fill:#297abf;fill-rule:nonzero;"/><path d="M109.284,32.009c-0,0.47 0.381,0.85 0.851,0.85l3.751,-0c0.47,-0 0.851,-0.38 0.851,-0.85c-0,-0.47 -0.381,-0.85 -0.851,-0.85l-3.751,-0c-0.47,-0 -0.851,0.38 -0.851,0.85Z" style="fill:#f99f2d;fill-rule:nonzero;"/><path d="M102.72,32.009c-0,0.47 0.381,0.85 0.851,0.85l3.751,-0c0.469,-0 0.849,-0.38 0.849,-0.85c-0,-0.47 -0.38,-0.85 -0.849,-0.85l-3.751,-0c-0.47,-0 -0.851,0.38 -0.851,0.85Z" style="fill:#f99f2d;fill-rule:nonzero;"/><path d="M107.878,26.744l-0,3.37c-0,0.47 0.381,0.85 0.849,0.85c0.471,-0 0.852,-0.38 0.852,-0.85l-0,-3.37c-0,-0.47 -0.381,-0.85 -0.852,-0.85c-0.468,-0 -0.849,0.38 -0.849,0.85Z" style="fill:#f99f2d;fill-rule:nonzero;"/><path d="M107.878,33.904l-0,3.37c-0,0.47 0.381,0.851 0.849,0.851c0.471,-0 0.852,-0.381 0.852,-0.851l-0,-3.37c-0,-0.469 -0.381,-0.85 -0.852,-0.85c-0.468,-0 -0.849,0.381 -0.849,0.85Z" style="fill:#f99f2d;fill-rule:nonzero;"/><path d="M335.394,58.187c0.114,0.027 0.236,0.028 0.357,-0.001c1.288,-0.317 2.034,-0.445 2.041,-0.447c0.391,-0.066 0.649,-0.416 0.578,-0.782c-0.07,-0.366 -0.443,-0.609 -0.833,-0.543c-0.032,0.005 -0.801,0.137 -2.149,0.468c-0.384,0.095 -0.613,0.463 -0.513,0.823c0.07,0.246 0.274,0.424 0.519,0.482Z" style="fill:#cbe2f2;fill-rule:nonzero;"/><path d="M293.716,89.055c-0.668,1.144 -1.312,2.33 -1.913,3.526c-0.149,0.296 -0.499,0.443 -0.825,0.365l-0.131,-0.044c-0.357,-0.159 -0.511,-0.56 -0.342,-0.897c0.613,-1.22 1.271,-2.43 1.953,-3.598c0.19,-0.326 0.624,-0.446 0.974,-0.267c0.348,0.179 0.475,0.589 0.284,0.915Z" style="fill:#cbe2f2;fill-rule:nonzero;"/><path d="M290.116,96.209c-0.517,1.208 -1.009,2.458 -1.461,3.714c-0.122,0.335 -0.496,0.523 -0.856,0.437l-0.055,-0.015c-0.375,-0.119 -0.576,-0.501 -0.449,-0.854c0.461,-1.28 0.963,-2.553 1.49,-3.785c0.148,-0.345 0.567,-0.512 0.934,-0.373c0.367,0.138 0.545,0.53 0.397,0.876Z" style="fill:#cbe2f2;fill-rule:nonzero;"/><path d="M284.033,115.937c-0.347,-0.082 -0.581,-0.397 -0.535,-0.739c0.184,-1.34 0.4,-2.681 0.643,-3.985c0.068,-0.366 0.44,-0.611 0.831,-0.547c0.395,0.066 0.651,0.413 0.583,0.779c-0.239,1.284 -0.452,2.605 -0.633,3.925c-0.051,0.369 -0.41,0.63 -0.803,0.582l-0.086,-0.015Z" style="fill:#cbe2f2;fill-rule:nonzero;"/><path d="M286.914,102.878c0.382,0.101 0.605,0.472 0.498,0.831c-0.175,0.591 -0.345,1.189 -0.504,1.779c-0.183,0.68 -0.361,1.375 -0.526,2.066c-0.087,0.363 -0.471,0.591 -0.857,0.51l-0.02,-0.005c-0.375,-0.089 -0.608,-0.444 -0.523,-0.801c0.169,-0.702 0.348,-1.41 0.535,-2.101c0.162,-0.599 0.334,-1.209 0.514,-1.811c0.104,-0.353 0.49,-0.561 0.866,-0.471l0.017,0.003Z" style="fill:#cbe2f2;fill-rule:nonzero;"/><path d="M295.856,85.647c-0.17,0.252 -0.49,0.362 -0.782,0.293l-0.208,-0.084c-0.334,-0.199 -0.435,-0.615 -0.223,-0.93c0.765,-1.135 1.577,-2.261 2.414,-3.345c0.232,-0.302 0.681,-0.369 1.002,-0.15c0.321,0.218 0.392,0.639 0.16,0.94c-0.819,1.061 -1.614,2.163 -2.363,3.276Z" style="fill:#cbe2f2;fill-rule:nonzero;"/><path d="M331.725,59.333c-1.309,0.419 -2.638,0.89 -3.948,1.398c-0.149,0.058 -0.305,0.065 -0.45,0.031c-0.212,-0.051 -0.397,-0.192 -0.487,-0.396c-0.151,-0.344 0.023,-0.738 0.389,-0.88c1.338,-0.519 2.695,-0.999 4.032,-1.428c0.375,-0.12 0.783,0.068 0.911,0.419c0.128,0.352 -0.071,0.735 -0.447,0.856Z" style="fill:#cbe2f2;fill-rule:nonzero;"/><path d="M320.179,64.18c-0.167,0.087 -0.355,0.105 -0.526,0.065c-0.184,-0.044 -0.35,-0.157 -0.451,-0.325c-0.192,-0.325 -0.069,-0.735 0.278,-0.917c1.248,-0.653 2.533,-1.281 3.819,-1.865c0.357,-0.161 0.785,-0.022 0.958,0.313c0.173,0.335 0.023,0.738 -0.334,0.9c-1.261,0.572 -2.52,1.188 -3.744,1.829Z" style="fill:#cbe2f2;fill-rule:nonzero;"/><path d="M306.572,73.482c-0.186,0.163 -0.439,0.216 -0.667,0.162c-0.129,-0.031 -0.25,-0.095 -0.347,-0.193c-0.272,-0.271 -0.257,-0.698 0.033,-0.952c1.041,-0.915 2.129,-1.813 3.233,-2.669c0.305,-0.237 0.757,-0.197 1.01,0.09c0.252,0.287 0.209,0.712 -0.096,0.949c-1.081,0.838 -2.147,1.717 -3.166,2.613Z" style="fill:#cbe2f2;fill-rule:nonzero;"/><path d="M313.071,68.443c-0.179,0.123 -0.4,0.156 -0.599,0.109c-0.156,-0.038 -0.301,-0.124 -0.403,-0.257c-0.234,-0.301 -0.162,-0.722 0.158,-0.941c1.151,-0.786 2.347,-1.552 3.557,-2.277c0.334,-0.2 0.778,-0.108 0.991,0.205c0.214,0.314 0.116,0.73 -0.218,0.93c-1.186,0.711 -2.358,1.461 -3.486,2.231Z" style="fill:#cbe2f2;fill-rule:nonzero;"/><path d="M300.799,79.244c-0.183,0.207 -0.47,0.285 -0.729,0.223c-0.1,-0.023 -0.197,-0.068 -0.282,-0.133c-0.304,-0.238 -0.347,-0.663 -0.094,-0.949c0.91,-1.034 1.869,-2.053 2.847,-3.031c0.272,-0.271 0.726,-0.284 1.015,-0.029c0.289,0.255 0.303,0.681 0.031,0.952c-0.958,0.957 -1.896,1.955 -2.788,2.967Z" style="fill:#cbe2f2;fill-rule:nonzero;"/><path d="M336.108,53.628l-1.451,-11.227l38.035,5.455l-36.584,5.772Z" style="fill:#297abf;fill-rule:nonzero;"/><path d="M372.692,47.855l-35.136,8.631l-0.093,0.024l-1.765,2.023l0.41,-4.905l36.584,-5.773Z" style="fill:#276ab4;fill-rule:nonzero;"/><path d="M335.698,58.533l3.158,-0.039l-1.393,-1.984l-1.765,2.023Z" style="fill:#2c58a8;fill-rule:nonzero;"/><path d="M341.884,55.423l-4.422,1.087l7.193,10.241l28.037,-18.895l-30.808,7.567Z" style="fill:#297abf;fill-rule:nonzero;"/></svg>