<?xml version="1.0" encoding="UTF-8" standalone="no"?>
<!DOCTYPE svg PUBLIC "-//W3C//DTD SVG 1.1//EN" "http://www.w3.org/Graphics/SVG/1.1/DTD/svg11.dtd">
<svg width="100%" height="100%" viewBox="0 0 868 621" version="1.1" xmlns="http://www.w3.org/2000/svg" xmlns:xlink="http://www.w3.org/1999/xlink" xml:space="preserve" xmlns:serif="http://www.serif.com/" style="fill-rule:evenodd;clip-rule:evenodd;stroke-linejoin:round;stroke-miterlimit:2;">
    <g id="Artboard1" transform="matrix(1,0,0,0.851769,-1107.24,-159.38)">
        <rect x="1107.24" y="187.117" width="867.805" height="728.056" style="fill:none;"/>
        <g transform="matrix(4.16667,0,0,4.89178,0.241197,-32.4265)">
            <path d="M305.49,176.388C300.598,176.388 296.633,172.423 296.633,167.531L296.633,75.487C296.633,70.595 300.598,66.63 305.49,66.63C310.381,66.63 314.346,70.595 314.346,75.487L314.346,167.531C314.346,172.423 310.381,176.388 305.49,176.388Z" style="fill:url(#_Radial1);"/>
            <path d="M335.258,176.388C330.367,176.388 326.401,172.423 326.401,167.531L326.401,75.487C326.401,70.595 330.367,66.63 335.258,66.63C340.15,66.63 344.115,70.595 344.115,75.487L344.115,167.531C344.115,172.423 340.15,176.388 335.258,176.388Z" style="fill:url(#_Radial2);"/>
            <path d="M365.027,176.388C360.135,176.388 356.17,172.423 356.17,167.531L356.17,75.487C356.17,70.595 360.135,66.63 365.027,66.63C369.918,66.63 373.883,70.595 373.883,75.487L373.883,167.531C373.883,172.423 369.918,176.388 365.027,176.388Z" style="fill:url(#_Radial3);"/>
            <path d="M394.796,176.388C389.904,176.388 385.938,172.423 385.938,167.531L385.938,75.487C385.938,70.595 389.904,66.63 394.796,66.63C399.687,66.63 403.652,70.595 403.652,75.487L403.652,167.531C403.652,172.423 399.687,176.388 394.796,176.388Z" style="fill:url(#_Radial4);"/>
            <path d="M424.564,176.388C419.672,176.388 415.707,172.423 415.707,167.531L415.707,75.487C415.707,70.595 419.672,66.63 424.564,66.63C429.456,66.63 433.42,70.595 433.42,75.487L433.42,167.531C433.42,172.423 429.456,176.388 424.564,176.388Z" style="fill:url(#_Radial5);"/>
            <path d="M305.49,176.388C300.598,176.388 296.632,172.423 296.632,167.531L296.632,107.783C296.632,102.891 300.598,98.927 305.49,98.927C310.381,98.927 314.346,102.891 314.346,107.783L314.346,167.531C314.346,172.423 310.381,176.388 305.49,176.388Z" style="fill:url(#_Linear6);"/>
            <path d="M335.258,176.388C330.367,176.388 326.401,172.423 326.401,167.531L326.401,146.514C326.401,141.622 330.367,137.657 335.258,137.657C340.15,137.657 344.115,141.622 344.115,146.514L344.115,167.531C344.115,172.423 340.15,176.388 335.258,176.388Z" style="fill:url(#_Linear7);"/>
            <path d="M365.027,176.388C360.135,176.388 356.17,172.423 356.17,167.531L356.17,103.837C356.17,98.946 360.135,94.981 365.027,94.981C369.918,94.981 373.883,98.946 373.883,103.837L373.883,167.531C373.883,172.423 369.918,176.388 365.027,176.388Z" style="fill:url(#_Linear8);"/>
            <path d="M394.796,176.388C389.904,176.388 385.938,172.423 385.938,167.531L385.938,129.222C385.938,124.33 389.904,120.365 394.796,120.365C399.687,120.365 403.652,124.33 403.652,129.222L403.652,167.531C403.652,172.423 399.687,176.388 394.796,176.388Z" style="fill:url(#_Linear9);"/>
            <path d="M424.564,176.388C419.672,176.388 415.707,172.423 415.707,167.531L415.707,91.605C415.707,86.714 419.672,82.749 424.564,82.749C429.456,82.749 433.421,86.714 433.421,91.605L433.421,167.531C433.421,172.423 429.456,176.388 424.564,176.388Z" style="fill:url(#_Linear10);"/>
        </g>
    </g>
    <defs>
        <radialGradient id="_Radial1" cx="0" cy="0" r="1" gradientUnits="userSpaceOnUse" gradientTransform="matrix(175.484,187.483,-187.483,175.484,249.36,249.055)"><stop offset="0" style="stop-color:rgb(67,54,119);stop-opacity:1"/><stop offset="1" style="stop-color:rgb(52,47,100);stop-opacity:1"/></radialGradient>
        <radialGradient id="_Radial2" cx="0" cy="0" r="1" gradientUnits="userSpaceOnUse" gradientTransform="matrix(175.484,187.483,-187.483,175.484,249.36,249.055)"><stop offset="0" style="stop-color:rgb(67,54,119);stop-opacity:1"/><stop offset="1" style="stop-color:rgb(52,47,100);stop-opacity:1"/></radialGradient>
        <radialGradient id="_Radial3" cx="0" cy="0" r="1" gradientUnits="userSpaceOnUse" gradientTransform="matrix(175.484,187.483,-187.483,175.484,249.36,249.055)"><stop offset="0" style="stop-color:rgb(67,54,119);stop-opacity:1"/><stop offset="1" style="stop-color:rgb(52,47,100);stop-opacity:1"/></radialGradient>
        <radialGradient id="_Radial4" cx="0" cy="0" r="1" gradientUnits="userSpaceOnUse" gradientTransform="matrix(175.484,187.483,-187.483,175.484,249.36,249.055)"><stop offset="0" style="stop-color:rgb(67,54,119);stop-opacity:1"/><stop offset="1" style="stop-color:rgb(52,47,100);stop-opacity:1"/></radialGradient>
        <radialGradient id="_Radial5" cx="0" cy="0" r="1" gradientUnits="userSpaceOnUse" gradientTransform="matrix(175.484,187.483,-187.483,175.484,249.36,249.055)"><stop offset="0" style="stop-color:rgb(67,54,119);stop-opacity:1"/><stop offset="1" style="stop-color:rgb(52,47,100);stop-opacity:1"/></radialGradient>
        <linearGradient id="_Linear6" x1="0" y1="0" x2="1" y2="0" gradientUnits="userSpaceOnUse" gradientTransform="matrix(1.57835,112.85,-112.85,1.57835,304.87,93.3695)"><stop offset="0" style="stop-color:rgb(238,48,132);stop-opacity:1"/><stop offset="0.2" style="stop-color:rgb(235,41,138);stop-opacity:1"/><stop offset="1" style="stop-color:rgb(79,60,152);stop-opacity:1"/></linearGradient>
        <linearGradient id="_Linear7" x1="0" y1="0" x2="1" y2="0" gradientUnits="userSpaceOnUse" gradientTransform="matrix(0.394595,56.0304,-56.0304,0.394595,335.11,136.026)"><stop offset="0" style="stop-color:rgb(247,149,92);stop-opacity:1"/><stop offset="0.8" style="stop-color:rgb(240,110,169);stop-opacity:1"/><stop offset="1" style="stop-color:rgb(208,101,167);stop-opacity:1"/></linearGradient>
        <linearGradient id="_Linear8" x1="0" y1="0" x2="1" y2="0" gradientUnits="userSpaceOnUse" gradientTransform="matrix(5.50873e-16,89.9645,-89.9645,5.50873e-16,365.027,88.2725)"><stop offset="0" style="stop-color:rgb(11,176,221);stop-opacity:1"/><stop offset="0.6" style="stop-color:rgb(61,95,171);stop-opacity:1"/><stop offset="1" style="stop-color:rgb(61,69,156);stop-opacity:1"/></linearGradient>
        <linearGradient id="_Linear9" x1="0" y1="0" x2="1" y2="0" gradientUnits="userSpaceOnUse" gradientTransform="matrix(4.32483e-16,70.6298,-70.6298,4.32483e-16,394.795,114.709)"><stop offset="0" style="stop-color:rgb(238,48,132);stop-opacity:1"/><stop offset="0.2" style="stop-color:rgb(235,41,138);stop-opacity:1"/><stop offset="1" style="stop-color:rgb(79,60,152);stop-opacity:1"/></linearGradient>
        <linearGradient id="_Linear10" x1="0" y1="0" x2="1" y2="0" gradientUnits="userSpaceOnUse" gradientTransform="matrix(0.394624,101.802,-101.802,0.394624,424.34,71.7113)"><stop offset="0" style="stop-color:rgb(247,149,92);stop-opacity:1"/><stop offset="0.8" style="stop-color:rgb(240,110,169);stop-opacity:1"/><stop offset="1" style="stop-color:rgb(208,101,167);stop-opacity:1"/></linearGradient>
    </defs>
</svg>
