<?xml version="1.0" encoding="UTF-8" standalone="no"?>
<!DOCTYPE svg PUBLIC "-//W3C//DTD SVG 1.1//EN" "http://www.w3.org/Graphics/SVG/1.1/DTD/svg11.dtd">
<svg width="100%" height="100%" viewBox="0 0 665 500" version="1.1" xmlns="http://www.w3.org/2000/svg" xmlns:xlink="http://www.w3.org/1999/xlink" xml:space="preserve" xmlns:serif="http://www.serif.com/" style="fill-rule:evenodd;clip-rule:evenodd;stroke-linejoin:round;stroke-miterlimit:2;">
    <g>
        <path d="M53.652,295.669C58.735,293.237 63.794,309.419 63.794,309.419C72.434,320.835 84.507,305.647 83.327,322.713C81.261,352.574 117.699,332.103 100.888,363.279C84.077,394.456 115.731,380.908 105.285,406.046C94.838,431.185 108.378,461.167 92.66,448.847C92.66,448.847 78.819,418.495 64.545,409.104C50.272,399.715 73.097,388.573 68.631,375.818C62.144,357.293 46.516,358.021 57.784,338.113C69.053,318.206 36.374,303.932 53.652,295.669Z" style="fill:url(#_Linear1);"/>
        <path d="M97.637,437.424C90.823,432.633 82.85,399.239 82.374,379.351C82.129,369.162 79.118,364.918 76.461,361.173C73.921,357.594 71.728,354.502 73.006,347.403C75.448,333.839 69.028,327.982 68.962,327.925L69.706,327.078C69.991,327.328 76.677,333.367 74.115,347.604C72.921,354.235 74.889,357.01 77.38,360.521C79.995,364.206 83.249,368.791 83.501,379.323C84.01,400.669 92.163,432.197 98.285,436.502L97.637,437.424Z" style="fill:white;fill-rule:nonzero;"/>
        <path d="M133.102,376.126C131.852,376.809 130.804,377.904 129.593,379.173C126.565,382.344 122.797,386.29 113.25,386.335C108.496,386.357 105.833,386.978 104.617,388.344C103.286,389.839 103.577,392.43 103.979,396.015C104.13,397.368 104.302,398.902 104.407,400.57C105.053,410.827 99.175,417.993 98.924,418.293C95.505,422.364 91.633,430.468 93.252,435.097C93.881,436.896 95.32,438.035 97.528,438.481C105.235,440.039 107.363,435.218 110.888,427.229C111.534,425.765 112.203,424.25 112.962,422.646C117.045,414.025 120.855,412.531 126.622,410.269C128.005,409.725 129.574,409.109 131.286,408.34C138.573,405.064 137.258,400.567 135.867,395.807C135.667,395.125 135.469,394.446 135.296,393.774C134.419,390.348 136.149,388.582 138.339,386.348C139.915,384.74 141.7,382.919 143.112,379.968C143.852,378.421 144.461,376.319 143.168,375.093C141.465,373.479 137.137,373.923 133.102,376.126ZM100.187,439.898C99.307,439.898 98.352,439.798 97.305,439.586C94.679,439.056 92.958,437.67 92.188,435.469C90.351,430.216 94.606,421.683 98.061,417.57C98.118,417.501 103.899,410.436 103.283,400.643C103.179,399.001 103.009,397.481 102.859,396.141C102.424,392.265 102.11,389.465 103.775,387.595C105.242,385.945 108.074,385.232 113.244,385.208C122.313,385.165 125.897,381.412 128.779,378.395C130.002,377.113 131.158,375.903 132.562,375.137C137.081,372.67 141.867,372.308 143.943,374.275C144.929,375.209 145.762,377.04 144.128,380.454C142.636,383.573 140.7,385.55 139.144,387.136C137.051,389.271 135.668,390.683 136.389,393.494C136.558,394.155 136.752,394.821 136.948,395.49C138.346,400.271 139.93,405.69 131.748,409.368C130.011,410.148 128.429,410.77 127.033,411.317C121.321,413.559 117.873,414.912 113.981,423.128C113.228,424.719 112.562,426.227 111.919,427.684C108.85,434.639 106.528,439.898 100.187,439.898Z" style="fill:url(#_Linear2);"/>
        <path d="M97.427,446.404L96.302,446.345C96.357,445.288 97.776,420.368 107.783,413.074C118.76,405.073 122.221,396.475 123.869,390.703C125.812,383.902 135.697,382.084 136.117,382.01L136.313,383.119C136.217,383.137 126.701,384.89 124.953,391.012C123.259,396.943 119.705,405.779 108.446,413.985C98.869,420.965 97.44,446.15 97.427,446.404Z" style="fill:url(#_Linear3);"/>
        <path d="M120.304,320.817C113.193,318.379 114.67,332.085 111.665,342.228C108.66,352.369 78.235,346.651 91.006,372.047C103.777,397.443 74.855,380.54 83.494,402.701C92.132,424.863 84.244,448.564 93.635,442.535C103.026,436.507 98.911,408.6 108.677,405.284C118.443,401.968 120.037,398.1 110.367,389.085C100.698,380.07 135.705,371.121 127.065,352.918C118.426,334.715 128.521,323.634 120.304,320.817Z" style="fill:url(#_Linear4);"/>
        <path d="M97.992,441.474C97.098,437.68 89.46,404.293 96.586,400.257C102.869,396.7 102.713,382.865 101.733,369.801C100.866,358.236 115.719,352.831 116.352,352.606L116.729,353.669C116.582,353.721 102.055,359.012 102.857,369.717C103.864,383.133 103.972,397.37 97.142,401.237C91.73,404.302 96.712,431.135 99.089,441.215L97.992,441.474Z" style="fill:white;fill-rule:nonzero;"/>
        <path d="M114.159,429.585L104.005,468.106L81.314,468.106L71.16,429.585L114.159,429.585Z" style="fill:rgb(32,198,215);"/>
        <path d="M114.159,429.585C114.159,429.585 91.806,433.782 91.806,468.106L81.314,468.106L71.16,429.585L114.159,429.585Z" style="fill:rgb(32,137,215);"/>
        <path d="M550.593,282.293L496.514,282.293L496.514,281.327L549.627,281.327L549.627,237.697L550.593,237.697L550.593,282.293Z" style="fill:rgb(120,194,255);fill-rule:nonzero;"/>
        <path d="M516.315,203.015L540.448,203.015L540.448,178.883L516.315,178.883L516.315,203.015ZM541.311,203.877L515.455,203.877L515.455,178.021L541.311,178.021L541.311,203.877Z" style="fill:rgb(106,175,232);fill-rule:nonzero;"/>
        <path d="M547.344,186.64L604.801,186.64L604.801,182.043L547.344,182.043L547.344,186.64ZM605.662,187.501L546.481,187.501L546.481,181.181L605.662,181.181L605.662,187.501Z" style="fill:rgb(106,175,232);fill-rule:nonzero;"/>
        <path d="M516.315,216.033L604.801,216.033L604.801,211.436L516.315,211.436L516.315,216.033ZM605.662,216.895L515.455,216.895L515.455,210.574L605.662,210.574L605.662,216.895Z" style="fill:rgb(106,175,232);fill-rule:nonzero;"/>
        <path d="M516.315,228.171L572.051,228.171L572.051,223.574L516.315,223.574L516.315,228.171ZM572.912,229.032L515.455,229.032L515.455,222.712L572.912,222.712L572.912,229.032Z" style="fill:rgb(106,175,232);fill-rule:nonzero;"/>
        <path d="M547.344,198.696L585.696,198.696L585.696,194.1L547.344,194.1L547.344,198.696ZM586.558,199.558L546.481,199.558L546.481,193.238L586.558,193.238L586.558,199.558Z" style="fill:rgb(106,175,232);fill-rule:nonzero;"/>
        <path d="M506.046,241.916L615.071,241.916L615.071,165.138L506.046,165.138L506.046,241.916ZM615.933,242.777L505.185,242.777L505.185,164.276L615.933,164.276L615.933,242.777Z" style="fill:rgb(106,175,232);fill-rule:nonzero;"/>
        <path d="M550.11,232.22C548.687,232.22 547.529,233.377 547.529,234.801C547.529,236.224 548.687,237.381 550.11,237.381C551.533,237.381 552.69,236.224 552.69,234.801C552.69,233.377 551.533,232.22 550.11,232.22ZM550.11,238.347C548.155,238.347 546.563,236.756 546.563,234.801C546.563,232.845 548.155,231.254 550.11,231.254C552.065,231.254 553.656,232.845 553.656,234.801C553.656,236.756 552.065,238.347 550.11,238.347Z" style="fill:rgb(120,194,255);fill-rule:nonzero;"/>
        <path d="M115.929,214.826L178.204,214.826C176.991,208.746 171.53,204.228 165.275,204.228C163.855,204.228 162.459,204.453 161.122,204.897L160.782,205.01L160.575,204.717C157.12,199.814 151.485,196.887 145.502,196.887C138.491,196.887 132.181,200.78 129.035,207.046L128.862,207.391L128.487,207.298C127.683,207.1 126.852,206.999 126.017,206.999C121.243,206.999 117.091,210.256 115.929,214.826ZM179.344,215.792L114.739,215.792L114.851,215.217C115.889,209.895 120.584,206.033 126.017,206.033C126.801,206.033 127.583,206.114 128.345,206.275C131.711,199.878 138.25,195.921 145.502,195.921C151.681,195.921 157.506,198.887 161.157,203.873C162.489,203.468 163.872,203.263 165.275,203.263C172.306,203.263 178.186,208.298 179.257,215.235L179.344,215.792Z" style="fill:rgb(106,175,232);fill-rule:nonzero;"/>
        <path d="M434.09,424.91L233.579,424.91L219.238,478.508L448.431,478.508L434.09,424.91Z" style="fill:rgb(32,198,215);"/>
        <path d="M235.158,439.145L248.278,439.145C248.826,439.145 249.239,439.57 249.137,440.03L247.867,445.737C247.788,446.09 247.427,446.345 247.007,446.345L233.663,446.345C233.103,446.345 232.687,445.902 232.81,445.436L234.304,439.729C234.394,439.387 234.749,439.145 235.158,439.145Z" style="fill:white;fill-rule:nonzero;"/>
        <path d="M254.293,439.145L264.212,439.145L262.892,446.345L252.785,446.345L254.293,439.145Z" style="fill:white;fill-rule:nonzero;"/>
        <path d="M269.171,439.145L279.089,439.145L278.051,446.345L267.943,446.354L269.171,439.145Z" style="fill:white;fill-rule:nonzero;"/>
        <path d="M284.048,439.145L293.966,439.145L293.212,446.345L283.105,446.345L284.048,439.145Z" style="fill:white;fill-rule:nonzero;"/>
        <path d="M298.925,439.145L308.844,439.145L308.372,446.345L298.265,446.345L298.925,439.145Z" style="fill:white;fill-rule:nonzero;"/>
        <path d="M313.802,439.145L323.721,439.145L323.532,446.345L313.425,446.354L313.802,439.145Z" style="fill:white;fill-rule:nonzero;"/>
        <path d="M432.854,439.145L417.977,439.145L419.579,446.345L434.739,446.345L432.854,439.145Z" style="fill:white;fill-rule:nonzero;"/>
        <path d="M413.018,439.145L403.099,439.145L404.419,446.345L414.526,446.345L413.018,439.145Z" style="fill:white;fill-rule:nonzero;"/>
        <path d="M398.14,439.145L388.223,439.145L389.26,446.345L399.367,446.354L398.14,439.145Z" style="fill:white;fill-rule:nonzero;"/>
        <path d="M383.264,439.145L373.345,439.145L374.099,446.345L384.206,446.345L383.264,439.145Z" style="fill:white;fill-rule:nonzero;"/>
        <path d="M368.386,439.145L358.468,439.145L358.939,446.345L369.045,446.345L368.386,439.145Z" style="fill:white;fill-rule:nonzero;"/>
        <path d="M353.508,439.145L343.59,439.145L343.778,446.345L353.886,446.354L353.508,439.145Z" style="fill:white;fill-rule:nonzero;"/>
        <path d="M328.68,439.145L338.598,439.145L338.763,446.345L328.68,446.345L328.68,439.145Z" style="fill:white;fill-rule:nonzero;"/>
        <path d="M230.794,451.709L251.519,451.709L250.339,459.136L229.221,459.136L230.794,451.709Z" style="fill:white;fill-rule:nonzero;"/>
        <path d="M436.09,451.709L410.472,451.709L411.931,459.136L438.035,459.136L436.09,451.709Z" style="fill:white;fill-rule:nonzero;"/>
        <path d="M405.348,451.709L395.101,451.709L396.268,459.136L406.71,459.136L405.348,451.709Z" style="fill:white;fill-rule:nonzero;"/>
        <path d="M389.978,451.709L379.729,451.709L380.605,459.136L391.047,459.136L389.978,451.709Z" style="fill:white;fill-rule:nonzero;"/>
        <path d="M374.606,451.709L364.358,451.709L364.942,459.136L375.384,459.136L374.606,451.709Z" style="fill:white;fill-rule:nonzero;"/>
        <path d="M359.235,451.709L348.988,451.709L349.28,459.136L359.722,459.136L359.235,451.709Z" style="fill:white;fill-rule:nonzero;"/>
        <path d="M227.698,464.947L248.886,464.947L247.34,472.324L225.766,472.324L227.698,464.947Z" style="fill:white;fill-rule:nonzero;"/>
        <path d="M254.183,464.947L264.777,464.947L263.521,472.324L252.734,472.324L254.183,464.947Z" style="fill:white;fill-rule:nonzero;"/>
        <path d="M270.075,464.947L349.523,464.947L349.819,472.324L268.915,472.324L270.075,464.947Z" style="fill:white;fill-rule:nonzero;"/>
        <path d="M354.827,464.947L365.421,464.947L366.001,472.324L355.214,472.324L354.827,464.947Z" style="fill:white;fill-rule:nonzero;"/>
        <path d="M370.718,464.947L381.312,464.947L382.182,472.324L371.394,472.324L370.718,464.947Z" style="fill:white;fill-rule:nonzero;"/>
        <path d="M386.609,464.947L397.203,464.947L398.362,472.324L387.576,472.324L386.609,464.947Z" style="fill:white;fill-rule:nonzero;"/>
        <path d="M402.5,464.947L413.094,464.947L414.544,472.324L403.756,472.324L402.5,464.947Z" style="fill:white;fill-rule:nonzero;"/>
        <path d="M418.392,464.947L439.579,464.947L441.512,472.324L419.937,472.324L418.392,464.947Z" style="fill:white;fill-rule:nonzero;"/>
        <path d="M343.886,451.709L333.722,451.709L333.722,459.136L344.081,459.136L343.886,451.709Z" style="fill:white;fill-rule:nonzero;"/>
        <path d="M328.515,451.709L318.268,451.709L317.976,459.136L328.417,459.136L328.515,451.709Z" style="fill:white;fill-rule:nonzero;"/>
        <path d="M313.144,451.709L302.897,451.709L302.313,459.136L312.755,459.136L313.144,451.709Z" style="fill:white;fill-rule:nonzero;"/>
        <path d="M297.773,451.709L287.526,451.709L286.65,459.136L297.092,459.136L297.773,451.709Z" style="fill:white;fill-rule:nonzero;"/>
        <path d="M282.402,451.709L272.155,451.709L270.988,459.136L281.43,459.136L282.402,451.709Z" style="fill:white;fill-rule:nonzero;"/>
        <path d="M267.032,451.709L256.784,451.709L255.325,459.136L265.767,459.136L267.032,451.709Z" style="fill:white;fill-rule:nonzero;"/>
        <path d="M235.642,434.62L237.326,428.192L242.142,428.192L240.57,434.62L235.642,434.62Z" style="fill:white;fill-rule:nonzero;"/>
        <path d="M246.958,428.192L256.588,428.192L255.242,434.62L245.442,434.62L246.958,428.192Z" style="fill:white;fill-rule:nonzero;"/>
        <path d="M261.403,428.192L271.036,428.192L269.941,434.62L260.14,434.62L261.403,428.192Z" style="fill:white;fill-rule:nonzero;"/>
        <path d="M275.851,428.192L285.482,428.192L284.641,434.62L274.841,434.62L275.851,428.192Z" style="fill:white;fill-rule:nonzero;"/>
        <path d="M290.298,428.192L299.93,428.192L299.34,434.62L289.54,434.62L290.298,428.192Z" style="fill:white;fill-rule:nonzero;"/>
        <path d="M304.745,428.192L314.376,428.192L314.039,434.62L304.24,434.62L304.745,428.192Z" style="fill:white;fill-rule:nonzero;"/>
        <path d="M319.191,428.192L328.823,428.192L328.739,434.62L318.939,434.62L319.191,428.192Z" style="fill:white;fill-rule:nonzero;"/>
        <path d="M333.639,428.192L343.27,428.192L343.438,434.62L333.639,434.62L333.639,428.192Z" style="fill:white;fill-rule:nonzero;"/>
        <path d="M348.085,428.192L357.718,428.192L358.138,434.62L348.339,434.62L348.085,428.192Z" style="fill:white;fill-rule:nonzero;"/>
        <path d="M362.532,428.192L372.164,428.192L372.838,434.62L363.038,434.62L362.532,428.192Z" style="fill:white;fill-rule:nonzero;"/>
        <path d="M376.979,428.192L386.61,428.192L387.536,434.62L377.738,434.62L376.979,428.192Z" style="fill:white;fill-rule:nonzero;"/>
        <path d="M391.427,428.192L401.058,428.192L402.236,434.62L392.437,434.62L391.427,428.192Z" style="fill:white;fill-rule:nonzero;"/>
        <path d="M405.873,428.192L415.505,428.192L416.936,434.62L407.137,434.62L405.873,428.192Z" style="fill:white;fill-rule:nonzero;"/>
        <path d="M420.32,428.192L429.951,428.192L431.636,434.62L421.835,434.62L420.32,428.192Z" style="fill:white;fill-rule:nonzero;"/>
        <rect x="219.238" y="478.508" width="229.193" height="3.163" style="fill:rgb(32,124,215);"/>
        <rect x="318.749" y="311.393" width="31.543" height="95.805" style="fill:rgb(81,138,250);fill-rule:nonzero;"/>
        <path d="M207.922,357.543L461.119,357.543C466.413,357.543 470.706,353.251 470.706,347.956L470.706,174.987C470.706,169.692 466.413,165.4 461.119,165.4L207.922,165.4C202.627,165.4 198.335,169.692 198.335,174.987L198.335,347.956C198.335,353.251 202.627,357.543 207.922,357.543Z" style="fill:rgb(32,198,215);"/>
        <rect x="207.963" y="174.811" width="252.632" height="147.807" style="fill:url(#_Linear5);"/>
        <path d="M325.735,341.21C325.735,346.063 329.668,349.997 334.521,349.997C339.373,349.997 343.307,346.063 343.307,341.21C343.307,336.358 339.373,332.425 334.521,332.425C329.668,332.425 325.735,336.358 325.735,341.21Z" style="fill:rgb(105,105,105);fill-rule:nonzero;"/>
        <rect x="263.567" y="403.582" width="141.906" height="7.232" style="fill:rgb(32,198,215);"/>
        <path d="M398.853,67.049C398.563,70.12 397.598,89.58 417.977,100.125C438.355,89.58 437.39,70.12 437.101,67.049C424.443,66.971 419.294,63.445 417.977,62.327C416.66,63.445 411.51,66.971 398.853,67.049ZM417.977,101.211L417.757,101.098C394.831,89.394 397.91,66.725 397.943,66.498L398.005,66.085L398.421,66.085C412.997,66.085 417.578,61.387 417.623,61.34L417.979,60.962L418.331,61.341C418.374,61.387 422.956,66.085 437.531,66.085L437.948,66.085L438.01,66.498C438.044,66.725 441.122,89.394 418.195,101.098L417.977,101.211Z" style="fill:rgb(106,175,232);fill-rule:nonzero;"/>
        <rect x="222.483" y="186.128" width="28.294" height="2.897" style="fill:rgb(224,224,224);fill-rule:nonzero;"/>
        <rect x="258.696" y="207.943" width="20.429" height="2.897" style="fill:rgb(224,224,224);fill-rule:nonzero;"/>
        <rect x="282.307" y="207.943" width="13.556" height="2.897" style="fill:rgb(20,135,227);fill-rule:nonzero;"/>
        <rect x="310.003" y="295.523" width="13.556" height="2.898" style="fill:rgb(20,135,227);fill-rule:nonzero;"/>
        <rect x="222.804" y="262.802" width="13.556" height="2.896" style="fill:rgb(20,135,227);fill-rule:nonzero;"/>
        <rect x="298.542" y="207.943" width="32.73" height="2.897" style="fill:rgb(224,224,224);fill-rule:nonzero;"/>
        <rect x="222.804" y="251.814" width="21.032" height="2.896" style="fill:rgb(224,224,224);fill-rule:nonzero;"/>
        <rect x="279.317" y="273.709" width="21.032" height="2.897" style="fill:rgb(224,224,224);fill-rule:nonzero;"/>
        <rect x="357.877" y="295.523" width="21.032" height="2.898" style="fill:rgb(224,224,224);fill-rule:nonzero;"/>
        <rect x="252.122" y="273.709" width="12.839" height="2.897" style="fill:rgb(224,224,224);fill-rule:nonzero;"/>
        <rect x="222.804" y="273.709" width="25.438" height="2.897" style="fill:rgb(20,135,227);fill-rule:nonzero;"/>
        <rect x="222.804" y="284.616" width="14.03" height="2.898" style="fill:rgb(224,224,224);fill-rule:nonzero;"/>
        <rect x="256.282" y="186.128" width="20.086" height="2.897" style="fill:rgb(120,194,255);fill-rule:nonzero;"/>
        <rect x="256.282" y="218.85" width="20.086" height="2.898" style="fill:rgb(20,135,227);fill-rule:nonzero;"/>
        <rect x="246.239" y="229.758" width="8.582" height="2.897" style="fill:rgb(224,224,224);fill-rule:nonzero;"/>
        <rect x="237.657" y="240.826" width="19.276" height="2.897" style="fill:rgb(120,194,255);fill-rule:nonzero;"/>
        <rect x="259.846" y="240.826" width="26.613" height="2.897" style="fill:rgb(20,135,227);fill-rule:nonzero;"/>
        <rect x="344.123" y="284.616" width="26.611" height="2.898" style="fill:rgb(20,135,227);fill-rule:nonzero;"/>
        <rect x="222.804" y="229.838" width="20.086" height="2.897" style="fill:rgb(20,135,227);fill-rule:nonzero;"/>
        <rect x="222.804" y="240.826" width="11.918" height="2.897" style="fill:rgb(20,135,227);fill-rule:nonzero;"/>
        <rect x="258.867" y="229.838" width="11.244" height="2.897" style="fill:rgb(255,135,97);fill-rule:nonzero;"/>
        <rect x="223.141" y="295.523" width="11.244" height="2.898" style="fill:rgb(255,135,97);fill-rule:nonzero;"/>
        <rect x="222.724" y="207.943" width="20.086" height="2.897" style="fill:rgb(120,194,255);fill-rule:nonzero;"/>
        <rect x="240.487" y="262.802" width="20.086" height="2.896" style="fill:rgb(120,194,255);fill-rule:nonzero;"/>
        <rect x="240.734" y="284.616" width="20.086" height="2.898" style="fill:rgb(120,194,255);fill-rule:nonzero;"/>
        <rect x="276.416" y="284.616" width="20.086" height="2.898" style="fill:rgb(120,194,255);fill-rule:nonzero;"/>
        <rect x="222.724" y="218.85" width="28.632" height="2.898" style="fill:rgb(120,194,255);fill-rule:nonzero;"/>
        <rect x="356.897" y="186.128" width="20.086" height="2.897" style="fill:rgb(120,194,255);fill-rule:nonzero;"/>
        <rect x="285.343" y="295.523" width="20.087" height="2.898" style="fill:rgb(120,194,255);fill-rule:nonzero;"/>
        <rect x="383.232" y="186.128" width="13.446" height="2.897" style="fill:rgb(120,194,255);fill-rule:nonzero;"/>
        <rect x="428.723" y="197.036" width="13.445" height="2.896" style="fill:rgb(120,194,255);fill-rule:nonzero;"/>
        <rect x="281.775" y="186.128" width="25.591" height="2.897" style="fill:rgb(20,135,227);fill-rule:nonzero;"/>
        <rect x="383.232" y="295.523" width="25.591" height="2.898" style="fill:rgb(20,135,227);fill-rule:nonzero;"/>
        <rect x="238.63" y="295.523" width="25.59" height="2.898" style="fill:rgb(20,135,227);fill-rule:nonzero;"/>
        <rect x="381.484" y="197.036" width="25.59" height="2.896" style="fill:rgb(20,135,227);fill-rule:nonzero;"/>
        <rect x="350.099" y="207.943" width="25.59" height="2.897" style="fill:rgb(20,135,227);fill-rule:nonzero;"/>
        <rect x="327.862" y="295.523" width="25.59" height="2.898" style="fill:rgb(20,135,227);fill-rule:nonzero;"/>
        <rect x="323.924" y="273.709" width="25.591" height="2.897" style="fill:rgb(20,135,227);fill-rule:nonzero;"/>
        <rect x="268.98" y="273.709" width="5.517" height="2.897" style="fill:rgb(255,135,97);fill-rule:nonzero;"/>
        <path d="M409.689,218.865L382.64,216.204L382.923,213.32L409.973,215.981L409.689,218.865Z" style="fill:rgb(120,194,255);fill-rule:nonzero;"/>
        <rect x="326.293" y="186.128" width="25.59" height="2.897" style="fill:rgb(255,135,97);fill-rule:nonzero;"/>
        <path d="M330.077,232.25L290.442,214.577L291.626,211.933L331.26,229.605L330.077,232.25Z" style="fill:rgb(20,135,227);fill-rule:nonzero;"/>
        <rect x="285.343" y="262.963" width="15.006" height="2.896" style="fill:rgb(255,135,97);fill-rule:nonzero;"/>
        <rect x="312.098" y="186.128" width="9.366" height="2.897" style="fill:rgb(224,224,224);fill-rule:nonzero;"/>
        <rect x="281.775" y="218.85" width="9.368" height="2.898" style="fill:rgb(224,224,224);fill-rule:nonzero;"/>
        <rect x="413.246" y="197.036" width="9.367" height="2.896" style="fill:rgb(224,224,224);fill-rule:nonzero;"/>
        <rect x="222.483" y="197.036" width="14.654" height="2.896" style="fill:rgb(20,135,227);fill-rule:nonzero;"/>
        <rect x="261.583" y="251.895" width="11.57" height="2.896" style="fill:rgb(20,135,227);fill-rule:nonzero;"/>
        <rect x="240.734" y="197.036" width="4.732" height="2.896" style="fill:rgb(20,135,227);fill-rule:nonzero;"/>
        <rect x="337.873" y="197.036" width="39.11" height="2.896" style="fill:rgb(224,224,224);fill-rule:nonzero;"/>
        <rect x="300.349" y="284.616" width="39.109" height="2.898" style="fill:rgb(224,224,224);fill-rule:nonzero;"/>
        <rect x="248.942" y="197.036" width="4.829" height="2.896" style="fill:rgb(255,135,97);fill-rule:nonzero;"/>
        <rect x="321.464" y="197.036" width="12.797" height="2.896" style="fill:rgb(20,135,227);fill-rule:nonzero;"/>
        <rect x="334.261" y="207.943" width="12.795" height="2.897" style="fill:rgb(255,135,97);fill-rule:nonzero;"/>
        <rect x="305.7" y="273.709" width="12.795" height="2.897" style="fill:rgb(255,135,97);fill-rule:nonzero;"/>
        <rect x="268.465" y="295.523" width="12.796" height="2.898" style="fill:rgb(255,135,97);fill-rule:nonzero;"/>
        <rect x="290.853" y="197.036" width="27.224" height="2.896" style="fill:rgb(20,135,227);fill-rule:nonzero;"/>
        <rect x="354.198" y="273.709" width="27.225" height="2.897" style="fill:rgb(20,135,227);fill-rule:nonzero;"/>
        <rect x="265.512" y="262.963" width="15.905" height="2.896" style="fill:rgb(20,135,227);fill-rule:nonzero;"/>
        <rect x="264.489" y="284.616" width="7.953" height="2.898" style="fill:rgb(20,135,227);fill-rule:nonzero;"/>
        <rect x="277.623" y="197.036" width="9.367" height="2.896" style="fill:rgb(120,194,255);fill-rule:nonzero;"/>
        <rect x="374.226" y="284.616" width="9.366" height="2.898" style="fill:rgb(255,135,97);fill-rule:nonzero;"/>
        <rect x="246.094" y="207.943" width="9.366" height="2.897" style="fill:rgb(255,135,97);fill-rule:nonzero;"/>
        <rect x="247.961" y="251.895" width="9.367" height="2.896" style="fill:rgb(255,135,97);fill-rule:nonzero;"/>
        <rect x="257.73" y="197.036" width="16.32" height="2.896" style="fill:rgb(20,135,227);fill-rule:nonzero;"/>
        <path d="M222.483,263.594L151.397,263.594L151.397,211.363L152.363,211.363L152.363,262.629L222.483,262.629L222.483,263.594Z" style="fill:rgb(120,194,255);fill-rule:nonzero;"/>
        <path d="M366.484,209.391L365.519,209.391L365.519,140.261L417.494,140.261L417.494,94.967L418.46,94.967L418.46,141.227L366.484,141.227L366.484,209.391Z" style="fill:rgb(120,194,255);fill-rule:nonzero;"/>
        <path d="M218.897,306.826C218.894,306.824 218.89,306.823 218.885,306.824C218.937,306.848 218.944,306.85 218.897,306.826Z" style="fill:rgb(50,54,87);fill-rule:nonzero;"/>
        <path d="M449.933,113.168L441.646,113.168L441.646,112.203L448.968,112.203L448.968,104.889L449.933,104.889L449.933,113.168Z" style="fill:rgb(106,175,232);fill-rule:nonzero;"/>
        <path d="M394.213,113.168L385.927,113.168L385.927,104.889L386.892,104.889L386.892,112.203L394.213,112.203L394.213,113.168Z" style="fill:rgb(106,175,232);fill-rule:nonzero;"/>
        <path d="M386.896,57.452L385.93,57.452L385.93,49.165L394.21,49.165L394.21,50.131L386.896,50.131L386.896,57.452Z" style="fill:rgb(106,175,232);fill-rule:nonzero;"/>
        <path d="M449.933,57.449L448.968,57.449L448.968,50.135L441.646,50.135L441.646,49.169L449.933,49.169L449.933,57.449Z" style="fill:rgb(106,175,232);fill-rule:nonzero;"/>
        <rect x="448.968" y="69.822" width="0.965" height="22.694" style="fill:rgb(106,175,232);fill-rule:nonzero;"/>
        <rect x="385.927" y="69.822" width="0.965" height="22.694" style="fill:rgb(106,175,232);fill-rule:nonzero;"/>
        <path d="M151.88,205.719C150.457,205.719 149.299,206.876 149.299,208.299C149.299,209.723 150.457,210.88 151.88,210.88C153.303,210.88 154.46,209.723 154.46,208.299C154.46,206.876 153.303,205.719 151.88,205.719ZM151.88,211.846C149.924,211.846 148.333,210.255 148.333,208.299C148.333,206.344 149.924,204.752 151.88,204.752C153.835,204.752 155.426,206.344 155.426,208.299C155.426,210.255 153.835,211.846 151.88,211.846Z" style="fill:rgb(120,194,255);fill-rule:nonzero;"/>
        <path d="M417.977,89.323C416.553,89.323 415.396,90.48 415.396,91.904C415.396,93.327 416.553,94.484 417.977,94.484C419.399,94.484 420.557,93.327 420.557,91.904C420.557,90.48 419.399,89.323 417.977,89.323ZM417.977,95.45C416.021,95.45 414.43,93.859 414.43,91.904C414.43,89.948 416.021,88.357 417.977,88.357C419.932,88.357 421.522,89.948 421.522,91.904C421.522,93.859 419.932,95.45 417.977,95.45Z" style="fill:rgb(120,194,255);fill-rule:nonzero;"/>
        <path d="M153.394,77.339L175.808,77.339L175.808,54.925L153.394,54.925L153.394,77.339ZM176.773,78.305L152.428,78.305L152.428,53.959L176.773,53.959L176.773,78.305Z" style="fill:rgb(161,212,255);fill-rule:nonzero;"/>
        <rect x="164.118" y="60.595" width="0.965" height="11.347" style="fill:rgb(161,212,255);fill-rule:nonzero;"/>
        <rect x="158.927" y="65.786" width="11.347" height="0.965" style="fill:rgb(161,212,255);fill-rule:nonzero;"/>
        <path d="M513.931,106.705L546.797,106.705L546.797,83.795L513.931,83.795L513.931,106.705ZM547.763,107.671L512.965,107.671L512.965,82.83L547.763,82.83L547.763,107.671Z" style="fill:rgb(161,212,255);fill-rule:nonzero;"/>
        <path d="M530.363,97.876L513.14,83.686L513.754,82.94L530.363,96.625L546.973,82.94L547.586,83.686L530.363,97.876Z" style="fill:rgb(161,212,255);fill-rule:nonzero;"/>
        <path d="M546.93,107.521L534.439,94.353L535.141,93.688L547.631,106.856L546.93,107.521Z" style="fill:rgb(161,212,255);fill-rule:nonzero;"/>
        <path d="M513.797,107.521L513.097,106.856L525.586,93.688L526.286,94.353L513.797,107.521Z" style="fill:rgb(161,212,255);fill-rule:nonzero;"/>
        <path d="M122.468,272.579C121.799,272.579 121.141,272.892 120.724,273.477C120.393,273.941 120.263,274.508 120.358,275.07C120.453,275.633 120.761,276.126 121.226,276.457L121.227,276.457C121.691,276.787 122.259,276.918 122.82,276.823C123.383,276.728 123.876,276.42 124.206,275.955C124.89,274.994 124.665,273.658 123.704,272.975C123.33,272.707 122.897,272.579 122.468,272.579ZM122.459,277.578C121.87,277.578 121.296,277.395 120.806,277.047L120.807,277.047C119.521,276.133 119.219,274.342 120.134,273.057C121.049,271.771 122.839,271.47 124.124,272.385C125.41,273.299 125.711,275.09 124.797,276.375C124.354,276.997 123.694,277.41 122.941,277.537C122.78,277.564 122.619,277.578 122.459,277.578ZM120.668,278.781L120.88,278.862C121.265,279.01 121.668,279.103 122.081,279.138L122.307,279.158L122.617,279.969L124.042,279.728L124.07,278.86L124.278,278.768C124.656,278.6 125.007,278.379 125.321,278.114L125.495,277.969L126.287,278.323L127.125,277.145L126.531,276.512L126.612,276.3C126.759,275.916 126.852,275.512 126.887,275.101L126.907,274.874L127.718,274.563L127.478,273.139L126.609,273.111L126.518,272.904C126.349,272.526 126.129,272.174 125.865,271.86L125.719,271.687L126.072,270.894L124.894,270.057L124.262,270.65L124.05,270.568C123.665,270.422 123.262,270.329 122.85,270.294L122.624,270.273L122.313,269.463L120.888,269.703L120.86,270.57L120.653,270.664C120.275,270.832 119.924,271.052 119.61,271.316L119.436,271.463L118.643,271.109L117.805,272.287L118.399,272.92L118.318,273.131C118.171,273.516 118.078,273.919 118.043,274.331L118.024,274.557L117.212,274.868L117.453,276.294L118.32,276.32L118.413,276.527C118.582,276.906 118.801,277.258 119.066,277.571L119.212,277.744L118.858,278.537L120.036,279.375L120.668,278.781ZM122.153,280.781L121.791,279.835C121.466,279.792 121.147,279.719 120.838,279.616L120.099,280.31L117.956,278.784L118.368,277.858C118.17,277.601 117.997,277.323 117.85,277.03L116.837,276.998L116.399,274.402L117.346,274.041C117.388,273.717 117.461,273.397 117.564,273.089L116.872,272.35L118.397,270.206L119.322,270.619C119.581,270.42 119.857,270.247 120.15,270.101L120.183,269.088L122.778,268.65L123.14,269.597C123.464,269.64 123.783,269.712 124.093,269.814L124.831,269.122L126.975,270.647L126.563,271.572C126.76,271.831 126.935,272.108 127.081,272.401L128.093,272.433L128.531,275.027L127.584,275.391C127.542,275.715 127.469,276.033 127.366,276.343L128.059,277.081L126.534,279.226L125.608,278.813C125.35,279.012 125.073,279.185 124.78,279.331L124.748,280.344L122.153,280.781Z" style="fill:rgb(161,212,255);fill-rule:nonzero;"/>
        <path d="M102.554,264.929C102.259,264.929 101.962,264.953 101.666,265.003C100.274,265.237 99.057,266 98.239,267.149C97.421,268.299 97.1,269.698 97.334,271.09C97.568,272.48 98.331,273.698 99.48,274.516C101.854,276.204 105.158,275.647 106.847,273.274C107.665,272.125 107.986,270.727 107.752,269.335C107.518,267.943 106.755,266.727 105.606,265.908C104.702,265.265 103.642,264.929 102.554,264.929ZM102.535,276.458C101.282,276.458 100.017,276.083 98.92,275.302C97.561,274.335 96.659,272.896 96.381,271.25C96.104,269.604 96.484,267.949 97.452,266.59C99.45,263.783 103.359,263.123 106.166,265.122C108.973,267.119 109.631,271.027 107.634,273.835C106.417,275.545 104.49,276.458 102.535,276.458ZM98.48,280L98.762,280.107C99.678,280.459 100.642,280.68 101.625,280.764L101.928,280.79L102.668,282.725L106.525,282.074L106.591,280.004L106.868,279.881C107.769,279.479 108.607,278.955 109.358,278.323L109.589,278.128L111.479,278.973L113.747,275.784L112.331,274.275L112.439,273.993C112.79,273.077 113.011,272.113 113.095,271.129L113.121,270.828L115.056,270.088L114.406,266.23L112.335,266.165L112.212,265.888C111.811,264.986 111.286,264.148 110.654,263.397L110.459,263.166L111.303,261.276L108.115,259.008L106.606,260.425L106.324,260.317C105.408,259.965 104.444,259.744 103.46,259.66L103.159,259.634L102.418,257.699L98.561,258.35L98.495,260.421L98.219,260.543C97.317,260.945 96.479,261.469 95.728,262.102L95.497,262.296L93.606,261.452L91.338,264.64L92.755,266.148L92.647,266.432C92.295,267.348 92.075,268.312 91.991,269.295L91.964,269.596L90.03,270.336L90.68,274.193L92.751,274.26L92.874,274.536C93.276,275.438 93.8,276.276 94.432,277.027L94.627,277.258L93.783,279.147L96.97,281.416L98.48,280ZM102.049,283.809L101.24,281.696C100.373,281.599 99.522,281.404 98.702,281.114L97.055,282.661L92.579,279.477L93.501,277.412C92.959,276.733 92.496,275.993 92.12,275.206L89.859,275.135L88.946,269.717L91.059,268.909C91.156,268.042 91.351,267.191 91.64,266.372L90.093,264.724L93.278,260.248L95.342,261.171C96.021,260.628 96.761,260.166 97.549,259.789L97.621,257.529L103.038,256.615L103.846,258.728C104.713,258.826 105.564,259.02 106.383,259.31L108.031,257.763L112.507,260.947L111.586,263.012C112.127,263.69 112.59,264.432 112.967,265.218L115.227,265.29L116.14,270.707L114.027,271.515C113.93,272.383 113.735,273.232 113.446,274.053L114.993,275.7L111.808,280.176L109.744,279.254C109.065,279.796 108.324,280.259 107.538,280.636L107.465,282.896L102.049,283.809Z" style="fill:rgb(161,212,255);fill-rule:nonzero;"/>
        <path d="M308.688,122.7C300.135,122.7 293.176,115.741 293.176,107.188C293.176,98.636 300.135,91.677 308.688,91.677C317.241,91.677 324.2,98.636 324.2,107.188L323.234,107.188C323.234,99.168 316.708,92.643 308.688,92.643C300.667,92.643 294.141,99.168 294.141,107.188C294.141,115.209 300.667,121.734 308.688,121.734L308.688,122.7ZM308.688,125.205C298.753,125.205 290.67,117.123 290.67,107.188L291.636,107.188C291.636,116.59 299.286,124.239 308.688,124.239C318.089,124.239 325.738,116.59 325.738,107.188C325.738,97.787 318.089,90.138 308.688,90.138L308.688,89.172C318.622,89.172 326.705,97.254 326.705,107.188C326.705,117.123 318.622,125.205 308.688,125.205Z" style="fill:rgb(120,194,255);fill-rule:nonzero;"/>
        <path d="M306.48,113.157L299.982,106.659L300.665,105.976L306.48,111.791L316.71,101.562L317.393,102.244L306.48,113.157Z" style="fill:rgb(120,194,255);fill-rule:nonzero;"/>
        <path d="M457.615,357.175C457.615,357.175 458.495,360.631 458.615,361.151C458.735,361.672 464.154,360.239 464.154,360.239L464.149,356.012C464.149,356.012 458.252,356.605 457.615,357.175Z" style="fill:rgb(92,84,77);fill-rule:nonzero;"/>
        <path d="M458.508,360.711C458.508,360.711 456.991,363.015 455.402,364.119C453.814,365.223 447.684,366.651 446.788,367.714C446.142,368.48 445.243,371.383 455.081,370.058C462.069,369.116 465.519,369.354 466.146,368.136C466.774,366.918 464.153,359.861 464.153,359.861C464.153,359.861 462.658,360.675 458.508,360.711Z" style="fill:rgb(60,65,69);fill-rule:nonzero;"/>
        <path d="M456.467,455.536L436.832,255.469L439.307,255.229L458.942,455.297L456.467,455.536Z" style="fill:rgb(32,162,215);fill-rule:nonzero;"/>
        <path d="M496.498,451.652L476.863,251.585L479.339,251.344L498.973,451.411L496.498,451.652Z" style="fill:rgb(32,162,215);fill-rule:nonzero;"/>
        <path d="M438.643,261.193L438.402,258.719L478.433,254.834L478.674,257.309L438.643,261.193Z" style="fill:rgb(32,162,215);fill-rule:nonzero;"/>
        <path d="M440.448,279.809L440.209,277.332L480.239,273.448L480.479,275.923L440.448,279.809Z" style="fill:rgb(32,162,215);fill-rule:nonzero;"/>
        <path d="M442.255,298.422L442.015,295.947L482.046,292.062L482.285,294.537L442.255,298.422Z" style="fill:rgb(32,162,215);fill-rule:nonzero;"/>
        <path d="M444.062,317.036L443.822,314.562L483.853,310.677L484.093,313.151L444.062,317.036Z" style="fill:rgb(32,162,215);fill-rule:nonzero;"/>
        <path d="M445.869,335.651L445.628,333.176L485.659,329.291L485.898,331.766L445.869,335.651Z" style="fill:rgb(32,162,215);fill-rule:nonzero;"/>
        <path d="M447.675,354.265L447.435,351.79L487.465,347.905L487.705,350.381L447.675,354.265Z" style="fill:rgb(32,162,215);fill-rule:nonzero;"/>
        <path d="M449.481,372.88L449.241,370.405L489.271,366.52L489.512,368.994L449.481,372.88Z" style="fill:rgb(32,162,215);fill-rule:nonzero;"/>
        <path d="M451.288,391.494L451.048,389.019L491.078,385.135L491.318,387.609L451.288,391.494Z" style="fill:rgb(32,162,215);fill-rule:nonzero;"/>
        <path d="M453.094,410.107L452.854,407.633L492.885,403.748L493.124,406.223L453.094,410.107Z" style="fill:rgb(32,162,215);fill-rule:nonzero;"/>
        <path d="M454.901,428.723L454.66,426.248L494.69,422.363L494.932,424.838L454.901,428.723Z" style="fill:rgb(32,162,215);fill-rule:nonzero;"/>
        <path d="M456.707,447.337L456.467,444.861L496.498,440.978L496.738,443.452L456.707,447.337Z" style="fill:rgb(32,162,215);fill-rule:nonzero;"/>
        <path d="M450.932,284.41C450.932,284.41 446.988,299.053 445.948,304.287C445.043,308.848 443.221,320.993 442.962,323.881C442.703,326.769 454.602,354.721 455.84,359.77L466.681,358.029C466.681,358.029 455.243,328.937 458.227,322.473C462.664,312.857 463.242,313.147 466.737,305.228C470.232,297.307 478.236,297.119 480.385,282.424C480.385,282.424 453.841,279.75 450.932,284.41Z" style="fill:rgb(60,65,69);fill-rule:nonzero;"/>
        <path d="M470.208,213.268C470.208,213.268 463.01,210.58 459.69,216.059C456.372,221.539 456.691,232.509 460.32,233.857C463.948,235.207 469.399,234.501 471.257,231.072C473.115,227.644 474.791,222.687 474.711,219.374C474.63,216.062 472.099,214.225 470.208,213.268Z" style="fill:rgb(238,168,134);fill-rule:nonzero;"/>
        <path d="M461.528,233.521C461.528,233.521 461.819,235.408 461.339,236.337C460.857,237.267 470.393,237.292 470.393,237.292C470.393,237.292 471.167,232.235 472.635,227.964C474.102,223.692 461.528,233.521 461.528,233.521Z" style="fill:rgb(238,168,134);fill-rule:nonzero;"/>
        <path d="M472.635,227.964C472.635,227.964 471.977,229.049 469.29,228.628C466.604,228.207 463.326,224.633 462.205,224.241C461.084,223.848 461.073,223.189 461.073,223.189L460.37,224.215L459.18,224.29C459.18,224.29 460.266,221.093 458.627,219.79C456.987,218.486 460.328,209.442 468.943,212.453C468.943,212.453 475.56,214.277 475.319,218.04C475.078,221.803 474.115,226.089 472.635,227.964Z" style="fill:rgb(58,63,71);fill-rule:nonzero;"/>
        <path d="M461.251,221.821C461.401,221.189 463.007,219.386 463.621,221.317C464.236,223.248 462.692,225.846 461.832,225.624C460.972,225.401 460.869,223.421 461.251,221.821Z" style="fill:rgb(238,168,134);fill-rule:nonzero;"/>
        <path d="M488.706,261.044C488.627,261.988 487.549,263.01 486.814,263.515C486.343,263.838 485.778,264.033 485.173,264.054L484.745,264.068L484.744,264.068L477.264,264.323C477.264,264.323 471.703,246.35 482.135,239.495C482.457,239.527 489.431,252.381 488.706,261.044Z" style="fill:rgb(81,138,250);fill-rule:nonzero;"/>
        <path d="M466.146,368.136C465.518,369.354 462.069,369.117 455.08,370.057C453.17,370.314 451.665,370.413 450.484,370.396L450.077,366.192C452.121,365.481 454.498,364.748 455.402,364.119C456.991,363.015 458.508,360.711 458.508,360.711C462.658,360.676 464.154,359.861 464.154,359.861C464.154,359.861 466.774,366.918 466.146,368.136Z" style="fill:rgb(60,65,69);fill-rule:nonzero;"/>
        <path d="M461.523,235.79C461.523,235.79 467.393,234.424 470.701,235.541L471.201,236.003C471.201,236.003 472.206,237.931 468.422,238.097C464.636,238.262 458.686,238.538 461.523,235.79Z" style="fill:rgb(255,210,85);fill-rule:nonzero;"/>
        <path d="M484.461,373.338C484.461,373.338 485.341,376.793 485.461,377.314C485.581,377.834 490.999,376.401 490.999,376.401L490.994,372.174C490.994,372.174 485.098,372.769 484.461,373.338Z" style="fill:rgb(92,84,77);fill-rule:nonzero;"/>
        <path d="M480.385,282.424C480.385,282.424 482.36,290.574 482.945,298.732C483.486,306.273 484.471,314.544 485.252,322.431C486.124,331.222 488.612,345.435 488.742,350.137C488.872,354.84 492.83,375.394 492.83,375.394L482.705,376.557C482.705,376.557 476.126,340.235 474.572,336.522C473.019,332.811 465.313,306.342 465.055,303.371C464.795,300.401 480.385,282.424 480.385,282.424Z" style="fill:rgb(60,65,69);fill-rule:nonzero;"/>
        <path d="M485.354,376.874C485.354,376.874 483.837,379.177 482.249,380.281C480.66,381.386 474.529,382.814 473.634,383.876C472.987,384.643 472.089,387.545 481.927,386.22C488.915,385.278 492.364,385.517 492.992,384.298C493.62,383.08 490.999,376.023 490.999,376.023C490.999,376.023 489.504,376.837 485.354,376.874Z" style="fill:rgb(60,65,69);fill-rule:nonzero;"/>
        <path d="M448.883,302.699C448.021,302.576 451.023,276.868 450.794,275.256C450.641,274.181 450.665,265.826 450.728,260.619L449.788,255.348C449.265,254.967 448.563,254.526 447.725,254.043C446.419,253.289 444.781,252.428 442.962,251.519C443.173,250.274 443.32,249.293 443.377,248.721C443.831,244.091 446.94,241.637 448.703,240.604C449.423,240.184 449.918,239.999 449.918,239.999C450.588,239.714 451.246,239.439 451.884,239.177C456.131,237.429 461.523,235.79 461.523,235.79L470.188,235.79C470.188,235.79 476.783,237.107 480.715,238.716C481.219,238.922 481.69,239.186 482.135,239.495L480.957,264.196C480.956,264.202 480.956,264.207 480.955,264.213C480.954,264.221 480.952,264.231 480.95,264.244C480.42,267.721 479.862,271.82 479.676,274.693C479.6,275.867 480.941,282.169 481.643,287.953L484.093,301.795C484.093,301.795 482.677,307.531 448.883,302.699Z" style="fill:rgb(81,138,250);fill-rule:nonzero;"/>
        <path d="M404.647,222.586C404.647,222.586 405.159,223.22 405.518,223.388C405.518,223.388 406.194,223.643 406.664,223.854C406.813,223.921 406.94,223.983 407.02,224.032C407.349,224.235 408.009,224.779 408.936,225.045C409.86,225.312 414.047,226.265 414.047,226.265L415.02,223.782L415.718,221.775C415.718,221.775 411.844,216.756 411.01,216.408C410.928,216.375 410.846,216.344 410.767,216.322C410.032,216.096 409.391,216.236 408.991,216.161C408.845,216.134 407.369,215.969 407.05,216.276C406.605,216.704 406.472,217.18 406.548,217.595C406.548,217.595 405.716,218.47 405.656,219.281C405.656,219.281 404.861,220.063 405.074,221.093C405.074,221.093 404.358,221.977 404.647,222.586Z" style="fill:rgb(238,168,134);fill-rule:nonzero;"/>
        <path d="M449.51,255.15C448.543,254.527 447.291,253.685 442.962,251.519C434.901,247.486 424.949,240.175 423.057,239.119C420.147,237.495 410.955,226.265 410.955,226.265C411.43,224.574 415.787,221.179 415.787,221.179C415.787,221.179 429.722,234.377 432.768,236.002C435.386,237.399 448.32,238.81 451.884,239.177C452.463,239.236 452.794,239.269 452.794,239.269C456.516,244.344 451.587,256.488 449.51,255.15Z" style="fill:rgb(81,138,250);fill-rule:nonzero;"/>
        <path d="M186.11,159.36C186.11,159.36 183.638,154.822 182.232,153.189C180.825,151.556 176.153,150.331 176.788,148.245C177.423,146.158 183.683,147.065 185.407,149.107C187.131,151.148 192.393,151.874 192.574,152.735C192.756,153.598 190.747,158.315 189.62,159.086C188.492,159.858 186.11,159.36 186.11,159.36Z" style="fill:rgb(106,117,186);fill-rule:nonzero;"/>
        <path d="M175.602,163.204C175.602,163.204 171.575,160.01 169.636,159.07C167.697,158.129 162.922,158.861 162.677,156.694C162.431,154.526 168.537,152.873 170.929,154.062C173.322,155.251 178.439,153.828 178.948,154.547C179.457,155.266 179.487,160.393 178.758,161.549C178.029,162.704 175.602,163.204 175.602,163.204Z" style="fill:rgb(84,93,148);fill-rule:nonzero;"/>
        <path d="M184.545,171.516C184.545,171.516 186.303,159.494 186.223,157.408C186.201,156.813 189.841,157.034 189.671,158.18C189.3,160.673 190.981,170.336 190.689,172.105C190.397,173.875 184.396,172.63 184.545,171.516Z" style="fill:rgb(238,168,134);fill-rule:nonzero;"/>
        <path d="M179.037,174.971C179.037,174.971 175.742,163.298 174.975,161.356C174.633,160.493 177.99,159.154 178.445,160.695C179.16,163.113 184.475,171.333 184.91,173.072C185.344,174.813 179.341,176.053 179.037,174.971Z" style="fill:rgb(238,168,134);fill-rule:nonzero;"/>
        <path d="M181.324,183.083C181.324,183.083 177.786,171.153 177.242,169.883L182.821,166.435C182.821,166.435 185.407,174.056 185.77,175.961C186.133,177.866 181.324,183.083 181.324,183.083Z" style="fill:rgb(32,124,214);fill-rule:nonzero;"/>
        <path d="M280.09,151.562C280.09,151.562 274.702,152.924 272.139,156.999C269.575,161.074 267.359,165.767 262.542,167.896C257.726,170.025 257.694,175.511 258.069,176.356C258.444,177.203 273.242,193.837 276.472,194.48C279.701,195.123 285.746,194.676 285.099,190.402C284.452,186.127 278.117,176.933 281.673,172.294C285.229,167.656 286.125,163.383 286.125,163.383L280.09,151.562Z" style="fill:rgb(46,51,77);fill-rule:nonzero;"/>
        <path d="M279.151,171.456C279.151,171.456 278.993,171.403 278.729,171.379C278.424,171.351 277.977,171.359 277.469,171.53C277.343,171.573 277.174,171.659 276.976,171.775C275.696,172.53 272.666,174.578 272.256,174.627C271.784,174.683 272.183,167.616 272.183,167.616C272.183,167.616 273.796,164.761 274,162.883C274.202,161.004 279.151,171.456 279.151,171.456Z" style="fill:rgb(238,168,134);fill-rule:nonzero;"/>
        <path d="M241.249,178.842C241.249,178.842 235.329,174.691 228.388,175.984C221.448,177.277 220.699,180.521 218.317,180.668C215.936,180.815 207.975,180.135 201.443,182.04C194.911,183.945 189.399,184.149 188.65,183.605C187.902,183.061 192.733,172.173 192.733,170.677L184.636,168.567C184.636,168.567 182.322,178.229 181.415,180.407C180.445,182.736 178.58,187.121 181.234,190.931C183.888,194.742 191.304,193.024 195.795,193.792C200.286,194.56 220.387,194.068 223.897,193.88C227.708,193.676 239.208,193.131 239.208,193.131L241.249,178.842Z" style="fill:rgb(32,124,214);fill-rule:nonzero;"/>
        <path d="M289.869,157.329C289.869,157.329 290.247,163.177 288.948,164.931C288.429,165.632 288.076,166.014 287.84,166.22C287.507,166.51 287.249,166.875 287.1,167.292C286.699,168.417 286.452,169.999 286.132,170.337C285.784,170.706 284.774,169.768 284.408,169.766C284.043,169.764 280.48,172.839 279.629,172.209C278.777,171.58 273.58,166.307 274.016,162.691C274.453,159.076 276.048,153.677 281.899,153.71C287.751,153.744 289.422,155.874 289.869,157.329Z" style="fill:rgb(238,168,134);fill-rule:nonzero;"/>
        <path d="M272.187,185.238C272.074,185.478 269.922,188.914 267.565,190.908C266.587,191.735 265.574,192.314 264.656,192.314C264.375,192.314 264.102,192.319 263.836,192.326C261.131,192.398 259.053,192.813 255.402,192.995C251.608,193.185 242.406,192.655 242.133,192.655C241.861,192.655 239.208,193.131 239.208,193.131C238.254,191.975 240.772,178.91 241.249,178.842C241.725,178.774 244.787,179.931 247.713,179.454C250.639,178.978 251.795,178.706 256.15,173.603C260.505,168.5 264.86,167.207 266.697,167.614C268.534,168.023 272.187,167.614 272.187,167.614C272.187,167.614 272.344,184.898 272.187,185.238Z" style="fill:rgb(255,201,85);fill-rule:nonzero;"/>
        <path d="M287.411,161.516C287.411,161.516 288.501,164.342 289.079,164.731C289.079,164.731 291.183,162.505 289.832,157.013C288.48,151.521 283.382,151.004 280.09,151.562C275.993,152.256 271.868,166.119 272.081,167.469C272.293,168.819 276.884,160.305 280.906,160.99C284.928,161.675 284.96,161.899 287.411,161.516Z" style="fill:rgb(46,51,77);fill-rule:nonzero;"/>
        <path d="M278.729,171.379C278.424,171.351 277.977,171.359 277.469,171.53C277.343,171.573 277.174,171.659 276.976,171.775C276.035,170.308 275.164,166.829 275.135,166.711C275.762,168.616 278.729,171.379 278.729,171.379Z" style="fill:rgb(167,120,96);fill-rule:nonzero;"/>
        <path d="M267.565,190.908C266.587,191.735 265.574,192.314 264.656,192.314C264.375,192.314 264.102,192.319 263.836,192.326L264.95,181.496L267.565,190.908Z" style="fill:rgb(194,153,65);fill-rule:nonzero;"/>
        <path d="M288.737,209.557L286.125,211.933C283.872,210.726 278.225,206.662 277.139,205.736C276,204.766 268.402,198.412 267.359,196.963C266.307,195.515 264.974,180.546 265.11,179.861C265.245,179.184 271.714,178.837 272.448,180.421C272.448,180.421 272.787,188.958 272.96,190.387C273.125,191.816 273.672,193.107 274.652,194.309C276.009,195.973 278.897,199.837 281.693,202.96C282.36,203.705 287.875,208.815 288.737,209.557Z" style="fill:rgb(238,168,134);fill-rule:nonzero;"/>
        <path d="M272.98,180.611C272.98,180.611 273.388,169.243 269.691,169.384C265.016,169.562 264.315,175.281 264.95,181.496C264.95,181.496 271.937,181.563 272.98,180.611Z" style="fill:rgb(255,201,85);fill-rule:nonzero;"/>
        <path d="M287.479,208.444C287.479,208.444 287.827,208.992 288.331,209.162C289.201,209.456 290.488,208.89 291.123,210.03C291.758,211.17 288.693,214.018 287.871,214.19C287.047,214.363 285.728,213.082 284.696,210.554C283.666,208.026 287.479,208.444 287.479,208.444Z" style="fill:rgb(238,168,134);fill-rule:nonzero;"/>
        <path d="M290.854,209.675C290.854,209.675 292.417,210.865 293.998,212.393C295.385,213.733 296.795,215.493 296.439,215.825C295.953,216.279 295.007,214.768 293.544,213.527C292.196,212.384 292.273,212.825 292.273,212.825C292.273,212.825 292.258,212.698 293.487,214.217C294.808,215.85 296.173,217.788 295.766,218.068C295.511,218.243 295.499,218.29 294.922,217.771C295.19,218.137 295.127,218.258 294.985,218.378C294.248,218.996 291.933,216.882 291.013,216.042C291.715,216.691 292.162,217.24 291.449,217.323C290.633,217.419 287.493,214.29 286.262,213.272C284.918,212.162 290.854,209.675 290.854,209.675Z" style="fill:rgb(238,168,134);fill-rule:nonzero;"/>
        <path d="M243.908,179.362C243.908,179.362 242.661,188.309 243.275,192.709C243.275,192.709 243.926,193.193 245.221,192.802C245.221,192.802 245.544,183.037 246.27,179.569C246.27,179.569 245.871,179.268 243.908,179.362Z" style="fill:rgb(224,224,224);fill-rule:nonzero;"/>
        <rect x="244.205" y="18.33" width="0.965" height="167.798" style="fill:rgb(224,224,224);fill-rule:nonzero;"/>
        <path d="M162.141,431.16C162.141,431.16 161.651,434.593 161.59,435.109C161.528,435.625 156.14,434.806 156.14,434.806L155.703,430.718C155.703,430.718 161.467,430.676 162.141,431.16Z" style="fill:rgb(92,84,77);fill-rule:nonzero;"/>
        <path d="M161.647,434.672C161.647,434.672 163.354,436.741 165.006,437.643C166.657,438.544 169.252,438.902 170.229,439.835C170.934,440.509 172.797,443.41 165.938,443.352C159.079,443.293 155.772,443.761 155.037,442.648C154.302,441.537 156.101,434.439 156.101,434.439C156.101,434.439 157.725,435.03 161.647,434.672Z" style="fill:rgb(60,65,69);fill-rule:nonzero;"/>
        <path d="M200.755,431.16C200.755,431.16 200.265,434.593 200.204,435.109C200.143,435.625 194.753,434.806 194.753,434.806L194.317,430.718C194.317,430.718 200.082,430.676 200.755,431.16Z" style="fill:rgb(92,84,77);fill-rule:nonzero;"/>
        <path d="M200.261,434.672C200.261,434.672 201.969,436.741 203.62,437.643C205.271,438.544 211.349,439.285 212.325,440.219C213.03,440.893 214.203,443.605 204.552,443.352C197.695,443.171 194.386,443.761 193.651,442.648C192.916,441.537 194.714,434.439 194.714,434.439C194.714,434.439 196.245,435.07 200.261,434.672Z" style="fill:rgb(60,65,69);fill-rule:nonzero;"/>
        <path d="M164.055,342.521C164.055,342.521 161.187,351.04 161.565,358.383C161.942,365.725 160.082,373.759 159.321,381.429C158.473,389.979 155.002,410.222 154.876,414.795C154.75,419.369 155.416,433.975 155.416,433.975L162.362,434.135C162.362,434.135 168.197,398.746 169.708,395.136C171.219,391.524 178.713,365.781 178.964,362.894C179.216,360.005 164.055,342.521 164.055,342.521Z" style="fill:rgb(51,55,59);fill-rule:nonzero;"/>
        <path d="M193.26,344.037C193.26,344.037 197.076,364.16 197.58,368.654C198.083,373.147 198.419,390.4 198.671,393.21C198.923,396.019 200.351,429.962 201.694,434.135L192.812,434.135C192.812,434.135 185.994,409.459 185.994,397.783C185.994,386.107 180.728,372.401 177.328,364.698C173.928,356.995 166.146,356.813 164.055,342.521C164.055,342.521 190.43,339.504 193.26,344.037Z" style="fill:rgb(60,65,69);fill-rule:nonzero;"/>
        <path d="M175.21,275.264C175.21,275.264 182.212,272.647 185.439,277.978C188.667,283.307 188.356,293.976 184.828,295.287C181.299,296.6 175.998,295.914 174.191,292.579C172.385,289.244 170.753,284.424 170.832,281.202C170.91,277.98 173.373,276.193 175.21,275.264Z" style="fill:rgb(238,168,134);fill-rule:nonzero;"/>
        <path d="M183.653,294.96C183.653,294.96 183.37,296.795 183.837,297.699C184.305,298.603 175.031,298.627 175.031,298.627C175.031,298.627 174.278,293.71 172.852,289.556C171.424,285.401 183.653,294.96 183.653,294.96Z" style="fill:rgb(238,168,134);fill-rule:nonzero;"/>
        <path d="M172.852,289.556C172.852,289.556 173.492,290.611 176.104,290.202C178.716,289.792 181.904,286.316 182.995,285.935C184.085,285.553 184.096,284.912 184.096,284.912L184.778,285.91L185.938,285.982C185.938,285.982 184.88,282.873 186.475,281.605C188.069,280.338 184.82,271.542 176.441,274.471C176.441,274.471 170.006,276.244 170.24,279.904C170.475,283.563 171.411,287.732 172.852,289.556Z" style="fill:rgb(252,204,162);fill-rule:nonzero;"/>
        <path d="M184.388,297.591C184.388,297.591 184.358,295.863 183.575,295.698C182.792,295.531 174.934,294.776 173.973,295.154L173.973,297.166C173.973,297.166 175.824,298.306 184.388,297.591Z" style="fill:rgb(226,210,202);fill-rule:nonzero;"/>
        <path d="M183.922,283.581C183.776,282.967 182.215,281.213 181.617,283.092C181.02,284.969 182.521,287.496 183.357,287.279C184.194,287.063 184.294,285.137 183.922,283.581Z" style="fill:rgb(238,168,134);fill-rule:nonzero;"/>
        <path d="M184.388,297.591C184.388,297.591 188.696,299.14 193.686,301.26C193.686,301.26 199.426,303.402 200.047,309.742C200.377,313.107 203.96,330.967 204.632,332.478C205.303,333.988 213.249,358.264 213.528,358.767C213.808,359.271 207.044,362.078 206.596,361.854C206.149,361.631 198.904,339.714 198.176,338.09C198.176,338.09 194.006,324.949 193.894,322.99C193.894,322.99 193.774,328.573 193.551,330.141C193.327,331.708 197.259,362.138 197.147,362.978C197.035,363.817 179.275,364.883 172.167,364.1C165.059,363.316 159.323,361.681 159.323,361.681C159.323,361.681 164.917,337.666 164.745,335.004C164.371,329.202 162.432,318.276 162.432,318.276L156.636,329.202L164.055,348.289L162.356,354.09C162.356,354.09 148.57,333.258 148.123,331.354C147.675,329.451 148.798,327.027 149.526,325.46C150.253,323.894 155.033,311.966 156.152,310.287C157.271,308.607 159.163,301.884 163.735,300.012C167.558,298.448 173.973,297.166 173.973,297.166L184.388,297.591Z" style="fill:rgb(73,80,84);fill-rule:nonzero;"/>
        <path d="M193.867,369.769L226.343,361.44L220.533,338.784L188.057,347.111L193.867,369.769Z" style="fill:rgb(214,214,214);fill-rule:nonzero;"/>
        <path d="M216.356,363.722C216.356,363.722 217.284,365.222 217.623,365.648C217.962,366.077 216.79,366.346 216.288,365.912C215.785,365.479 216.356,363.722 216.356,363.722Z" style="fill:rgb(201,132,98);fill-rule:nonzero;"/>
        <path d="M209.593,368.844C209.593,368.844 209.045,368.271 208.927,367.905C208.927,367.905 208.764,367.221 208.619,366.742C208.571,366.59 208.528,366.459 208.491,366.377C208.335,366.035 207.891,365.33 207.748,364.403C207.604,363.479 207.2,359.323 207.2,359.323L209.715,358.689L211.737,358.263C211.737,358.263 216.103,362.618 216.336,363.465C216.358,363.548 216.377,363.631 216.389,363.71C216.517,364.446 216.303,365.048 216.326,365.442C216.333,365.586 216.312,367.031 215.976,367.302C215.509,367.677 215.033,367.748 214.643,367.623C214.643,367.623 213.695,368.318 212.906,368.276C212.906,368.276 212.054,368.946 211.086,368.614C211.086,368.614 210.146,369.197 209.593,368.844Z" style="fill:rgb(222,157,125);fill-rule:nonzero;"/>
        <path d="M199.773,342.566C199.773,342.566 205.538,360.022 206.596,361.854C206.596,361.854 210.823,360.966 213.528,358.767L207.2,339.928L199.773,342.566Z" style="fill:rgb(73,80,84);fill-rule:nonzero;"/>
    </g>
    <defs>
        <linearGradient id="_Linear1" x1="0" y1="0" x2="1" y2="0" gradientUnits="userSpaceOnUse" gradientTransform="matrix(58.9478,0,0,58.9478,48.5024,373.563)"><stop offset="0" style="stop-color:rgb(47,117,161);stop-opacity:1"/><stop offset="1" style="stop-color:rgb(98,156,56);stop-opacity:1"/></linearGradient>
        <linearGradient id="_Linear2" x1="0" y1="0" x2="1" y2="0" gradientUnits="userSpaceOnUse" gradientTransform="matrix(53.3076,0,0,53.3076,91.7451,406.455)"><stop offset="0" style="stop-color:rgb(47,117,161);stop-opacity:1"/><stop offset="1" style="stop-color:rgb(98,156,56);stop-opacity:1"/></linearGradient>
        <linearGradient id="_Linear3" x1="0" y1="0" x2="1" y2="0" gradientUnits="userSpaceOnUse" gradientTransform="matrix(40.0107,0,0,40.0107,96.3022,414.207)"><stop offset="0" style="stop-color:rgb(47,117,161);stop-opacity:1"/><stop offset="1" style="stop-color:rgb(98,156,56);stop-opacity:1"/></linearGradient>
        <linearGradient id="_Linear4" x1="0" y1="0" x2="1" y2="0" gradientUnits="userSpaceOnUse" gradientTransform="matrix(46.5957,0,0,46.5957,81.854,382.01)"><stop offset="0" style="stop-color:rgb(47,117,161);stop-opacity:1"/><stop offset="1" style="stop-color:rgb(98,156,56);stop-opacity:1"/></linearGradient>
        <linearGradient id="_Linear5" x1="0" y1="0" x2="1" y2="0" gradientUnits="userSpaceOnUse" gradientTransform="matrix(252.632,0,0,252.632,207.963,248.715)"><stop offset="0" style="stop-color:rgb(63,75,96);stop-opacity:1"/><stop offset="1" style="stop-color:rgb(47,61,91);stop-opacity:1"/></linearGradient>
    </defs>
</svg>
