<?xml version="1.0" encoding="UTF-8" standalone="no"?><!DOCTYPE svg PUBLIC "-//W3C//DTD SVG 1.1//EN" "http://www.w3.org/Graphics/SVG/1.1/DTD/svg11.dtd"><svg width="100%" height="100%" viewBox="0 0 2882 1471" version="1.1" xmlns="http://www.w3.org/2000/svg" xmlns:xlink="http://www.w3.org/1999/xlink" xml:space="preserve" xmlns:serif="http://www.serif.com/" style="fill-rule:evenodd;clip-rule:evenodd;stroke-linejoin:round;stroke-miterlimit:2;"><path d="M185.223,1467.15c-0,0 -348.378,-349.55 -58.916,-727.997c256.829,-335.78 556.267,-312.827 775.964,-176.565c93.56,58.035 363.34,7.152 592.95,-334.517c313.12,-465.942 1398.53,-183.347 1200.63,533.519c-95.77,346.91 291.47,359.52 94.15,706.29l-2604.78,-0.73Z" style="fill:#ebf3fa;fill-rule:nonzero;"/><path d="M1738.84,1320.51c-0.01,-0.2 1.09,-22.77 -9.81,-27.96l0.77,-0.74c4.99,1.74 10.53,7.14 12.75,14.75c1.64,5.66 0.39,6.9 0.4,7.11l-4.11,6.84Z" style="fill:#a4c8fc;fill-rule:nonzero;"/><path d="M1666.55,1262.01c0,0 3.73,29.06 21.45,37.57c17.72,8.5 42.73,-6.77 42.73,-6.77c-0,0 -3.73,-29.05 -21.45,-37.56c-17.72,-8.51 -42.73,6.76 -42.73,6.76Z" style="fill:#a4c8fc;fill-rule:nonzero;"/><path d="M1736.98,1362.85c-0.21,-1.13 -4.14,-27.71 5.92,-57.34c9.66,-28.46 4.31,-52.6 4.27,-52.84l7.11,0c0.19,1.03 0.68,24.72 -6.9,57.18c-6.81,29.22 5.92,53 3.21,53l-13.61,0Z" style="fill:#a4c8fc;fill-rule:nonzero;"/><path d="M1751.91,1284.38c0.04,-0.15 3.44,-19.63 12.57,-21.85c-4.08,0.53 -9.27,3.46 -12.17,8.9c-2.16,4.05 -1.4,5.19 -1.44,5.35l1.04,7.6Z" style="fill:#a4c8fc;fill-rule:nonzero;"/><path d="M1781.23,1286.39c-13.65,-2.76 -21.27,-22.07 -21.27,-22.07c-0,0 14.51,-14.84 28.17,-12.09c13.65,2.76 21.27,22.08 21.27,22.08c0,0 -14.51,14.84 -28.17,12.08Z" style="fill:#a4c8fc;fill-rule:nonzero;"/><path d="M1675.15,1223.45c-21.74,-33.01 -12.6,-77.4 20.41,-99.15c33.02,-21.74 77.41,-12.6 99.15,20.41c21.75,33.02 12.61,77.41 -20.4,99.15c-33.02,21.74 -77.41,12.61 -99.16,-20.41Z" style="fill:#ffb93e;fill-rule:nonzero;"/><path d="M1701.67,1133.57c-28.24,18.6 -36.09,56.71 -17.49,84.95c18.6,28.24 56.71,36.08 84.95,17.48c28.24,-18.6 36.09,-56.7 17.49,-84.94c-18.6,-28.24 -56.71,-36.09 -84.95,-17.49Zm69.6,105.68c-14.55,9.58 -31.96,12.93 -49.02,9.41c-17.06,-3.51 -31.73,-13.45 -41.32,-28c-9.58,-14.55 -12.92,-31.96 -9.41,-49.02c3.51,-17.06 13.46,-31.74 28.01,-41.32c14.55,-9.58 31.95,-12.92 49.02,-9.41c17.06,3.51 31.73,13.46 41.31,28.01c9.59,14.54 12.93,31.95 9.42,49.02c-3.51,17.06 -13.46,31.73 -28.01,41.31Z" style="fill:#ffa412;fill-rule:nonzero;"/><path d="M1753.31,1195.66c-0.64,-1.27 -1.37,-2.29 -2.21,-3.08c-0.84,-0.79 -1.87,-1.37 -3.07,-1.75c-1.2,-0.37 -2.61,-0.57 -4.23,-0.59c-1.61,-0.03 -3.5,0.11 -5.67,0.4c-3.74,0.48 -7.21,0.76 -10.42,0.84c-3.21,0.08 -6.14,-0.22 -8.79,-0.89c-2.65,-0.67 -5.02,-1.82 -7.12,-3.45c-2.09,-1.63 -3.88,-3.92 -5.36,-6.88c-1.28,-2.56 -2,-5.12 -2.15,-7.69c-0.15,-2.56 0.23,-5.05 1.13,-7.47c0.91,-2.41 2.29,-4.7 4.15,-6.86c1.87,-2.15 4.19,-4.1 6.97,-5.83l-4.84,-9.68l7.79,-3.9l4.91,9.81c2.97,-1.04 5.88,-1.57 8.71,-1.59c2.83,-0.02 5.48,0.46 7.97,1.44c2.48,0.99 4.76,2.47 6.83,4.47c2.08,2 3.87,4.5 5.38,7.52l-14.07,7.05c-1.81,-3.62 -3.97,-5.93 -6.48,-6.92c-2.5,-0.98 -5.1,-0.81 -7.8,0.54c-1.46,0.73 -2.61,1.57 -3.46,2.5c-0.85,0.94 -1.44,1.93 -1.77,2.98c-0.33,1.05 -0.41,2.14 -0.25,3.27c0.16,1.13 0.52,2.25 1.07,3.36c0.56,1.12 1.23,2.05 2.01,2.79c0.78,0.74 1.75,1.3 2.94,1.67c1.18,0.37 2.59,0.56 4.25,0.58c1.65,0.02 3.63,-0.09 5.94,-0.34c3.74,-0.4 7.21,-0.63 10.41,-0.69c3.2,-0.05 6.13,0.26 8.79,0.95c2.65,0.68 5.03,1.84 7.13,3.47c2.09,1.63 3.87,3.91 5.33,6.83c1.33,2.65 2.06,5.27 2.19,7.84c0.14,2.58 -0.26,5.05 -1.17,7.44c-0.92,2.38 -2.34,4.64 -4.26,6.77c-1.91,2.13 -4.27,4.06 -7.05,5.79l4.51,9l-7.75,3.88l-4.48,-8.96c-2.83,1.08 -5.73,1.8 -8.7,2.15c-2.97,0.36 -5.85,0.17 -8.65,-0.56c-2.8,-0.72 -5.44,-2.09 -7.9,-4.1c-2.47,-2.01 -4.61,-4.82 -6.42,-8.44l14.07,-7.05c1.07,2.14 2.27,3.78 3.58,4.91c1.32,1.13 2.7,1.88 4.14,2.23c1.43,0.36 2.88,0.39 4.33,0.09c1.46,-0.29 2.85,-0.77 4.18,-1.44c1.53,-0.76 2.77,-1.63 3.73,-2.6c0.95,-0.97 1.65,-2 2.08,-3.08c0.43,-1.08 0.6,-2.2 0.52,-3.34c-0.09,-1.15 -0.41,-2.28 -0.97,-3.39Z" style="fill:#ffa412;fill-rule:nonzero;"/><path d="M1808.51,1355.94l-0.01,0.06l-1.42,21.93l-5.3,81.41l-99.07,0l-5.84,-80.3l-1.6,-22.13l-0.07,-0.97l113.31,0Z" style="fill:#b4c9f7;fill-rule:nonzero;"/><path d="M1808.5,1356l-1.42,21.93c-7.47,-2.6 -28.21,-8.85 -55.23,-8.85c-34.12,0 -54.98,9.96 -54.98,9.96l-1.6,-22.13l113.23,-0.91Z" style="fill:#9bb8ea;fill-rule:nonzero;"/><path d="M1811.95,1367.53l-120.35,0l-1.37,-13.99l123.25,0l-1.53,13.99Z" style="fill:#b4c9f7;fill-rule:nonzero;"/><path d="M1803.3,1463.68l-102.72,0l-1.18,-4.87l105.21,0l-1.31,4.87Z" style="fill:#b4c9f7;fill-rule:nonzero;"/><path d="M2877.75,1470.75l-2874.49,0c-1.795,0 -3.263,-1.47 -3.263,-3.27l0,-1.11c0,-1.79 1.468,-3.26 3.263,-3.26l2874.49,0c1.79,0 3.26,1.47 3.26,3.26l-0,1.11c-0,1.8 -1.47,3.27 -3.26,3.27Z" style="fill:#2e3552;fill-rule:nonzero;"/><path d="M2423.63,939.482l-9.62,7.81c-0,0 -26.31,-9.43 -32.25,21.83c-0,0 -1.58,13.33 6.86,13.36c8.44,0.02 4.96,-1.46 16.91,-1.11c11.96,0.35 21.86,-5.95 23.61,-15.65l5.72,-8.22l-11.23,-18.02Z" style="fill:#ea8e50;fill-rule:nonzero;"/><path d="M2424.72,956.252c-7.67,-8.02 -7.06,-13.94 -7.06,-13.94c-0,0 88.86,-72.75 97.88,-78.68c6.14,-4.04 71.58,-62.05 102.17,-97.42c15.17,-17.545 33.97,-10.74 55.47,-4.57l17.71,5.08c21.38,6.14 26.94,36.041 9.4,50.58c-49.41,40.93 -131.61,86.96 -147,96.64c-38.18,24.01 -112.91,52.56 -112.91,52.56c0,0 -9.07,-3.37 -15.66,-10.25Z" style="fill:#1e3d70;fill-rule:nonzero;"/><path d="M2323.31,1403.22c0,0 -21.56,16.16 -54.61,7.62c-0,0 -26.64,-6.07 -32.48,7.22c-0,0 40.86,20.75 51.2,26.43c7.79,4.28 15.92,11.03 21.67,16.25c4.55,4.13 11.64,3.58 15.52,-1.19c1.79,-2.21 3.85,-4.85 6.11,-7.9c6.3,-8.54 20.97,-36.12 20.97,-36.12l-28.38,-12.31Z" style="fill:#233862;fill-rule:nonzero;"/><path d="M2569.35,812.942c0,-83.268 -67.51,-150.773 -150.78,-150.773c-83.27,0 -150.78,67.505 -150.78,150.773c0,83.27 67.51,150.78 150.78,150.78c83.27,0 150.78,-67.51 150.78,-150.78Z" style="fill:#e2810e;fill-rule:nonzero;"/><path d="M2582.5,812.942c-0,-83.268 -67.5,-150.773 -150.78,-150.773c-83.27,0 -150.77,67.505 -150.77,150.773c-0,83.27 67.5,150.78 150.77,150.78c83.28,0 150.78,-67.51 150.78,-150.78Z" style="fill:#ffb93e;fill-rule:nonzero;"/><path d="M2302.55,814.722c0,71.23 57.94,129.18 129.17,129.18c71.23,0 129.18,-57.95 129.18,-129.18c-0,-71.224 -57.95,-129.173 -129.18,-129.173c-71.23,0 -129.17,57.949 -129.17,129.173Zm32.04,97.14c-25.95,-25.94 -40.24,-60.44 -40.24,-97.14c0,-36.69 14.29,-71.186 40.24,-97.132c25.94,-25.947 60.44,-40.236 97.13,-40.236c36.7,0 71.2,14.289 97.14,40.236c25.95,25.946 40.24,60.442 40.24,97.132c0,36.7 -14.29,71.2 -40.24,97.14c-25.94,25.95 -60.44,40.24 -97.14,40.24c-36.69,0 -71.19,-14.29 -97.13,-40.24Z" style="fill:#ffa412;fill-rule:nonzero;"/><path d="M2415.04,861.682c1.17,2.11 2.77,3.88 4.78,5.28c2.02,1.41 4.43,2.41 7.23,3.01c2.81,0.59 5.99,0.68 9.56,0.26c3.12,-0.37 6.13,-1.14 9.03,-2.31c2.9,-1.16 5.41,-2.89 7.53,-5.18c2.11,-2.29 3.67,-5.2 4.68,-8.71c1.01,-3.52 1.21,-7.78 0.62,-12.79l32.92,-3.91c1,8.47 0.5,15.9 -1.52,22.29c-2.01,6.39 -5.06,11.85 -9.14,16.37c-4.09,4.53 -8.94,8.2 -14.58,11.01c-5.63,2.82 -11.56,4.91 -17.79,6.3l2.49,20.95l-18.12,2.14l-2.49,-21.05c-6.91,0.18 -13.29,-0.5 -19.13,-2.02c-5.84,-1.53 -10.95,-3.85 -15.32,-6.98c-4.38,-3.13 -7.94,-7.04 -10.69,-11.72c-2.75,-4.68 -4.49,-10.12 -5.23,-16.33c-0.81,-6.84 -0.32,-12.91 1.48,-18.2c1.8,-5.29 4.64,-10.08 8.51,-14.37c3.89,-4.29 8.67,-8.23 14.37,-11.84c5.69,-3.61 12.06,-7.23 19.1,-10.849c4.35,-2.241 7.97,-4.331 10.86,-6.281c2.89,-1.95 5.16,-3.94 6.8,-5.96c1.65,-2.019 2.73,-4.13 3.23,-6.34c0.51,-2.2 0.61,-4.61 0.3,-7.22c-0.31,-2.61 -0.98,-5 -2,-7.17c-1.03,-2.16 -2.44,-3.98 -4.23,-5.45c-1.79,-1.47 -3.98,-2.53 -6.56,-3.19c-2.58,-0.66 -5.58,-0.79 -9,-0.38c-6.3,0.74 -11.08,3.44 -14.34,8.08c-3.26,4.65 -4.39,11.2 -3.39,19.661l-32.91,3.909c-0.84,-7.049 -0.59,-13.539 0.75,-19.46c1.34,-5.91 3.62,-11.17 6.85,-15.78c3.22,-4.6 7.34,-8.522 12.35,-11.763c5,-3.239 10.72,-5.67 17.15,-7.293l-2.73,-22.959l18.23,-2.163l2.69,22.643c6.9,-0.177 13.25,0.556 19.03,2.194c5.78,1.64 10.86,4.06 15.24,7.258c4.38,3.202 7.93,7.145 10.64,11.823c2.71,4.69 4.43,10.03 5.14,16.03c0.82,6.911 0.33,13.01 -1.47,18.301c-1.8,5.299 -4.64,10.069 -8.52,14.319c-3.89,4.25 -8.7,8.17 -14.43,11.74c-5.74,3.58 -12.17,7.12 -19.31,10.61c-4.15,2 -7.63,3.95 -10.45,5.85c-2.81,1.91 -5.06,3.9 -6.74,5.95c-1.68,2.06 -2.81,4.27 -3.37,6.63c-0.57,2.36 -0.68,5.01 -0.33,7.98c0.31,2.61 1.05,4.97 2.23,7.08Z" style="fill:#ffa412;fill-rule:nonzero;"/><path d="M2310.65,1395.01c-0,0 13.14,30.28 43.45,24.71c0,0 61.85,-51.08 104.27,-104.14c13.78,-17.23 25.52,-34.68 32.41,-50.64c28.14,-65.14 104.07,-162.29 152.35,-211.53l-120.79,-43.7c0,0 -38.69,77.83 -90.17,173.43c-37.1,68.89 -80.83,147 -121.52,211.87Z" style="fill:#2b478b;fill-rule:nonzero;"/><path d="M2432.17,1183.14l26.2,132.44c13.78,-17.23 25.52,-34.68 32.41,-50.64c28.14,-65.14 104.07,-162.29 152.35,-211.53l-120.79,-43.7c0,0 -38.69,77.83 -90.17,173.43Z" style="fill:#233862;fill-rule:nonzero;"/><path d="M2530.9,1420.79c-0,0 1.32,24.16 -27.97,27.39c-0,0 -16.74,0.08 -16.78,15.46l85.12,0.27c-0,0 2.47,-6.2 3.07,-19.49c0.46,-10.2 -9.88,-36.87 -9.88,-36.87l-33.56,13.24Z" style="fill:#233862;fill-rule:nonzero;"/><path d="M2561.96,1009.71c-0,0 -53.81,59.13 -87.97,165.66c-18.59,57.96 34.06,203.68 44.32,254.32c0,0 35.32,2.99 59.47,-6.34c0,0 1.84,-104.58 -12.28,-185.18c-7.91,-45.11 70.85,-96.47 105.26,-177.98c23.41,-55.45 -5.07,-54.51 -40.07,-55.84l-68.73,5.36Z" style="fill:#2b478b;fill-rule:nonzero;"/><path d="M2624.08,745.906c29.94,16.906 91.23,1.314 91.23,1.314c0,0 -24.89,-28.456 -13.58,-74.287l-23.51,11.938l-25.25,12.825c-0,0 -1.63,8.094 -2.77,22.631c-0.28,3.744 -0.54,7.926 -0.72,12.496c-15.38,4.659 -25.4,13.083 -25.4,13.083Z" style="fill:#ffb07b;fill-rule:nonzero;"/><path d="M2514.29,1006.66c0,5.26 6.06,7.78 7.35,8.03c12.08,2.21 45.8,15.33 76.17,18.33c25.58,2.68 49.32,0.14 75.41,-5.1c3.45,-0.7 11.56,-2.88 12.14,-6.19c0.72,-3.61 100.62,-203.66 22.96,-289.596c-1.82,-2.015 -17.16,1.616 -31.17,4.942c-12.95,3.072 -24.83,1.36 -35.43,-2.895l-13.15,6.918c-16.15,8.997 -46.7,40.961 -50.27,66.041c-1.82,12.76 -9.11,22.2 -11.22,33.42c-0.79,4.15 -1.59,8.21 -2.4,12.16c-1.59,7.75 -3.23,15.12 -4.92,22.14c-4.57,18.97 -9.39,35.3 -14.13,49.41c-5.03,14.97 -9.98,27.43 -14.39,37.85c-5.73,13.52 -10.56,23.62 -13.59,31.36c-2.13,5.44 -3.36,9.71 -3.36,13.18Z" style="fill:#d2e3fc;fill-rule:nonzero;"/><path d="M2517.65,993.482c141.03,-66.45 189.87,-194.03 189.87,-194.03c-0,0 -114.58,42.27 -142.84,53.27c-1.59,7.75 -3.23,15.12 -4.92,22.14c-4.57,18.97 -9.39,35.3 -14.13,49.41c-5.03,14.97 -9.98,27.43 -14.39,37.85c-5.73,13.52 -10.56,23.62 -13.59,31.36Z" style="fill:#a4c8fc;fill-rule:nonzero;"/><path d="M2435.14,954.972l-12.19,4.47c-0,0 -24.4,-17.26 -39.59,10.81c0,0 -5.5,12.26 3.2,14.92c8.7,2.66 5.54,0.16 17.76,4.23c12.23,4.07 24.28,1.14 28.9,-7.6l8.28,-6.07l-6.36,-20.76Z" style="fill:#ffb07b;fill-rule:nonzero;"/><path d="M2425.11,972.202c-4.51,-11.75 -6.56,-17.08 -6.56,-17.08c0,0 92.08,-75.05 101.47,-81.49c6.39,-4.39 70.04,-51.97 101.07,-89.05c15.4,-18.39 39.67,-26.8 63.14,-21.88l19.33,4.06c23.35,4.89 30.93,34.44 12.82,49.96c-50.99,43.72 -137,94.42 -153.04,104.97c-39.81,26.18 -127.86,62.87 -127.86,62.87c-0,0 -6.83,-3.12 -10.37,-12.36Z" style="fill:#d2e3fc;fill-rule:nonzero;"/><path d="M2650.2,720.327c29.45,1.653 48.59,-22.655 48.59,-22.655c0,0 -13.31,-7.374 -20.57,-12.801l-25.25,12.825c-0,0 -1.63,8.094 -2.77,22.631Z" style="fill:#ea8e50;fill-rule:nonzero;"/><path d="M2637.66,690.099c-0,0 44.61,32.014 64.12,3.926c19.51,-28.088 38.4,-42.872 10.75,-64.499c-27.66,-21.628 -40.7,-14.795 -49.49,-7.004c-8.79,7.792 -36.48,58.526 -25.38,67.577Z" style="fill:#ffb07b;fill-rule:nonzero;"/><path d="M2658.33,597.155c1.6,-10.796 5.19,-18.394 5.19,-18.394c-0,-0 2.8,11.596 24,9.997c21.19,-1.599 54.78,2.084 65.98,26.234c0.71,1.536 1.34,3.119 1.91,4.738c2.03,-5.355 2.51,-13.378 2.51,-13.378c4.03,10.397 -0,23.402 -0,23.402c0.06,0.378 0.11,0.759 0.17,1.138c4.67,3.955 8.6,16.247 8.6,16.247c-1.41,-3.427 -4.85,-5.665 -7.92,-7.043c0.09,18.792 -7.53,37.163 -20.9,42.632c-19.56,7.997 -19.41,1.897 -39.08,14.944c0,0 -5.27,-6.547 -1.68,-10.945c3.6,-4.399 17.2,-10.797 9.6,-17.195c-7.6,-6.398 -10.4,0.8 -13.19,-3.599c-2.8,-4.398 11.19,-17.194 -6.8,-29.19c-18,-11.997 -29.99,-28.791 -28.39,-39.588Z" style="fill:#233862;fill-rule:nonzero;"/><path d="M737.556,1439.04l-0,17.43c-0,1.38 -0.504,2.67 -1.37,3.74c-0.911,1.13 -2.22,2.02 -3.753,2.52c-0.469,0.15 -0.959,0.27 -1.464,0.34c-0.459,0.07 -0.928,0.11 -1.41,0.11l-330.516,0c-4.261,0 -7.772,-2.84 -7.988,-6.37c-0.004,-0.11 -0.009,-0.23 -0.009,-0.34l0,-17.43c0,-0.11 0.005,-0.23 0.009,-0.34c0.216,-3.54 3.727,-6.38 7.988,-6.38l330.516,0c0.482,0 0.951,0.04 1.41,0.11c0.505,0.08 0.995,0.19 1.464,0.35c1.533,0.5 2.842,1.38 3.753,2.51c0.866,1.07 1.37,2.36 1.37,3.75Z" style="fill:#ffb93e;fill-rule:nonzero;"/><path d="M575.255,1463.18l-177.069,0c-3.802,0 -6.936,-2.84 -7.131,-6.37c-0.004,-0.11 -0.009,-0.23 -0.009,-0.34l0,-17.43c0,-0.11 0.005,-0.23 0.009,-0.34c0.195,-3.54 3.329,-6.38 7.131,-6.38l155.325,0c2.479,9.09 8.261,21.65 21.744,30.86Z" style="fill:#ffa412;fill-rule:nonzero;"/><rect x="693.582" y="1432.33" width="3.756" height="30.85" style="fill:#ffa412;fill-rule:nonzero;"/><rect x="680.866" y="1432.33" width="3.757" height="30.85" style="fill:#ffa412;fill-rule:nonzero;"/><rect x="665.618" y="1432.33" width="3.756" height="30.85" style="fill:#ffa412;fill-rule:nonzero;"/><rect x="642.245" y="1432.33" width="3.756" height="30.85" style="fill:#ffa412;fill-rule:nonzero;"/><rect x="617.529" y="1432.33" width="3.757" height="30.85" style="fill:#ffa412;fill-rule:nonzero;"/><rect x="579.639" y="1432.33" width="3.756" height="30.85" style="fill:#ffa412;fill-rule:nonzero;"/><rect x="544.162" y="1432.33" width="3.756" height="30.85" style="fill:#ffa412;fill-rule:nonzero;"/><rect x="512.483" y="1432.33" width="3.757" height="30.85" style="fill:#ffa412;fill-rule:nonzero;"/><rect x="705.686" y="1432.33" width="3.756" height="30.85" style="fill:#ffa412;fill-rule:nonzero;"/><rect x="713.682" y="1432.33" width="3.756" height="30.85" style="fill:#ffa412;fill-rule:nonzero;"/><rect x="721.403" y="1432.33" width="3.757" height="30.85" style="fill:#ffa412;fill-rule:nonzero;"/><path d="M730.969,1432.43l-0,30.64c-0.459,0.07 -0.928,0.11 -1.41,0.11l-2.347,0l-0,-30.86l2.347,0c0.482,0 0.951,0.04 1.41,0.11Z" style="fill:#ffa412;fill-rule:nonzero;"/><path d="M736.186,1435.29l-0,24.92c-0.911,1.13 -2.22,2.02 -3.753,2.52l-0,-29.95c1.533,0.5 2.842,1.38 3.753,2.51Z" style="fill:#ffa412;fill-rule:nonzero;"/><path d="M702.218,1408.19l0,17.42c0,1.39 -0.504,2.68 -1.37,3.75c-0.911,1.13 -2.22,2.01 -3.753,2.51c-0.469,0.16 -0.96,0.27 -1.464,0.35c-0.459,0.07 -0.928,0.1 -1.41,0.1l-330.516,0c-4.261,0 -7.771,-2.83 -7.988,-6.37c-0.005,-0.11 -0.008,-0.22 -0.008,-0.34l-0,-17.42c-0,-0.12 0.003,-0.24 0.008,-0.35c0.217,-3.53 3.727,-6.37 7.988,-6.37l330.516,0c0.213,0 0.425,0.01 0.633,0.02c0.088,0.01 0.181,0.01 0.269,0.02c0.097,0.01 0.199,0.02 0.296,0.04c0.071,0 0.142,0.02 0.212,0.03c0.504,0.07 0.995,0.19 1.464,0.34c0.071,0.03 0.136,0.05 0.207,0.07c0.067,0.03 0.137,0.05 0.204,0.08c0.132,0.05 0.269,0.1 0.402,0.16c0.075,0.03 0.155,0.07 0.23,0.11c0.071,0.03 0.137,0.06 0.203,0.1c0.128,0.06 0.252,0.13 0.376,0.2c0.141,0.08 0.279,0.17 0.411,0.26c0.106,0.06 0.208,0.13 0.31,0.21c0.004,0 0.013,0 0.017,0.01c0.066,0.05 0.137,0.1 0.204,0.15c0.203,0.16 0.398,0.33 0.579,0.51c0.057,0.05 0.11,0.1 0.159,0.15c0.053,0.05 0.102,0.11 0.154,0.16c0.102,0.12 0.204,0.23 0.297,0.35c0.866,1.07 1.37,2.36 1.37,3.75Z" style="fill:#ffb93e;fill-rule:nonzero;"/><path d="M539.917,1432.32l-177.069,0c-3.806,0 -6.936,-2.83 -7.131,-6.37c-0.005,-0.11 -0.008,-0.22 -0.008,-0.34l-0,-17.42c-0,-0.12 0.003,-0.24 0.008,-0.35c0.195,-3.53 3.325,-6.37 7.131,-6.37l155.32,0c0.071,0.25 0.142,0.5 0.217,0.76c2.594,9.01 8.417,21.14 21.532,30.09Z" style="fill:#ffa412;fill-rule:nonzero;"/><rect x="658.243" y="1401.47" width="3.757" height="30.85" style="fill:#ffa412;fill-rule:nonzero;"/><rect x="645.527" y="1401.47" width="3.757" height="30.85" style="fill:#ffa412;fill-rule:nonzero;"/><rect x="630.279" y="1401.47" width="3.757" height="30.85" style="fill:#ffa412;fill-rule:nonzero;"/><rect x="606.906" y="1401.47" width="3.757" height="30.85" style="fill:#ffa412;fill-rule:nonzero;"/><rect x="582.191" y="1401.47" width="3.756" height="30.85" style="fill:#ffa412;fill-rule:nonzero;"/><rect x="544.3" y="1401.47" width="3.757" height="30.85" style="fill:#ffa412;fill-rule:nonzero;"/><rect x="508.824" y="1401.47" width="3.756" height="30.85" style="fill:#ffa412;fill-rule:nonzero;"/><rect x="477.145" y="1401.47" width="3.756" height="30.85" style="fill:#ffa412;fill-rule:nonzero;"/><rect x="670.347" y="1401.47" width="3.757" height="30.85" style="fill:#ffa412;fill-rule:nonzero;"/><rect x="678.343" y="1401.47" width="3.757" height="30.85" style="fill:#ffa412;fill-rule:nonzero;"/><rect x="686.064" y="1401.47" width="3.757" height="30.85" style="fill:#ffa412;fill-rule:nonzero;"/><path d="M695.631,1401.58l-0,30.64c-0.46,0.07 -0.928,0.1 -1.41,0.1l-2.347,0l0,-30.85l2.347,0c0.482,0 0.95,0.04 1.41,0.11Z" style="fill:#ffa412;fill-rule:nonzero;"/><path d="M700.847,1404.44l-0,24.92c-0.91,1.13 -2.219,2.01 -3.753,2.51l-0,-29.95c1.534,0.5 2.843,1.39 3.753,2.52Z" style="fill:#ffa412;fill-rule:nonzero;"/><path d="M719.295,1378.09l-0,17.43c-0,1.38 -0.504,2.67 -1.371,3.74c-0.91,1.13 -2.219,2.02 -3.753,2.52c-0.468,0.15 -0.959,0.27 -1.463,0.34c-0.459,0.07 -0.928,0.11 -1.41,0.11l-330.516,0c-1.326,0 -2.582,-0.27 -3.687,-0.76c-2.339,-1.03 -4.01,-3 -4.275,-5.31c-0.013,-0.1 -0.022,-0.2 -0.026,-0.3c-0.005,-0.11 -0.009,-0.23 -0.009,-0.34l-0,-17.43c-0,-0.11 0.004,-0.23 0.009,-0.35c0.216,-3.53 3.726,-6.37 7.988,-6.37l330.516,0c0.482,0 0.951,0.04 1.41,0.11c0.504,0.08 0.995,0.19 1.463,0.35c1.534,0.49 2.843,1.38 3.753,2.51c0.867,1.07 1.371,2.36 1.371,3.75Z" style="fill:#ffb93e;fill-rule:nonzero;"/><path d="M556.994,1402.23l-177.07,0c-1.185,0 -2.303,-0.27 -3.289,-0.76c-2.091,-1.03 -3.58,-3 -3.815,-5.31c-0.013,-0.1 -0.022,-0.2 -0.026,-0.3c-0.005,-0.11 -0.009,-0.23 -0.009,-0.34l-0,-17.43c-0,-0.11 0.004,-0.23 0.009,-0.35c0.194,-3.53 3.329,-6.37 7.13,-6.37l155.326,0c2.413,8.84 7.947,20.97 20.656,30.1c0.359,0.26 0.721,0.51 1.088,0.76Z" style="fill:#ffa412;fill-rule:nonzero;"/><rect x="675.321" y="1371.37" width="3.756" height="30.86" style="fill:#ffa412;fill-rule:nonzero;"/><rect x="662.605" y="1371.37" width="3.756" height="30.86" style="fill:#ffa412;fill-rule:nonzero;"/><rect x="647.357" y="1371.37" width="3.756" height="30.86" style="fill:#ffa412;fill-rule:nonzero;"/><rect x="623.984" y="1371.37" width="3.756" height="30.86" style="fill:#ffa412;fill-rule:nonzero;"/><rect x="599.268" y="1371.37" width="3.757" height="30.86" style="fill:#ffa412;fill-rule:nonzero;"/><rect x="561.378" y="1371.37" width="3.756" height="30.86" style="fill:#ffa412;fill-rule:nonzero;"/><rect x="525.901" y="1371.37" width="3.757" height="30.86" style="fill:#ffa412;fill-rule:nonzero;"/><rect x="494.223" y="1371.37" width="3.756" height="30.86" style="fill:#ffa412;fill-rule:nonzero;"/><rect x="687.424" y="1371.37" width="3.757" height="30.86" style="fill:#ffa412;fill-rule:nonzero;"/><rect x="695.421" y="1371.37" width="3.756" height="30.86" style="fill:#ffa412;fill-rule:nonzero;"/><rect x="703.142" y="1371.37" width="3.756" height="30.86" style="fill:#ffa412;fill-rule:nonzero;"/><path d="M712.709,1371.48l-0,30.64c-0.46,0.07 -0.929,0.11 -1.411,0.11l-2.347,0l-0,-30.86l2.347,0c0.482,0 0.951,0.04 1.411,0.11Z" style="fill:#ffa412;fill-rule:nonzero;"/><path d="M717.925,1374.34l-0,24.92c-0.911,1.13 -2.219,2.02 -3.753,2.52l-0,-29.95c1.534,0.49 2.842,1.38 3.753,2.51Z" style="fill:#ffa412;fill-rule:nonzero;"/><path d="M727.212,1347.23l-0,17.43c-0,1.39 -0.504,2.68 -1.371,3.75c-0.91,1.13 -2.218,2.01 -3.753,2.51c-0.468,0.16 -0.959,0.27 -1.463,0.35c-0.459,0.07 -0.928,0.1 -1.41,0.1l-330.516,0c-4.261,0 -7.771,-2.83 -7.988,-6.37c-0.004,-0.11 -0.009,-0.23 -0.009,-0.34l0,-17.43c0,-0.11 0.005,-0.23 0.009,-0.34c0.199,-3.27 3.218,-5.94 7.042,-6.32c0.31,-0.04 0.623,-0.05 0.946,-0.05l330.516,0c0.482,0 0.951,0.04 1.41,0.11c0.504,0.07 0.995,0.19 1.463,0.34c1.535,0.5 2.843,1.39 3.753,2.52c0.867,1.07 1.371,2.36 1.371,3.74Z" style="fill:#ffb93e;fill-rule:nonzero;"/><path d="M564.911,1371.37l-177.07,0c-3.801,0 -6.936,-2.83 -7.13,-6.37c-0.004,-0.11 -0.009,-0.23 -0.009,-0.34l0,-17.43c0,-0.11 0.005,-0.23 0.009,-0.34c0.177,-3.27 2.873,-5.94 6.286,-6.32c0.274,-0.04 0.557,-0.05 0.844,-0.05l155.326,0c0.004,0.01 0.008,0.03 0.013,0.05c2.488,9.07 8.271,21.61 21.731,30.8Z" style="fill:#ffa412;fill-rule:nonzero;"/><rect x="683.238" y="1340.52" width="3.756" height="30.85" style="fill:#ffa412;fill-rule:nonzero;"/><rect x="670.522" y="1340.52" width="3.756" height="30.85" style="fill:#ffa412;fill-rule:nonzero;"/><rect x="655.273" y="1340.52" width="3.757" height="30.85" style="fill:#ffa412;fill-rule:nonzero;"/><rect x="631.901" y="1340.52" width="3.756" height="30.85" style="fill:#ffa412;fill-rule:nonzero;"/><rect x="607.185" y="1340.52" width="3.756" height="30.85" style="fill:#ffa412;fill-rule:nonzero;"/><rect x="569.294" y="1340.52" width="3.757" height="30.85" style="fill:#ffa412;fill-rule:nonzero;"/><rect x="533.818" y="1340.52" width="3.756" height="30.85" style="fill:#ffa412;fill-rule:nonzero;"/><rect x="502.139" y="1340.52" width="3.757" height="30.85" style="fill:#ffa412;fill-rule:nonzero;"/><rect x="695.341" y="1340.52" width="3.757" height="30.85" style="fill:#ffa412;fill-rule:nonzero;"/><rect x="703.337" y="1340.52" width="3.757" height="30.85" style="fill:#ffa412;fill-rule:nonzero;"/><rect x="711.059" y="1340.52" width="3.756" height="30.85" style="fill:#ffa412;fill-rule:nonzero;"/><path d="M720.625,1340.63l0,30.64c-0.459,0.07 -0.928,0.1 -1.41,0.1l-2.347,0l-0,-30.85l2.347,0c0.482,0 0.951,0.03 1.41,0.11Z" style="fill:#ffa412;fill-rule:nonzero;"/><path d="M725.842,1343.48l-0,24.93c-0.911,1.13 -2.219,2.01 -3.754,2.51l0,-29.95c1.535,0.5 2.843,1.39 3.754,2.51Z" style="fill:#ffa412;fill-rule:nonzero;"/><path d="M702.912,1316.43l-0,17.42c-0,1.39 -0.504,2.68 -1.37,3.75c-0.911,1.13 -2.219,2.02 -3.753,2.52c-0.469,0.15 -0.959,0.27 -1.463,0.34c-0.155,0.02 -0.31,0.04 -0.465,0.06c-0.084,0.01 -0.172,0.01 -0.26,0.02c-0.084,0.01 -0.173,0.01 -0.261,0.02c-0.142,0 -0.283,0.01 -0.424,0.01l-330.517,0c-4.261,0 -7.772,-2.84 -7.988,-6.37c-0.004,-0.12 -0.009,-0.23 -0.009,-0.35l-0,-17.42c-0,-0.12 0.005,-0.23 0.009,-0.35c0.005,-0.09 0.013,-0.19 0.022,-0.28c0.318,-2.84 2.776,-5.19 5.995,-5.88c0.079,-0.02 0.163,-0.03 0.242,-0.05c0.558,-0.1 1.137,-0.16 1.729,-0.16l330.517,0c0.243,0 0.481,0.01 0.715,0.03c0.107,0.01 0.213,0.02 0.319,0.03l0.004,0c0.124,0.01 0.248,0.03 0.372,0.05c0.504,0.07 0.994,0.19 1.463,0.34c1.534,0.5 2.842,1.39 3.753,2.52c0.866,1.07 1.37,2.36 1.37,3.75Z" style="fill:#ffb93e;fill-rule:nonzero;"/><path d="M540.611,1340.57l-177.069,0c-3.802,0 -6.937,-2.84 -7.131,-6.37c-0.004,-0.12 -0.009,-0.23 -0.009,-0.35l-0,-17.42c-0,-0.12 0.005,-0.23 0.009,-0.35c0.005,-0.09 0.013,-0.19 0.022,-0.28c0.288,-2.91 2.573,-5.29 5.539,-5.92c0.102,-0.03 0.203,-0.05 0.305,-0.06c0.411,-0.07 0.831,-0.11 1.265,-0.11l155.325,0c0.017,0.08 0.039,0.15 0.062,0.22c2.506,9.05 8.288,21.46 21.612,30.59c0.022,0.01 0.048,0.03 0.07,0.05Z" style="fill:#ffa412;fill-rule:nonzero;"/><rect x="658.938" y="1309.71" width="3.756" height="30.86" style="fill:#ffa412;fill-rule:nonzero;"/><rect x="646.222" y="1309.71" width="3.757" height="30.86" style="fill:#ffa412;fill-rule:nonzero;"/><rect x="630.974" y="1309.71" width="3.756" height="30.86" style="fill:#ffa412;fill-rule:nonzero;"/><rect x="607.601" y="1309.71" width="3.756" height="30.86" style="fill:#ffa412;fill-rule:nonzero;"/><rect x="582.886" y="1309.71" width="3.756" height="30.86" style="fill:#ffa412;fill-rule:nonzero;"/><rect x="544.995" y="1309.71" width="3.756" height="30.86" style="fill:#ffa412;fill-rule:nonzero;"/><rect x="509.519" y="1309.71" width="3.756" height="30.86" style="fill:#ffa412;fill-rule:nonzero;"/><rect x="477.84" y="1309.71" width="3.756" height="30.86" style="fill:#ffa412;fill-rule:nonzero;"/><rect x="671.042" y="1309.71" width="3.756" height="30.86" style="fill:#ffa412;fill-rule:nonzero;"/><rect x="679.038" y="1309.71" width="3.756" height="30.86" style="fill:#ffa412;fill-rule:nonzero;"/><rect x="686.759" y="1309.71" width="3.757" height="30.86" style="fill:#ffa412;fill-rule:nonzero;"/><path d="M696.326,1309.82l-0,30.64c-0.46,0.07 -0.929,0.11 -1.41,0.11l-2.348,0l-0,-30.86l2.348,0c0.481,0 0.95,0.04 1.41,0.11Z" style="fill:#ffa412;fill-rule:nonzero;"/><path d="M701.542,1312.68l-0,24.92c-0.911,1.13 -2.219,2.02 -3.753,2.51l0,-29.95c1.534,0.5 2.842,1.39 3.753,2.52Z" style="fill:#ffa412;fill-rule:nonzero;"/><path d="M702.218,1285.79l0,17.43c0,1.38 -0.504,2.67 -1.37,3.74c-0.911,1.13 -2.22,2.02 -3.753,2.52c-0.367,0.12 -0.752,0.22 -1.141,0.29l-0.009,0c-0.106,0.02 -0.207,0.04 -0.314,0.05c-0.459,0.07 -0.928,0.11 -1.41,0.11l-330.516,0c-0.349,0 -0.699,-0.02 -1.035,-0.06c-0.132,-0.01 -0.265,-0.03 -0.393,-0.05c-3.594,-0.55 -6.37,-3.13 -6.56,-6.26c-0.005,-0.11 -0.008,-0.23 -0.008,-0.34l-0,-17.43c-0,-0.11 0.003,-0.23 0.008,-0.34c0.217,-3.54 3.727,-6.38 7.988,-6.38l330.516,0c0.213,0 0.425,0.01 0.633,0.03c0.088,0.01 0.181,0.01 0.269,0.02c0.097,0.01 0.199,0.02 0.296,0.03c0.071,0.01 0.142,0.02 0.212,0.03c0.504,0.08 0.995,0.19 1.464,0.35c0.071,0.02 0.136,0.04 0.207,0.07c0.067,0.02 0.137,0.05 0.204,0.07c0.137,0.05 0.269,0.11 0.402,0.17c0.146,0.06 0.292,0.13 0.433,0.2c0.128,0.07 0.252,0.13 0.376,0.2c0.141,0.09 0.279,0.17 0.411,0.26c0.106,0.07 0.208,0.14 0.31,0.21c0.004,0.01 0.013,0.01 0.017,0.02c0.066,0.05 0.137,0.1 0.204,0.15c0.203,0.15 0.398,0.33 0.579,0.5c0.057,0.05 0.11,0.1 0.159,0.16c0.053,0.05 0.102,0.1 0.154,0.16c0.102,0.11 0.204,0.23 0.297,0.34c0.866,1.07 1.37,2.36 1.37,3.75Z" style="fill:#ffb93e;fill-rule:nonzero;"/><path d="M539.917,1309.93l-177.069,0c-0.142,0 -0.284,0 -0.42,-0.01c-0.155,-0.01 -0.305,-0.02 -0.456,-0.04c-3.404,-0.39 -6.078,-3.06 -6.255,-6.32c-0.005,-0.11 -0.008,-0.23 -0.008,-0.34l-0,-17.43c-0,-0.11 0.003,-0.23 0.008,-0.34c0.195,-3.54 3.325,-6.38 7.131,-6.38l155.32,0c0.071,0.26 0.142,0.51 0.217,0.77c2.573,8.94 8.324,20.94 21.214,29.87c0.106,0.08 0.212,0.15 0.318,0.22Z" style="fill:#ffa412;fill-rule:nonzero;"/><rect x="658.243" y="1279.08" width="3.757" height="30.85" style="fill:#ffa412;fill-rule:nonzero;"/><rect x="645.527" y="1279.08" width="3.757" height="30.85" style="fill:#ffa412;fill-rule:nonzero;"/><rect x="630.279" y="1279.08" width="3.757" height="30.85" style="fill:#ffa412;fill-rule:nonzero;"/><rect x="606.906" y="1279.08" width="3.757" height="30.85" style="fill:#ffa412;fill-rule:nonzero;"/><rect x="582.191" y="1279.08" width="3.756" height="30.85" style="fill:#ffa412;fill-rule:nonzero;"/><rect x="544.3" y="1279.08" width="3.757" height="30.85" style="fill:#ffa412;fill-rule:nonzero;"/><rect x="508.824" y="1279.08" width="3.756" height="30.85" style="fill:#ffa412;fill-rule:nonzero;"/><rect x="477.145" y="1279.08" width="3.756" height="30.85" style="fill:#ffa412;fill-rule:nonzero;"/><rect x="670.347" y="1279.08" width="3.757" height="30.85" style="fill:#ffa412;fill-rule:nonzero;"/><rect x="678.343" y="1279.08" width="3.757" height="30.85" style="fill:#ffa412;fill-rule:nonzero;"/><rect x="686.064" y="1279.08" width="3.757" height="30.85" style="fill:#ffa412;fill-rule:nonzero;"/><path d="M695.631,1279.18l-0,30.64c-0.46,0.07 -0.928,0.11 -1.41,0.11l-2.347,0l0,-30.85l2.347,0c0.482,0 0.95,0.03 1.41,0.1Z" style="fill:#ffa412;fill-rule:nonzero;"/><path d="M700.847,1282.04l-0,24.92c-0.91,1.13 -2.219,2.02 -3.753,2.52l-0,-29.95c1.534,0.5 2.843,1.38 3.753,2.51Z" style="fill:#ffa412;fill-rule:nonzero;"/><path d="M719.295,1255.7l-0,17.42c-0,1.39 -0.504,2.68 -1.371,3.75c-0.91,1.13 -2.219,2.02 -3.753,2.51c-0.468,0.16 -0.959,0.27 -1.463,0.35c-0.459,0.07 -0.928,0.11 -1.41,0.11l-330.516,0c-1.326,0 -2.582,-0.28 -3.687,-0.77c-2.339,-1.02 -4.01,-3 -4.275,-5.3c-0.013,-0.1 -0.022,-0.2 -0.026,-0.3c-0.005,-0.12 -0.009,-0.23 -0.009,-0.35l-0,-17.42c-0,-0.12 0.004,-0.23 0.009,-0.35c0.216,-3.53 3.726,-6.37 7.988,-6.37l330.516,0c0.482,0 0.951,0.04 1.41,0.11c0.504,0.07 0.995,0.19 1.463,0.34c1.534,0.5 2.843,1.39 3.753,2.52c0.867,1.07 1.371,2.36 1.371,3.75Z" style="fill:#ffb93e;fill-rule:nonzero;"/><path d="M556.994,1279.84l-177.07,0c-1.185,0 -2.303,-0.28 -3.289,-0.77c-2.091,-1.02 -3.58,-3 -3.815,-5.3c-0.013,-0.1 -0.022,-0.2 -0.026,-0.3c-0.005,-0.12 -0.009,-0.23 -0.009,-0.35l-0,-17.42c-0,-0.12 0.004,-0.23 0.009,-0.35c0.194,-3.53 3.329,-6.37 7.13,-6.37l155.326,0c2.413,8.84 7.947,20.96 20.656,30.09c0.359,0.26 0.721,0.51 1.088,0.77Z" style="fill:#ffa412;fill-rule:nonzero;"/><rect x="675.321" y="1248.98" width="3.756" height="30.86" style="fill:#ffa412;fill-rule:nonzero;"/><rect x="662.605" y="1248.98" width="3.756" height="30.86" style="fill:#ffa412;fill-rule:nonzero;"/><rect x="647.357" y="1248.98" width="3.756" height="30.86" style="fill:#ffa412;fill-rule:nonzero;"/><rect x="623.984" y="1248.98" width="3.756" height="30.86" style="fill:#ffa412;fill-rule:nonzero;"/><rect x="599.268" y="1248.98" width="3.757" height="30.86" style="fill:#ffa412;fill-rule:nonzero;"/><rect x="561.378" y="1248.98" width="3.756" height="30.86" style="fill:#ffa412;fill-rule:nonzero;"/><rect x="525.901" y="1248.98" width="3.757" height="30.86" style="fill:#ffa412;fill-rule:nonzero;"/><rect x="494.223" y="1248.98" width="3.756" height="30.86" style="fill:#ffa412;fill-rule:nonzero;"/><rect x="687.424" y="1248.98" width="3.757" height="30.86" style="fill:#ffa412;fill-rule:nonzero;"/><rect x="695.421" y="1248.98" width="3.756" height="30.86" style="fill:#ffa412;fill-rule:nonzero;"/><rect x="703.142" y="1248.98" width="3.756" height="30.86" style="fill:#ffa412;fill-rule:nonzero;"/><path d="M712.709,1249.09l-0,30.64c-0.46,0.07 -0.929,0.11 -1.411,0.11l-2.347,0l-0,-30.86l2.347,0c0.482,0 0.951,0.04 1.411,0.11Z" style="fill:#ffa412;fill-rule:nonzero;"/><path d="M717.925,1251.95l-0,24.92c-0.911,1.13 -2.219,2.02 -3.753,2.51l-0,-29.95c1.534,0.5 2.842,1.39 3.753,2.52Z" style="fill:#ffa412;fill-rule:nonzero;"/><path d="M746.304,1224.84l0,17.43c0,1.38 -0.504,2.67 -1.37,3.74c-0.911,1.13 -2.219,2.02 -3.753,2.52c-0.469,0.15 -0.959,0.27 -1.463,0.34c-0.46,0.07 -0.928,0.11 -1.41,0.11l-330.516,0c-4.262,0 -7.772,-2.84 -7.989,-6.37c-0.004,-0.12 -0.009,-0.23 -0.009,-0.34l0,-17.43c0,-0.11 0.005,-0.23 0.009,-0.35c0.199,-3.26 3.218,-5.93 7.042,-6.32c0.31,-0.03 0.628,-0.05 0.947,-0.05l330.516,0c0.482,0 0.95,0.04 1.41,0.11c0.504,0.08 0.994,0.19 1.463,0.35c1.534,0.49 2.842,1.38 3.753,2.51c0.866,1.07 1.37,2.36 1.37,3.75Z" style="fill:#ffb93e;fill-rule:nonzero;"/><path d="M584.003,1248.98l-177.069,0c-3.802,0 -6.936,-2.84 -7.131,-6.37c-0.004,-0.12 -0.009,-0.23 -0.009,-0.34l0,-17.43c0,-0.11 0.005,-0.23 0.009,-0.35c0.177,-3.26 2.874,-5.93 6.286,-6.32c0.274,-0.03 0.557,-0.05 0.845,-0.05l155.325,0c0.004,0.02 0.009,0.04 0.013,0.05c2.489,9.08 8.271,21.61 21.731,30.81Z" style="fill:#ffa412;fill-rule:nonzero;"/><rect x="702.332" y="1218.13" width="3.756" height="30.85" style="fill:#ffa412;fill-rule:nonzero;"/><rect x="689.616" y="1218.13" width="3.756" height="30.85" style="fill:#ffa412;fill-rule:nonzero;"/><rect x="674.368" y="1218.13" width="3.756" height="30.85" style="fill:#ffa412;fill-rule:nonzero;"/><rect x="650.995" y="1218.13" width="3.756" height="30.85" style="fill:#ffa412;fill-rule:nonzero;"/><rect x="626.279" y="1218.13" width="3.757" height="30.85" style="fill:#ffa412;fill-rule:nonzero;"/><rect x="588.389" y="1218.13" width="3.756" height="30.85" style="fill:#ffa412;fill-rule:nonzero;"/><rect x="552.912" y="1218.13" width="3.756" height="30.85" style="fill:#ffa412;fill-rule:nonzero;"/><rect x="521.233" y="1218.13" width="3.757" height="30.85" style="fill:#ffa412;fill-rule:nonzero;"/><rect x="714.436" y="1218.13" width="3.756" height="30.85" style="fill:#ffa412;fill-rule:nonzero;"/><rect x="722.432" y="1218.13" width="3.756" height="30.85" style="fill:#ffa412;fill-rule:nonzero;"/><rect x="730.153" y="1218.13" width="3.757" height="30.85" style="fill:#ffa412;fill-rule:nonzero;"/><path d="M739.719,1218.23l-0,30.64c-0.46,0.07 -0.928,0.11 -1.41,0.11l-2.347,0l-0,-30.86l2.347,0c0.482,0 0.95,0.04 1.41,0.11Z" style="fill:#ffa412;fill-rule:nonzero;"/><path d="M744.936,1221.09l-0,24.92c-0.911,1.13 -2.22,2.02 -3.753,2.52l-0,-29.95c1.533,0.49 2.842,1.38 3.753,2.51Z" style="fill:#ffa412;fill-rule:nonzero;"/><path d="M702.912,1194.03l-0,17.43c-0,1.39 -0.504,2.67 -1.37,3.75c-0.911,1.13 -2.219,2.01 -3.753,2.51c-0.469,0.16 -0.959,0.27 -1.463,0.35c-0.155,0.02 -0.31,0.04 -0.465,0.05c-0.123,0.02 -0.247,0.03 -0.371,0.03c-0.062,0.01 -0.124,0.01 -0.186,0.02l-330.905,0c-4.261,0 -7.772,-2.83 -7.988,-6.37c-0.004,-0.11 -0.009,-0.23 -0.009,-0.34l-0,-17.43c-0,-0.11 0.005,-0.23 0.009,-0.34c0.216,-3.54 3.727,-6.37 7.988,-6.37l330.517,0c0.141,0 0.282,0 0.424,0.01c0.336,0.01 0.663,0.05 0.986,0.09c0.504,0.08 0.994,0.19 1.463,0.35c0.238,0.08 0.473,0.16 0.694,0.26c0.142,0.06 0.278,0.12 0.411,0.19c0.013,0 0.031,0.01 0.044,0.02c0.137,0.06 0.27,0.13 0.402,0.21c0.027,0.01 0.049,0.03 0.067,0.04c0.123,0.06 0.243,0.14 0.358,0.22c0.283,0.17 0.548,0.37 0.796,0.58c0.079,0.06 0.154,0.13 0.225,0.2c0.013,0.01 0.027,0.02 0.04,0.03c0.049,0.04 0.092,0.08 0.137,0.13c0.009,0.01 0.017,0.02 0.026,0.02c0.08,0.08 0.159,0.16 0.235,0.25c0.11,0.12 0.216,0.24 0.318,0.36c0.866,1.08 1.37,2.36 1.37,3.75Z" style="fill:#ffb93e;fill-rule:nonzero;"/><path d="M540.611,1218.17l-177.069,0c-3.802,0 -6.937,-2.83 -7.131,-6.37c-0.004,-0.11 -0.009,-0.23 -0.009,-0.34l-0,-17.43c-0,-0.11 0.005,-0.23 0.009,-0.34c0.194,-3.54 3.329,-6.37 7.131,-6.37l155.325,0c0.062,0.23 0.128,0.47 0.203,0.71c2.577,9 8.386,21.13 21.471,30.09c0.022,0.02 0.048,0.04 0.07,0.05Z" style="fill:#ffa412;fill-rule:nonzero;"/><rect x="658.938" y="1187.32" width="3.756" height="30.85" style="fill:#ffa412;fill-rule:nonzero;"/><rect x="646.222" y="1187.32" width="3.757" height="30.85" style="fill:#ffa412;fill-rule:nonzero;"/><rect x="630.974" y="1187.32" width="3.756" height="30.85" style="fill:#ffa412;fill-rule:nonzero;"/><rect x="607.601" y="1187.32" width="3.756" height="30.85" style="fill:#ffa412;fill-rule:nonzero;"/><rect x="582.886" y="1187.32" width="3.756" height="30.85" style="fill:#ffa412;fill-rule:nonzero;"/><rect x="544.995" y="1187.32" width="3.756" height="30.85" style="fill:#ffa412;fill-rule:nonzero;"/><rect x="509.519" y="1187.32" width="3.756" height="30.85" style="fill:#ffa412;fill-rule:nonzero;"/><rect x="477.84" y="1187.32" width="3.756" height="30.85" style="fill:#ffa412;fill-rule:nonzero;"/><rect x="671.042" y="1187.32" width="3.756" height="30.85" style="fill:#ffa412;fill-rule:nonzero;"/><rect x="679.038" y="1187.32" width="3.756" height="30.85" style="fill:#ffa412;fill-rule:nonzero;"/><rect x="686.759" y="1187.32" width="3.757" height="30.85" style="fill:#ffa412;fill-rule:nonzero;"/><path d="M696.326,1187.42l-0,30.65c-0.46,0.07 -0.929,0.1 -1.41,0.1l-2.348,0l-0,-30.85l2.348,0c0.481,0 0.95,0.03 1.41,0.1Z" style="fill:#ffa412;fill-rule:nonzero;"/><path d="M701.542,1190.28l-0,24.93c-0.911,1.13 -2.219,2.01 -3.753,2.51l0,-29.95c1.534,0.5 2.842,1.39 3.753,2.51Z" style="fill:#ffa412;fill-rule:nonzero;"/><path d="M727.212,1163.89l-0,17.43c-0,1.38 -0.504,2.67 -1.371,3.74c-0.91,1.13 -2.218,2.02 -3.753,2.52c-0.468,0.15 -0.959,0.27 -1.463,0.34c-0.459,0.07 -0.928,0.11 -1.41,0.11l-330.516,0c-1.282,0 -2.498,-0.26 -3.572,-0.71c-2.409,-1.02 -4.133,-3.03 -4.394,-5.39c-0.009,-0.08 -0.018,-0.18 -0.022,-0.27c-0.004,-0.12 -0.009,-0.23 -0.009,-0.34l0,-17.43c0,-0.12 0.005,-0.23 0.009,-0.35c0.199,-3.27 3.218,-5.93 7.042,-6.32c0.31,-0.03 0.623,-0.05 0.946,-0.05l330.516,0c0.482,0 0.951,0.04 1.41,0.11c0.504,0.08 0.995,0.19 1.463,0.35c1.535,0.49 2.843,1.38 3.753,2.51c0.867,1.07 1.371,2.36 1.371,3.75Z" style="fill:#ffb93e;fill-rule:nonzero;"/><path d="M564.911,1188.03l-177.07,0c-1.145,0 -2.228,-0.26 -3.187,-0.71c-2.153,-1.02 -3.687,-3.03 -3.921,-5.39c-0.009,-0.08 -0.018,-0.18 -0.022,-0.27c-0.004,-0.12 -0.009,-0.23 -0.009,-0.34l0,-17.43c0,-0.12 0.005,-0.23 0.009,-0.35c0.177,-3.26 2.873,-5.93 6.286,-6.32c0.274,-0.03 0.557,-0.05 0.844,-0.05l155.326,0c0.004,0.02 0.008,0.04 0.013,0.05c2.422,8.85 7.979,20.98 20.715,30.1c0.331,0.24 0.671,0.48 1.016,0.71Z" style="fill:#ffa412;fill-rule:nonzero;"/><rect x="683.238" y="1157.17" width="3.756" height="30.86" style="fill:#ffa412;fill-rule:nonzero;"/><rect x="670.522" y="1157.17" width="3.756" height="30.86" style="fill:#ffa412;fill-rule:nonzero;"/><rect x="655.273" y="1157.17" width="3.757" height="30.86" style="fill:#ffa412;fill-rule:nonzero;"/><rect x="631.901" y="1157.17" width="3.756" height="30.86" style="fill:#ffa412;fill-rule:nonzero;"/><rect x="607.185" y="1157.17" width="3.756" height="30.86" style="fill:#ffa412;fill-rule:nonzero;"/><rect x="569.294" y="1157.17" width="3.757" height="30.86" style="fill:#ffa412;fill-rule:nonzero;"/><rect x="533.818" y="1157.17" width="3.756" height="30.86" style="fill:#ffa412;fill-rule:nonzero;"/><rect x="502.139" y="1157.17" width="3.757" height="30.86" style="fill:#ffa412;fill-rule:nonzero;"/><rect x="695.341" y="1157.17" width="3.757" height="30.86" style="fill:#ffa412;fill-rule:nonzero;"/><rect x="703.337" y="1157.17" width="3.757" height="30.86" style="fill:#ffa412;fill-rule:nonzero;"/><rect x="711.059" y="1157.17" width="3.756" height="30.86" style="fill:#ffa412;fill-rule:nonzero;"/><path d="M720.625,1157.28l0,30.64c-0.459,0.07 -0.928,0.11 -1.41,0.11l-2.347,0l-0,-30.86l2.347,0c0.482,0 0.951,0.04 1.41,0.11Z" style="fill:#ffa412;fill-rule:nonzero;"/><path d="M725.842,1160.14l-0,24.92c-0.911,1.13 -2.219,2.02 -3.754,2.52l0,-29.95c1.535,0.49 2.843,1.38 3.754,2.51Z" style="fill:#ffa412;fill-rule:nonzero;"/><path d="M737.556,1133.08l-0,17.43c-0,1.39 -0.504,2.67 -1.37,3.75c-0.911,1.12 -2.22,2.01 -3.753,2.51c-0.469,0.16 -0.96,0.27 -1.464,0.35c-0.154,0.02 -0.309,0.04 -0.464,0.05c-0.084,0.01 -0.172,0.02 -0.26,0.03c-0.084,0 -0.173,0.01 -0.262,0.01c-0.141,0.01 -0.282,0.01 -0.424,0.01l-330.516,0c-4.261,0 -7.772,-2.83 -7.988,-6.37c-0.005,-0.11 -0.009,-0.23 -0.009,-0.34l0,-17.43c0,-0.11 0.004,-0.23 0.009,-0.34c0.216,-3.54 3.727,-6.37 7.988,-6.37l330.516,0c0.482,0 0.951,0.03 1.41,0.1c0.504,0.08 0.995,0.19 1.464,0.35c1.533,0.5 2.842,1.38 3.753,2.51c0.866,1.08 1.37,2.36 1.37,3.75Z" style="fill:#ffb93e;fill-rule:nonzero;"/><path d="M575.255,1157.22l-177.069,0c-3.802,0 -6.936,-2.83 -7.131,-6.37c-0.005,-0.11 -0.009,-0.23 -0.009,-0.34l0,-17.43c0,-0.11 0.004,-0.23 0.009,-0.34c0.195,-3.54 3.329,-6.37 7.131,-6.37l155.325,0c2.475,9.07 8.239,21.6 21.674,30.8c0.022,0.02 0.048,0.04 0.07,0.05Z" style="fill:#ffa412;fill-rule:nonzero;"/><rect x="693.582" y="1126.37" width="3.756" height="30.85" style="fill:#ffa412;fill-rule:nonzero;"/><rect x="680.866" y="1126.37" width="3.757" height="30.85" style="fill:#ffa412;fill-rule:nonzero;"/><rect x="665.618" y="1126.37" width="3.757" height="30.85" style="fill:#ffa412;fill-rule:nonzero;"/><rect x="642.245" y="1126.37" width="3.756" height="30.85" style="fill:#ffa412;fill-rule:nonzero;"/><rect x="617.529" y="1126.37" width="3.757" height="30.85" style="fill:#ffa412;fill-rule:nonzero;"/><rect x="579.639" y="1126.37" width="3.757" height="30.85" style="fill:#ffa412;fill-rule:nonzero;"/><rect x="544.162" y="1126.37" width="3.756" height="30.85" style="fill:#ffa412;fill-rule:nonzero;"/><rect x="512.483" y="1126.37" width="3.758" height="30.85" style="fill:#ffa412;fill-rule:nonzero;"/><rect x="705.686" y="1126.37" width="3.756" height="30.85" style="fill:#ffa412;fill-rule:nonzero;"/><rect x="713.682" y="1126.37" width="3.756" height="30.85" style="fill:#ffa412;fill-rule:nonzero;"/><rect x="721.403" y="1126.37" width="3.757" height="30.85" style="fill:#ffa412;fill-rule:nonzero;"/><path d="M730.97,1126.47l-0,30.64c-0.46,0.08 -0.928,0.11 -1.41,0.11l-2.348,0l-0,-30.85l2.348,0c0.482,0 0.95,0.03 1.41,0.1Z" style="fill:#ffa412;fill-rule:nonzero;"/><path d="M736.186,1129.33l-0,24.93c-0.911,1.12 -2.219,2.01 -3.753,2.51l-0,-29.95c1.534,0.5 2.842,1.38 3.753,2.51Z" style="fill:#ffa412;fill-rule:nonzero;"/><path d="M214.799,1306.18c0,-86.76 70.328,-157.08 157.082,-157.08c86.754,0 157.081,70.32 157.081,157.08c-0,86.75 -70.327,157.08 -157.081,157.08c-86.754,0 -157.082,-70.33 -157.082,-157.08Z" style="fill:#e2810e;fill-rule:nonzero;"/><path d="M201.096,1306.18c0,-86.76 70.327,-157.08 157.081,-157.08c86.754,0 157.082,70.32 157.082,157.08c-0,86.75 -70.328,157.08 -157.082,157.08c-86.754,0 -157.081,-70.33 -157.081,-157.08Z" style="fill:#ffb93e;fill-rule:nonzero;"/><path d="M358.177,1173.45c-74.208,0 -134.58,60.38 -134.58,134.58c-0,74.21 60.372,134.58 134.58,134.58c74.208,0 134.581,-60.37 134.581,-134.58c-0,-74.2 -60.373,-134.58 -134.581,-134.58Zm0,277.7c-38.228,0 -74.168,-14.89 -101.199,-41.92c-27.032,-27.03 -41.919,-62.97 -41.919,-101.2c-0,-38.23 14.887,-74.16 41.919,-101.2c27.031,-27.03 62.971,-41.92 101.199,-41.92c38.229,0 74.169,14.89 101.2,41.92c27.032,27.04 41.918,62.97 41.918,101.2c-0,38.23 -14.886,74.17 -41.918,101.2c-27.031,27.03 -62.971,41.92 -101.2,41.92Z" style="fill:#ffa412;fill-rule:nonzero;"/><path d="M377.88,1349.57c0.367,-3.09 0.252,-5.85 -0.338,-8.31c-0.592,-2.45 -1.764,-4.76 -3.513,-6.9c-1.752,-2.15 -4.094,-4.21 -7.027,-6.2c-2.933,-1.99 -6.562,-4.02 -10.888,-6.1c-7.432,-3.64 -14.135,-7.32 -20.109,-11.05c-5.977,-3.73 -10.987,-7.8 -15.034,-12.23c-4.048,-4.43 -7.008,-9.4 -8.881,-14.92c-1.873,-5.51 -2.382,-11.87 -1.527,-19.07c0.741,-6.25 2.523,-11.81 5.35,-16.69c2.824,-4.88 6.521,-8.99 11.087,-12.32c4.568,-3.34 9.861,-5.86 15.881,-7.57c6.018,-1.7 12.628,-2.47 19.827,-2.28l2.798,-23.59l18.987,2.25l-2.838,23.92c6.698,1.69 12.655,4.22 17.87,7.6c5.214,3.37 9.503,7.46 12.867,12.26c3.359,4.79 5.739,10.27 7.134,16.44c1.393,6.16 1.655,12.92 0.784,20.27l-34.294,-4.07c1.046,-8.82 -0.13,-15.65 -3.526,-20.49c-3.399,-4.83 -8.38,-7.64 -14.946,-8.42c-3.56,-0.42 -6.686,-0.29 -9.373,0.4c-2.69,0.68 -4.966,1.79 -6.833,3.32c-1.866,1.53 -3.336,3.42 -4.405,5.68c-1.07,2.26 -1.766,4.75 -2.089,7.47c-0.322,2.72 -0.219,5.23 0.311,7.52c0.528,2.3 1.651,4.5 3.368,6.61c1.715,2.1 4.077,4.17 7.085,6.2c3.008,2.04 6.781,4.22 11.319,6.55c7.331,3.77 13.966,7.54 19.898,11.3c5.931,3.76 10.919,7.87 14.962,12.34c4.042,4.46 7,9.46 8.873,14.97c1.872,5.51 2.386,11.83 1.54,18.96c-0.767,6.47 -2.583,12.14 -5.448,17.02c-2.865,4.87 -6.578,8.94 -11.135,12.2c-4.559,3.26 -9.881,5.68 -15.966,7.27c-6.084,1.59 -12.726,2.29 -19.924,2.11l-2.603,21.93l-18.868,-2.23l2.589,-21.83c-6.489,-1.44 -12.668,-3.63 -18.535,-6.56c-5.87,-2.93 -10.932,-6.75 -15.186,-11.47c-4.253,-4.71 -7.43,-10.4 -9.528,-17.06c-2.098,-6.66 -2.624,-14.39 -1.578,-23.21l34.295,4.07c-0.62,5.21 -0.405,9.66 0.646,13.32c1.048,3.66 2.674,6.69 4.879,9.07c2.204,2.39 4.817,4.19 7.843,5.41c3.024,1.21 6.157,2.01 9.403,2.4c3.717,0.44 7.037,0.35 9.959,-0.27c2.921,-0.63 5.432,-1.67 7.532,-3.14c2.1,-1.46 3.761,-3.29 4.985,-5.5c1.224,-2.2 1.997,-4.66 2.32,-7.38Z" style="fill:#ffa412;fill-rule:nonzero;"/><path d="M647.023,1090.49c-16.084,28 -36.314,38.8 -36.314,38.8l-84.162,0c-0,0 132.746,-60.15 120.476,-38.8Z" style="fill:#233862;fill-rule:nonzero;"/><path d="M582.384,1307.09c-2.194,2.51 -2.473,5.32 -1.387,8.32c0.001,0.01 0.008,0.03 0.021,0.04c2.007,5.55 8.639,11.74 16.342,17.93c0.984,0.79 1.86,1.51 2.623,2.18c0.2,0.18 0.4,0.35 0.589,0.53c0.155,0.14 0.304,0.28 0.453,0.41c7.184,6.62 4.48,8.14 17.385,21.58c14.715,15.31 24.847,15.58 27.729,14.19c2.438,-1.19 -2.516,-9.31 -8.005,-18.44c-0.266,-0.44 -0.527,-0.88 -0.8,-1.33c-0.731,-1.21 -1.458,-2.44 -2.183,-3.66c-6.433,-10.99 -4.781,-16.14 -3.256,-32.49c1.239,-13.28 20.666,-74.21 20.666,-74.21l-28.199,-4.86c-0,0 -8.493,48.52 -17.849,55.99c-5.004,3.98 -10.604,4.03 -15.413,6.98c-0.34,0.21 -0.674,0.42 -1,0.64c-2.733,1.81 -5.517,3.68 -7.716,6.2Z" style="fill:#ffb27d;fill-rule:nonzero;"/><path d="M582.384,1307.09c-2.194,2.51 -2.473,5.32 -1.387,8.32c0.001,0.01 0.008,0.03 0.021,0.04c2.458,5.54 8.923,11.7 16.369,17.87c0.973,0.81 1.832,1.55 2.596,2.24c0.2,0.18 0.4,0.35 0.589,0.53c0.155,0.14 0.304,0.28 0.453,0.41c7.184,6.62 4.48,8.14 17.385,21.58c14.715,15.31 24.847,15.58 27.729,14.19c2.438,-1.19 -2.516,-9.31 -8.005,-18.44c-2.865,-1.05 -16.171,-6.45 -26.231,-19.33c-8.861,-11.3 -14.77,-25.83 -20.803,-34.25c-0.34,0.21 -0.674,0.42 -1,0.64c-2.733,1.81 -5.517,3.68 -7.716,6.2Z" style="fill:#233862;fill-rule:nonzero;"/><path d="M809.769,1289.47c1.741,8.71 14.152,7.26 28.012,3.87c13.86,-3.39 10.569,0.64 30.3,-1.55c19.72,-2.18 25.7,-9.54 26.3,-12.47c0.54,-2.6 -9.21,-3.52 -19.66,-4.72c-1.32,-0.15 -2.64,-0.32 -3.96,-0.48c-11.81,-1.48 -20.45,-9.1 -31.171,-15.35c-10.159,-5.93 -25.319,-30.07 -25.319,-30.07l-27.056,2.14c-0,0 14.198,21.57 19.69,30.94c3.23,5.52 3.058,12.81 2.656,18.44c-0.21,3.06 -0.409,6.19 0.208,9.25Z" style="fill:#ffb27d;fill-rule:nonzero;"/><path d="M837.781,1293.34c13.86,-3.39 10.569,0.64 30.3,-1.55c19.72,-2.18 25.7,-9.54 26.3,-12.47c0.54,-2.6 -9.21,-3.52 -19.66,-4.72l-0.1,0.2c-0,0 -11.83,8.39 -28.25,8.78c-13.39,0.32 -27.57,-3.51 -36.81,-3.36c-0.21,3.06 -0.409,6.19 0.208,9.25c1.741,8.71 14.152,7.26 28.012,3.87Z" style="fill:#233862;fill-rule:nonzero;"/><path d="M706.081,1116.47l-25.293,68.06l-33.021,88.87c-0,0 -8.962,0.86 -17.543,-1.61c-7.901,-2.28 -16.966,-8.26 -16.966,-8.26c-0,0 9.169,-95.41 26.274,-150.19c4.383,-14.06 9.296,-25.43 14.717,-31.83c26.516,-31.34 51.832,34.96 51.832,34.96Z" style="fill:#233862;fill-rule:nonzero;"/><path d="M680.365,1008.38c-16.571,-5.35 -63.831,1.52 -111.306,10.81l-9.941,-16.4l-102.545,-8c-0,0 -33.838,75.04 -15.312,122.85c2.722,7.03 9.462,9.99 18.685,10.14c0.004,0 0.007,0.01 0.011,0.01c-0,0 61.189,1.5 81.007,1.5c50.997,0 107.928,-35.06 115.292,-36.53c12.055,-2.41 16.876,21.7 28.931,47.01c12.054,25.32 113.311,112.11 113.311,112.11c-0,0 15.563,0.15 21.993,-2.26c6.91,-2.59 9.44,-5.96 9.44,-5.96c-0,0 -112.198,-223.23 -149.566,-235.28Z" style="fill:#2b478b;fill-rule:nonzero;"/><path d="M548.224,701.673c-7.687,-4.576 -15.179,-5.239 -19.717,-5.092c-3.275,0.105 -6.547,-0.207 -9.795,-0.644c-38.858,-5.221 -62.245,51.243 -63.62,68.355c-2.535,31.53 -19.217,36.341 -42.699,56.09c-47.084,39.6 -33.277,85.62 -7.532,102.71c15.448,10.26 42.676,0 42.676,0c0.384,0.27 74.463,-41.41 110.979,-61.51c54.742,-7.79 11.7,-146.816 -10.292,-159.909Z" style="fill:#233862;fill-rule:nonzero;"/><path d="M527.909,844.462c0.161,0.11 -17.966,6.29 -30.087,0.93c-11.403,-5.04 -20.041,-23.8 -19.872,-23.81c5.187,-0.24 10.882,-4.78 15.267,-34.54l2.21,0.8l37.138,13.36c0,0 -2.691,11.92 -4.431,23.26c-1.466,9.53 -2.253,18.66 -0.225,20Z" style="fill:#ffb27d;fill-rule:nonzero;"/><path d="M532.565,801.202c0,0 -2.691,11.92 -4.431,23.26c-21.332,-3.84 -29.704,-25.09 -32.707,-36.62l37.138,13.36Z" style="fill:#ed975d;fill-rule:nonzero;"/><path d="M538.096,813.032c0,0 -50.812,-6.82 -46.078,-38.4c4.734,-31.577 1.364,-53.724 34.006,-50.705c32.643,3.019 37.125,16.011 38.109,26.936c0.983,10.919 -12.698,63.129 -26.037,62.169Z" style="fill:#ffb27d;fill-rule:nonzero;"/><path d="M562.281,733.554c0,0 -32.528,28.028 -54.653,30.288c-22.125,2.26 -30.501,-4.84 -30.501,-4.84c0,0 13.041,-10.827 20.889,-28.302c2.314,-5.151 7.2,-8.685 12.825,-9.17c15.799,-1.364 45.748,-1.986 51.44,12.024Z" style="fill:#233862;fill-rule:nonzero;"/><path d="M541.948,731.043c-0,0 10.882,10.521 14.308,18.325c3.307,7.534 4.299,25.544 1.665,32.694c0,0 16.955,-32.965 7.356,-48.982c-10.178,-16.984 -23.329,-2.037 -23.329,-2.037Z" style="fill:#233862;fill-rule:nonzero;"/><path d="M570.696,919.312c-1.536,102.86 -0.422,81.37 -11.673,91.13c-2.711,2.35 -10.333,3.75 -20.363,4.41c-31.539,2.09 -86.982,-3.1 -89.09,-8.93c-7.275,-20.17 -2.139,-26.44 -8.209,-57.31c-0.632,-3.29 -1.416,-6.84 -2.335,-10.71c-5.06,-21.21 -9.985,-28.42 7.968,-62.49c16.282,-30.86 33.196,-55.91 34.717,-55.01c42.956,25.5 46.42,4.07 46.42,4.07c-0,0 43.318,44.67 42.565,94.84Z" style="fill:#fff;fill-rule:nonzero;"/><path d="M680.788,1184.53l-33.021,88.87c-0,0 -8.962,0.86 -17.543,-1.61c-7.901,-2.28 -16.966,-8.26 -16.966,-8.26c-0,0 9.169,-95.41 26.274,-150.19l41.256,71.19Z" style="fill:#2b478b;fill-rule:nonzero;"/><path d="M528.134,824.462c-0,0 44.2,7.5 49.39,26.53c5.19,19.03 35.734,130.91 35.734,130.91c-0,0 -22.47,4.03 -32.85,-6.35c-10.381,-10.38 -36.12,-96.31 -36.12,-96.31l-16.154,-54.78Z" style="fill:#fff;fill-rule:nonzero;"/><path d="M538.66,1014.85c-31.539,2.09 -86.982,-3.1 -89.09,-8.93c-7.275,-20.17 -2.139,-26.44 -8.209,-57.31l15.212,-42.84c-0,0 -2.515,47.7 11.552,60.25c14.053,12.55 57.597,24.22 64.435,34.7c3.298,5.03 5.467,10.08 6.1,14.13Z" style="fill:#ebf3ff;fill-rule:nonzero;"/><path d="M502.523,994.792c0,0 31.116,-6.93 36.137,-4.17c5.02,2.76 17.291,12.82 18.827,16.32c1.536,3.5 -11.178,-2.66 -15.313,-3.77c-2.678,-0.72 -9.728,1.73 -13.217,2.9c-14.686,4.89 -23.684,2.37 -23.684,2.37l-2.75,-13.65Z" style="fill:#ffb27d;fill-rule:nonzero;"/><path d="M481.685,820.382c-0,0 -41.78,2.57 -56.243,22.75c-20.359,28.39 -60.748,149.41 -37.601,165.55c26.068,18.18 118.638,4.76 118.638,4.76c0,0 3.08,-14.4 -1.206,-21.37c-4.286,-6.96 -73.937,-18.21 -77.152,-21.43c-3.214,-3.21 40.183,-62.69 40.183,-72.33c0,-9.64 13.381,-77.93 13.381,-77.93Z" style="fill:#fff;fill-rule:nonzero;"/><path d="M540.166,999.282c0,0 6.52,8.41 8.657,9.41c2.137,1.01 3.518,0.76 3.518,0.76l-4.393,-7.91l-7.782,-2.26Z" style="fill:#ffb27d;fill-rule:nonzero;"/><path d="M538.66,990.622l18.955,9.2c-0,0 -0.806,1.32 -3.14,1.22c-2.335,-0.11 -8.222,-2.26 -8.222,-2.26l-7.593,-8.16Z" style="fill:#ffb27d;fill-rule:nonzero;"/><path d="M548.823,1021.58l149.94,0l45.106,-112.17l-149.71,0l-45.336,112.17Z" style="fill:#f99746;fill-rule:nonzero;"/><path d="M700.521,1017.21l-197.998,0l0,4.37l196.24,0l1.758,-4.37Z" style="fill:#ed7d2b;fill-rule:nonzero;"/><path d="M660.913,965.492c1.131,-3.94 -1.149,-7.13 -5.092,-7.13c-3.943,0 -8.055,3.19 -9.186,7.13c-1.131,3.95 1.149,7.14 5.092,7.14c3.943,0 8.056,-3.19 9.186,-7.14Z" style="fill:#fff;fill-rule:nonzero;"/><path d="M1409.22,1032.32c-0.02,-0.6 3.31,-68.61 -29.55,-84.26l2.32,-2.22c15.05,5.25 31.74,21.5 38.41,44.44c4.96,17.05 1.19,20.79 1.21,21.43l-12.39,20.61Z" style="fill:#a4c8fc;fill-rule:nonzero;"/><path d="M1323.42,897.612c0,0 -3.75,34.99 14.57,49.87c18.33,14.88 51.8,4.02 51.8,4.02c0,0 3.75,-34.98 -14.58,-49.86c-18.32,-14.88 -51.79,-4.03 -51.79,-4.03Z" style="fill:#a4c8fc;fill-rule:nonzero;"/><path d="M1403.61,1159.89c-0.62,-3.42 -12.47,-83.51 17.85,-172.77c29.12,-85.76 12.99,-158.47 12.87,-159.19l21.43,0c0.55,3.1 2.04,74.47 -20.79,172.28c-20.53,88.01 17.82,159.68 9.65,159.68l-41.01,0Z" style="fill:#a4c8fc;fill-rule:nonzero;"/><path d="M1448.62,923.452c0.11,-0.46 10.34,-59.14 37.86,-65.82c-12.3,1.6 -27.93,10.41 -36.67,26.81c-6.5,12.19 -4.22,15.65 -4.34,16.13l3.15,22.88Z" style="fill:#a4c8fc;fill-rule:nonzero;"/><path d="M1338.48,767.792c-0,0 -29.69,-41.911 -63.4,-54.217c0,0 12.61,98.307 -5.83,99.527c-18.44,1.21 -6.15,-110.56 -6.15,-110.56c-0,0 -87.83,-48.764 -123.49,-47.409c-0,0 50.49,98.231 32.32,94.871c-18.17,-3.361 -75.45,-103.138 -75.45,-103.138c-0,0 -91.66,-22.587 -109.75,31.451c-18.08,54.037 4.33,82.895 17.86,87.135c13.52,4.24 101.67,8.25 98.72,19.561c-2.96,11.299 -63.52,26.119 -96.09,13.88c-0,0 31.31,92.519 79.62,90.759c48.32,-1.76 64.93,-30.63 94.81,-31.18c29.88,-0.55 51.14,8.74 35.8,15.87c-15.34,7.14 -65.36,-1.19 -90.58,17.82c-25.22,19.02 -45.4,30.46 -1.32,42.23c44.07,11.76 110.6,-1.52 142.17,-22.56c0.09,-0.06 25.85,-2.11 46.13,117.13c7.82,45.97 1.81,114.16 1.81,114.16l16.36,-2.5c9.07,-133.65 -39.17,-244.77 -39.17,-244.77c-0,0 81.85,-60.51 45.63,-128.06Z" style="fill:#a4c8fc;fill-rule:nonzero;"/><path d="M1606.14,944.192c-0,0 -98.61,-41.43 -63.31,-116.8c0,0 29.72,-47.2 65.55,-62.52c-0,0 -7.89,107.33 12.18,107.56c20.06,0.24 0.16,-120.231 0.16,-120.231c-0,0 92.36,-58.041 131.11,-58.67c0,0 -48.97,109.482 -29.47,104.771c19.51,-4.72 75.75,-116.271 75.75,-116.271c-0,0 98.049,-29.883 120.84,27.645c22.8,57.526 0.19,90.146 -14.23,95.526c-14.41,5.39 -109.76,14.93 -105.89,27.02c3.88,12.08 70.41,24.59 105.01,9.4c0,0 -28.51,102.16 -81,103.09c-52.49,0.93 -72.2,-29.4 -104.63,-28.23c-32.43,1.17 -54.94,12.48 -37.89,19.31c17.06,6.84 70.8,-5.14 99.26,14c28.47,19.13 51.03,30.35 3.93,45.7c-47.11,15.35 -134.35,18.97 -155.86,-16.16l-21.51,-35.14Z" style="fill:#d2e3fc;fill-rule:nonzero;"/><path d="M1875.31,733.401c0,0 -250.13,113.471 -269.17,210.791c-0,0 5.99,41.9 -14.51,93.06l2.1,18.55c-0,0 20.06,-66.14 33.92,-76.47c0,0 -67.35,-75.03 247.66,-245.931Z" style="fill:#a4c8fc;fill-rule:nonzero;"/><path d="M1591.63,1037.25c-0,0 -33.16,65.34 -1.95,136.77l9.98,-3.93c0,0 -19.22,-80.4 -2.92,-123.77c16.31,-43.37 -5.11,-9.07 -5.11,-9.07Z" style="fill:#a4c8fc;fill-rule:nonzero;"/><path d="M1230.17,495.379c40.41,43.007 19.39,128.418 19.39,128.418c0,0 -86.55,15.68 -126.97,-27.326c-40.41,-43.006 -19.39,-128.418 -19.39,-128.418c0,0 86.55,-15.681 126.97,27.326Z" style="fill:#a4c8fc;fill-rule:nonzero;"/><path d="M1230.17,495.379c40.41,43.007 19.39,128.418 19.39,128.418l-146.36,-155.744c0,0 86.55,-15.681 126.97,27.326Z" style="fill:#d2e3fc;fill-rule:nonzero;"/><path d="M1751.4,659.192c-21.1,24.432 -68.75,17.861 -68.75,17.861c0,0 -13.46,-46.185 7.63,-70.617c21.09,-24.432 68.75,-17.861 68.75,-17.861c0,0 13.46,46.185 -7.63,70.617Z" style="fill:#a4c8fc;fill-rule:nonzero;"/><path d="M1502.13,874.112c-14.14,3.92 -30.51,-10.58 -30.51,-10.58c-0,0 6.56,-20.86 20.7,-24.78c14.13,-3.93 30.5,10.58 30.5,10.58c0,0 -6.56,20.86 -20.69,24.78Z" style="fill:#a4c8fc;fill-rule:nonzero;"/><path d="M1252.46,415.619c9.69,22.98 -11.19,53.73 -11.19,53.73c-0,0 -36.6,-6.51 -46.29,-29.491c-9.69,-22.98 11.19,-53.73 11.19,-53.73c0,0 36.6,6.511 46.29,29.491Z" style="fill:#a4c8fc;fill-rule:nonzero;"/><path d="M1233.1,636.833c-14.88,-118.174 68.86,-226.036 187.04,-240.915c118.17,-14.88 226.03,68.858 240.91,187.032c14.88,118.175 -68.86,226.032 -187.03,240.912c-118.18,14.88 -226.04,-68.85 -240.92,-187.029Z" style="fill:#e2810e;fill-rule:nonzero;"/><path d="M1214.44,639.183c-14.88,-118.174 68.85,-226.036 187.03,-240.915c118.17,-14.879 226.03,68.858 240.91,187.033c14.88,118.174 -68.85,226.031 -187.03,240.911c-118.17,14.88 -226.03,-68.85 -240.91,-187.029Z" style="fill:#ffb93e;fill-rule:nonzero;"/><path d="M1405.65,431.447c-101.09,12.728 -172.97,105.321 -160.25,206.405c12.73,101.085 105.33,172.97 206.41,160.24c101.09,-12.73 172.97,-105.319 160.24,-206.404c-12.73,-101.084 -105.32,-172.968 -206.4,-160.241Zm47.62,378.275c-52.07,6.56 -103.58,-7.56 -145.04,-39.74c-41.46,-32.187 -67.9,-78.592 -74.46,-130.666c-6.55,-52.073 7.56,-103.583 39.75,-145.041c32.18,-41.458 78.59,-67.901 130.66,-74.458c52.08,-6.556 103.59,7.558 145.04,39.744c41.46,32.185 67.9,78.589 74.46,130.662c6.56,52.074 -7.56,103.585 -39.74,145.043c-32.19,41.456 -78.59,67.896 -130.67,74.456Z" style="fill:#ffa412;fill-rule:nonzero;"/><path d="M1462.69,667.973c-0.03,-4.267 -0.66,-8.019 -1.88,-11.262c-1.23,-3.243 -3.22,-6.176 -5.97,-8.798c-2.76,-2.621 -6.3,-5.035 -10.64,-7.24c-4.34,-2.202 -9.63,-4.349 -15.88,-6.439c-10.74,-3.682 -20.51,-7.552 -29.28,-11.602c-8.79,-4.054 -16.31,-8.749 -22.58,-14.09c-6.27,-5.341 -11.16,-11.604 -14.66,-18.793c-3.49,-7.189 -5.28,-15.762 -5.35,-25.719c-0.06,-8.634 1.41,-16.52 4.43,-23.656c3.01,-7.13 7.34,-13.359 12.99,-18.685c5.65,-5.323 12.42,-9.665 20.33,-13.024c7.91,-3.357 16.78,-5.531 26.62,-6.514l-0.24,-32.614l26.25,-0.188l0.24,33.07c9.41,1.154 17.96,3.583 25.65,7.285c7.68,3.704 14.22,8.535 19.62,14.49c5.4,5.96 9.59,13.015 12.54,21.172c2.96,8.16 4.47,17.32 4.55,27.477l-47.42,0.339c-0.08,-12.191 -2.86,-21.291 -8.31,-27.298c-5.46,-6.003 -12.73,-8.978 -21.81,-8.913c-4.92,0.036 -9.15,0.753 -12.7,2.15c-3.54,1.395 -6.45,3.299 -8.73,5.699c-2.28,2.407 -3.96,5.237 -5.03,8.497c-1.07,3.259 -1.59,6.769 -1.56,10.528c0.02,3.759 0.59,7.158 1.71,10.197c1.11,3.041 3.02,5.846 5.72,8.419c2.7,2.571 6.27,4.984 10.72,7.237c4.44,2.256 9.96,4.579 16.54,6.97c10.63,3.887 20.31,7.882 29.04,11.984c8.72,4.106 16.22,8.853 22.5,14.241c6.27,5.392 11.15,11.684 14.65,18.871c3.5,7.191 5.28,15.713 5.35,25.568c0.07,8.939 -1.43,16.979 -4.5,24.11c-3.07,7.135 -7.43,13.314 -13.08,18.534c-5.65,5.224 -12.48,9.44 -20.5,12.646c-8.01,3.207 -16.94,5.302 -26.78,6.288l0.22,30.322l-26.09,0.19l-0.21,-30.175c-9.09,-0.848 -17.88,-2.768 -26.38,-5.753c-8.49,-2.989 -16.04,-7.327 -22.65,-13.022c-6.6,-5.692 -11.9,-12.894 -15.9,-21.605c-4,-8.709 -6.05,-19.16 -6.13,-31.351l47.41,-0.338c0.05,7.213 1.1,13.227 3.16,18.036c2.06,4.812 4.8,8.654 8.21,11.525c3.41,2.871 7.28,4.877 11.61,6.013c4.32,1.138 8.73,1.689 13.22,1.657c5.14,-0.037 9.64,-0.728 13.52,-2.077c3.87,-1.348 7.11,-3.199 9.72,-5.557c2.61,-2.355 4.56,-5.138 5.85,-8.348c1.29,-3.21 1.92,-6.692 1.89,-10.454Z" style="fill:#ffa412;fill-rule:nonzero;"/><path d="M1619.14,1139.07l-0.02,0.17l-4.29,66.06l-15.97,245.29l-298.49,0l-17.58,-241.93l-4.84,-66.67l-0.21,-2.92l341.4,0Z" style="fill:#739af0;fill-rule:nonzero;"/><path d="M1619.12,1139.24l-4.29,66.06c-22.49,-7.83 -84.98,-26.65 -166.39,-26.65c-102.82,0 -165.65,30.01 -165.65,30.01l-4.84,-66.67l341.17,-2.75Z" style="fill:#618dd8;fill-rule:nonzero;"/><path d="M1629.51,1173.99l-362.6,0l-4.15,-42.16l371.35,0l-4.6,42.16Z" style="fill:#739af0;fill-rule:nonzero;"/><path d="M1603.45,1463.68l-309.49,0l-3.54,-14.68l316.96,0l-3.93,14.68Z" style="fill:#618dd8;fill-rule:nonzero;"/><path d="M1068.07,1327.04c-0.28,-1.54 -5.61,-37.57 8.03,-77.72c13.1,-38.57 5.85,-71.28 5.79,-71.6l9.64,0c0.25,1.39 0.92,33.5 -9.35,77.49c-9.24,39.59 8.01,71.83 4.34,71.83l-18.45,0Z" style="fill:#a4c8fc;fill-rule:nonzero;"/><path d="M1088.32,1220.68c0.05,-0.2 4.65,-26.6 17.03,-29.6c-5.53,0.72 -12.56,4.68 -16.5,12.06c-2.92,5.48 -1.9,7.03 -1.95,7.25l1.42,10.29Z" style="fill:#a4c8fc;fill-rule:nonzero;"/><path d="M1065.45,1214.51c0,0 -12.11,-19.68 -26.89,-26.18c0,0 2.81,44.5 -5.5,44.51c-8.31,0.01 0.44,-49.81 0.44,-49.81c-0,0 -38.01,-24.43 -54.06,-24.85c0,0 19.82,45.55 11.76,43.52c-8.05,-2.04 -30.88,-48.48 -30.88,-48.48c0,0 -40.49,-12.8 -50.17,10.93c-9.69,23.74 -0.46,37.34 5.49,39.63c5.95,2.3 45.4,6.65 43.74,11.64c-1.65,4.99 -29.26,9.89 -43.53,3.45c-0,0 11.38,42.44 33.11,43.05c21.74,0.61 30.04,-11.87 43.46,-11.25c13.43,0.62 22.71,5.4 15.61,8.16c-7.09,2.76 -29.3,-2.43 -41.17,5.37c-11.87,7.81 -21.26,12.36 -1.82,18.92c19.45,6.56 49.69,2.52 64.47,-6.01c0.05,-0.02 11.67,-0.2 17.32,53.92c2.17,20.85 -2.5,51.29 -2.5,51.29l7.42,-0.65c7.94,-59.73 -10.49,-111 -10.49,-111c-0,0 38.49,-24.79 24.19,-56.16Z" style="fill:#a4c8fc;fill-rule:nonzero;"/><path d="M1112.39,1198.49c-6.36,1.76 -13.73,-4.76 -13.73,-4.76c0,0 2.95,-9.38 9.31,-11.15c6.36,-1.76 13.72,4.76 13.72,4.76c0,0 -2.95,9.39 -9.3,11.15Z" style="fill:#a4c8fc;fill-rule:nonzero;"/><path d="M1185.54,1055.09c-22.2,14.54 -22.02,54.11 -22.02,54.11c-0,0 36.19,15.98 58.4,1.44c22.21,-14.54 22.02,-54.11 22.02,-54.11c0,0 -36.19,-15.98 -58.4,-1.44Z" style="fill:#a4c8fc;fill-rule:nonzero;"/><path d="M1185.54,1055.09c-22.2,14.54 -22.02,54.11 -22.02,54.11l80.42,-52.67c0,0 -36.19,-15.98 -58.4,-1.44Z" style="fill:#d2e3fc;fill-rule:nonzero;"/><path d="M1184.21,1017.86c-6.66,9.03 -0.77,24.68 -0.77,24.68c0,0 16.69,1.01 23.35,-8.02c6.66,-9.02 0.77,-24.67 0.77,-24.67c0,0 -16.69,-1.02 -23.35,8.01Z" style="fill:#a4c8fc;fill-rule:nonzero;"/><path d="M991.381,1091.76c-6.7,-53.16 30.97,-101.67 84.13,-108.37c53.15,-6.69 101.67,30.98 108.36,84.13c6.69,53.16 -30.97,101.68 -84.13,108.37c-53.15,6.69 -101.67,-30.97 -108.36,-84.13Z" style="fill:#e2810e;fill-rule:nonzero;"/><path d="M982.981,1092.82c-6.69,-53.16 30.97,-101.68 84.13,-108.37c53.15,-6.69 101.67,30.97 108.36,84.13c6.7,53.16 -30.97,101.67 -84.12,108.37c-53.16,6.69 -101.68,-30.98 -108.37,-84.13Z" style="fill:#ffb93e;fill-rule:nonzero;"/><path d="M1068.99,999.382c-45.47,5.72 -77.8,47.37 -72.08,92.84c5.73,45.47 47.37,77.8 92.84,72.08c45.47,-5.73 77.81,-47.38 72.08,-92.85c-5.72,-45.46 -47.37,-77.8 -92.84,-72.07Zm21.42,170.15c-23.42,2.95 -46.59,-3.4 -65.24,-17.88c-18.65,-14.48 -30.54,-35.35 -33.49,-58.77c-2.95,-23.43 3.4,-46.6 17.88,-65.24c14.47,-18.65 35.35,-30.55 58.77,-33.5c23.42,-2.94 46.59,3.4 65.24,17.88c18.65,14.48 30.54,35.35 33.49,58.77c2.95,23.43 -3.4,46.6 -17.88,65.25c-14.47,18.64 -35.35,30.54 -58.77,33.49Z" style="fill:#ffa412;fill-rule:nonzero;"/><path d="M1094.65,1105.77c-0.02,-1.92 -0.3,-3.61 -0.85,-5.07c-0.55,-1.46 -1.45,-2.78 -2.69,-3.96c-1.24,-1.18 -2.83,-2.26 -4.78,-3.25c-1.95,-0.99 -4.33,-1.96 -7.14,-2.9c-4.84,-1.66 -9.23,-3.4 -13.17,-5.22c-3.96,-1.82 -7.34,-3.93 -10.16,-6.34c-2.82,-2.4 -5.02,-5.21 -6.59,-8.45c-1.58,-3.23 -2.38,-7.09 -2.41,-11.57c-0.03,-3.88 0.64,-7.43 1.99,-10.64c1.35,-3.21 3.3,-6.01 5.84,-8.4c2.54,-2.4 5.59,-4.35 9.15,-5.86c3.56,-1.51 7.55,-2.49 11.97,-2.93l-0.1,-14.67l11.8,-0.09l0.11,14.88c4.23,0.52 8.08,1.61 11.54,3.28c3.45,1.66 6.39,3.84 8.83,6.51c2.42,2.69 4.3,5.86 5.64,9.53c1.32,3.67 2.01,7.79 2.04,12.36l-21.33,0.15c-0.04,-5.48 -1.28,-9.58 -3.74,-12.28c-2.45,-2.7 -5.72,-4.04 -9.81,-4.01c-2.21,0.02 -4.11,0.34 -5.71,0.97c-1.59,0.63 -2.9,1.48 -3.93,2.56c-1.02,1.08 -1.78,2.36 -2.26,3.82c-0.48,1.47 -0.71,3.05 -0.7,4.74c0.01,1.69 0.27,3.22 0.77,4.59c0.5,1.36 1.36,2.63 2.57,3.78c1.21,1.16 2.82,2.24 4.82,3.26c2,1.01 4.48,2.06 7.44,3.13c4.78,1.75 9.14,3.55 13.06,5.39c3.93,1.85 7.3,3.99 10.12,6.41c2.83,2.42 5.02,5.25 6.6,8.49c1.57,3.23 2.37,7.07 2.4,11.5c0.03,4.02 -0.64,7.64 -2.02,10.84c-1.38,3.21 -3.34,5.99 -5.88,8.34c-2.55,2.35 -5.62,4.25 -9.23,5.69c-3.6,1.44 -7.62,2.38 -12.04,2.83l0.1,13.64l-11.74,0.08l-0.09,-13.57c-4.09,-0.38 -8.05,-1.25 -11.87,-2.59c-3.82,-1.34 -7.22,-3.29 -10.19,-5.86c-2.97,-2.56 -5.35,-5.8 -7.15,-9.72c-1.8,-3.91 -2.72,-8.61 -2.76,-14.1l21.33,-0.15c0.02,3.25 0.5,5.95 1.42,8.11c0.93,2.17 2.16,3.9 3.69,5.19c1.54,1.29 3.28,2.19 5.22,2.7c1.95,0.51 3.93,0.76 5.95,0.75c2.31,-0.02 4.34,-0.33 6.08,-0.94c1.74,-0.6 3.2,-1.44 4.38,-2.5c1.17,-1.06 2.04,-2.31 2.62,-3.75c0.59,-1.44 0.87,-3.01 0.86,-4.7Z" style="fill:#ffa412;fill-rule:nonzero;"/><path d="M1165.02,1317.67l-0.01,0.08l-1.93,29.71l-7.18,110.33l-134.27,0l-7.9,-108.82l-2.18,-29.99l-0.1,-1.31l153.57,0Z" style="fill:#b4c9f7;fill-rule:nonzero;"/><path d="M1165.01,1317.75l-1.93,29.71c-10.12,-3.52 -38.23,-11.99 -74.84,-11.99c-46.25,0 -74.51,13.5 -74.51,13.5l-2.18,-29.99l153.46,-1.23Z" style="fill:#9bb8ea;fill-rule:nonzero;"/><path d="M1169.68,1333.38l-163.09,0l-1.87,-18.97l167.03,0l-2.07,18.97Z" style="fill:#b4c9f7;fill-rule:nonzero;"/><path d="M1157.96,1463.68l-139.21,0l-1.59,-6.6l142.57,0l-1.77,6.6Z" style="fill:#b4c9f7;fill-rule:nonzero;"/><path d="M1718.25,896.552c-0,0 -15.34,-2.99 -18.84,0c-3.51,2.99 -20.14,19.88 -16.58,25.43c3.56,5.55 20.64,-4.59 24.19,-5.55c3.54,-0.95 13.47,-4.83 13.47,-4.83l-2.24,-15.05Z" style="fill:#ffb27d;fill-rule:nonzero;"/><path d="M1881.18,1438.63l16.431,6.12c0,0 71.39,-99.01 80.18,-186.13c1.57,-15.55 1.05,-30.62 -2.35,-44.54c-0,0 0.7,-3.98 1.92,-11.03c0.57,-3.29 1.26,-7.24 2.06,-11.78c2.32,-13.3 5.51,-31.49 9.16,-52.21c8.4,-47.68 19.28,-108.63 27.74,-153.43l-4.43,-1.43l-47.92,-15.45l-9.9,-31.46l-35.68,-9.39c0,0 -7.97,15.59 -15.1,89.25c-1.31,9.66 -2.51,20.31 -3.41,31.87c-2.78,35.26 -2.981,79.01 3.4,129.02c1.629,12.8 3.7,26.02 6.26,39.6c1.88,9.96 2.16,23.52 1.37,39.1c-3.59,71.21 -29.731,181.89 -29.731,181.89Z" style="fill:#2b478b;fill-rule:nonzero;"/><path d="M1899.88,1049.02l77.48,154.03c0.57,-3.29 1.26,-7.24 2.06,-11.78c2.32,-13.3 5.51,-31.49 9.16,-52.21c8.4,-47.68 19.28,-108.63 27.74,-153.43l-4.43,-1.43l-47.92,-15.45l-9.9,-31.46l-35.68,-9.39c0,0 -7.97,15.59 -15.1,89.25c-1.31,9.66 -2.51,20.31 -3.41,31.87Z" style="fill:#233862;fill-rule:nonzero;"/><path d="M1933.97,947.672l1.79,-15.39c30.05,7.99 110.34,-22.3 110.34,-22.3c0,0 29.11,25.59 25.29,86.93c-1.87,29.94 -5.28,157.16 -8.83,194.81c-1.29,13.64 -2.42,23.35 -2.88,27.23c-0.01,0.02 -0.01,0.03 -0.01,0.04c-0.14,1.18 0.28,2.3 0.88,3.33c5.24,8.89 9.57,18.15 13.13,27.63c34.94,93.09 -5.38,207.73 -5.38,207.73l-10.46,-4.22c0,0 -22.94,-127.58 -41.58,-183.94c-3.16,-9.56 -6.2,-17.07 -8.98,-21.56c-8.1,-13.08 -15.62,-34.46 -22.45,-59.88c-12.9,-48.06 -23.29,-110.58 -30.2,-158.84c-0.95,0.05 -20.66,-81.57 -20.66,-81.57Z" style="fill:#2b478b;fill-rule:nonzero;"/><path d="M1718.25,896.552l2.24,15.05c-0,0 0.99,0 2.73,-0.13c5.48,-0.37 18.79,-1.11 33.84,-2.73c22.63,-2.24 49.5,-6.22 60.2,-12.81c16.29,-9.95 43.04,-40.43 60.45,-70.9c0.5,-0.75 0.87,-1.5 1.239,-2.24c9.081,-16.17 15.431,-32.22 15.921,-45.03c0.38,-7.84 -0.49,-14.55 -2.11,-20.4c-2.111,-7.71 -5.601,-13.805 -9.2,-18.407c-0.5,-0.747 -1,-1.493 -1.75,-2.115c-5.97,-7.089 -11.81,-10.075 -11.81,-10.075c-2.99,-1.245 -6.22,0.249 -9.581,3.855l-0,0.125c-2.739,2.862 -5.719,7.214 -8.579,12.687c-0.13,0.125 -0.25,0.249 -0.25,0.374c-0.62,1.119 -1.25,2.363 -1.99,3.731c-0.25,0.249 -0.37,0.623 -0.5,0.871c-1.37,2.861 -2.74,5.846 -4.1,8.954c-15.3,33.34 -31.6,83.84 -45.16,98.89c-5.84,6.46 -32.58,19.15 -53.85,28.61c-15.3,6.71 -27.74,11.69 -27.74,11.69Z" style="fill:#ffb27d;fill-rule:nonzero;"/><path d="M1876.56,761.102c9.43,4.38 20.83,7.36 34.61,8.11c51.66,2.83 63.39,-42.46 65.52,-72.518c-7.45,-2.697 -13.97,-2.442 -17.73,-2.241c-3.66,0.202 -7.48,0.577 -10.64,0.966c-6.32,-3.301 -17.67,-19.336 -24.23,-46.16l-2.23,1.033l-37.28,17.525c0,0 3.96,12.131 6.89,23.738c2.28,9.084 3.92,17.86 2.55,20.316c-2.94,1.194 -4.7,1.946 -4.7,1.946c0,0 0,0.013 -0.01,0.04c-0.381,0.952 -8.48,21.604 -12.75,47.245Z" style="fill:#ffb27d;fill-rule:nonzero;"/><path d="M1863.64,795.002c0.39,1.031 0.82,2.04 1.289,3.07c13.081,28.18 37.301,144.91 37.301,144.91c-3.45,20.99 157.72,-4.12 158.14,-23.23c5.68,-20.26 -20.14,-52.81 -34.7,-69.14c-1.82,-2.06 -3.46,-4.26 -4.88,-6.58c-3.6,-5.82 -5.88,-12.4 -6.61,-19.27c-2.86,-27.09 -1.77,-52.47 -2.01,-67.91c-2.84,-2.108 -5.6,-4.054 -8.16,-5.905c-3.92,-2.859 -7.38,-5.529 -9.93,-8.24c-2.8,-2.952 -4.56,-5.971 -4.76,-9.379c-0.15,-2.577 -0.07,-5.22 0.2,-7.864c0.12,-1.248 0.28,-2.496 0.47,-3.744c2.01,-13.11 7.49,-24.999 7.49,-24.999c-13.87,-5.609 -38.52,-2.268 -38.52,-2.268c-0,0 0.03,1.369 0.05,3.61c0.08,9.004 -0,32.124 -2.89,36.499c-3.61,5.448 -69.64,29.32 -73.13,21.93c-3.44,-7.276 5.97,-41.347 6.32,-42.635c0.01,-0.027 0.01,-0.04 0.01,-0.04c-22.11,8.682 -30.02,15.968 -30.02,15.968c13.33,8.642 -5.97,37.877 4.34,65.217Z" style="fill:#f99746;fill-rule:nonzero;"/><path d="M1908.12,551.507c0.079,-2.24 1.81,-26.375 38.57,-27.636c-0,0 -18.07,2.155 -21.2,10.103c-0,0 12.31,-9.82 22.34,-6.662c10.02,3.159 15.91,20.721 15.97,26.497c0.06,5.777 -5.51,24.398 -11.87,25.982c-2.41,0.599 -5.19,0.439 -7.71,0.009c1.69,2.643 3.35,5.559 4.94,8.815c14.67,30.112 -0.46,59.541 -12.88,56.29c-7.96,-2.085 -10.22,11.505 -10.22,11.505l-77.38,-62.644c0,0 28.42,-58.81 59.44,-42.259Z" style="fill:#2c3a64;fill-rule:nonzero;"/><path d="M1884.58,667.825c0,0 3.97,12.118 6.89,23.737c21.79,-6.08 28.4,-28.984 30.39,-41.262l-37.28,17.525Z" style="fill:#ed985f;fill-rule:nonzero;"/><path d="M1879.99,680.657c-0,0 52.14,-12.065 44.12,-44.414c-8.01,-32.349 -6.68,-55.692 -40.3,-49.357c-33.62,6.336 -37.01,20.275 -36.96,31.723c0.05,11.448 19.38,64.352 33.14,62.048Z" style="fill:#ffb27d;fill-rule:nonzero;"/><path d="M1843.92,600.243c5.6,-11.724 12.2,-11.099 16.32,-9.02c24.5,-22.664 48.52,-4.148 48.52,-4.148c9.25,22.339 29.29,31.468 29.29,31.468c0,0 -8,8.2 -31.22,8.019c-7.09,-0.055 -14.21,-3.31 -20.7,-7.796c12.51,12.602 27.18,20.273 27.18,20.273c-29.06,-5.56 -48.54,-39.198 -50.54,-42.771c-2.46,3.635 -7.17,11.372 -7.56,17.907c-0.54,8.879 2.52,26.122 -2.57,26.775c-0,0 -17.13,-23.123 -8.72,-40.707Z" style="fill:#2c3a64;fill-rule:nonzero;"/><path d="M1859.3,729.779c0,0 -12.55,21.896 -14.43,27.533c-0,0 16.27,-0.63 22.85,11.89c-0,0 1.57,-36.472 -8.42,-39.423Z" style="fill:#f99746;fill-rule:nonzero;"/><path d="M1945.63,903.762c31.79,-0.34 58.7,-33.35 75.16,-59.73c-3.6,-5.82 -5.88,-12.4 -6.61,-19.27c-2.86,-27.09 -1.77,-52.47 -2.01,-67.91c-2.84,-2.108 -5.6,-4.054 -8.16,-5.905c-3.92,-2.859 -7.38,-5.529 -9.93,-8.24c-26.03,44.005 -91.56,161.505 -48.45,161.055Z" style="fill:#ed7d2b;fill-rule:nonzero;"/><path d="M1825.47,921.052l4.35,15.92c0,0 5.47,-0.99 14.18,-2.61c2.61,-0.5 4.11,-0.87 4.11,-0.87c6.96,-1.37 15.289,-3.23 24.37,-5.22l0.13,0c15.549,-3.74 32.96,-8.21 47.64,-13.19c10.32,-3.61 19.28,-7.46 25.37,-11.32c0.63,-0.37 1.12,-0.74 1.74,-1.24c14.56,-10.57 31.85,-41.67 45.28,-75.01c1.87,-4.6 3.61,-9.2 5.35,-13.68c6.22,-16.67 11.19,-33.08 14.18,-47.26c1.86,-8.46 3.11,-16.175 3.36,-22.518c0.12,-2.238 0.25,-4.352 0.12,-6.344c-0.25,-36.071 -18.16,-41.046 -18.16,-41.046c-0.37,-0.125 -0.74,-0.249 -1.24,-0.372c-3.11,-0.498 -6.35,1.616 -9.7,5.721c-4.23,5.099 -8.71,13.433 -13.31,23.507c-7.09,16.046 -14.56,36.822 -21.52,57.472c-3.86,11.31 -7.59,22.63 -11.32,33.08c-2.12,6.34 -4.23,12.31 -6.22,17.79c-3.86,10.45 -7.34,18.9 -10.45,24.25c-1.99,3.49 -7.71,8.34 -15.301,13.81c-13.179,9.58 -32.459,21.15 -49.249,30.6c-6.97,3.98 -13.56,7.59 -19.03,10.57c-8.84,4.85 -14.68,7.96 -14.68,7.96Z" style="fill:#ffb27d;fill-rule:nonzero;"/><path d="M1973.28,725.573c23.95,-6.602 42.42,12.094 42.42,12.094c-0.3,-36.012 -18.23,-40.943 -18.23,-40.943c-7.21,-2.985 -15.57,9.504 -24.19,28.849Z" style="fill:#f99746;fill-rule:nonzero;"/><path d="M2007.48,1466.22l82.79,0c-0,0 1.98,-12.61 -2.34,-22.19c-4.15,-9.18 -10.64,-13.35 -9.08,-24.47c-5.26,5.42 -13.84,11.48 -25.8,9.87c-1.47,2.38 -9.47,15.1 -14.37,18.62c-5.41,3.89 -29.53,2.51 -31.2,18.17Z" style="fill:#233862;fill-rule:nonzero;"/><path d="M1829.74,1466.22l82.78,0c-0,0 3.1,-13.2 -2.34,-22.19c-4.81,-7.95 -2.97,-12.47 0.6,-19.05c-3.75,1.53 -8.601,2.93 -13.95,2.63c-4.12,-0.24 -8.48,-2.11 -12.31,-4.33c-3.56,4.06 -18.821,21.35 -23.581,24.77c-5.409,3.89 -29.539,2.51 -31.199,18.17Z" style="fill:#233862;fill-rule:nonzero;"/><path d="M1714.03,955.922l-22.37,9.18c-6.08,2.48 -9.28,9.1 -7.72,15.31l-2.39,0.98c-9.11,-31.62 2,-63.51 26.97,-73.74c3.51,-1.44 7.12,-2.39 10.77,-2.85c11.5,-1.51 23.48,1.58 34.25,8.3c10.24,6.38 19.37,16.03 25.95,28.14l-3.3,1.35c-3.24,-5.5 -10.15,-7.98 -16.23,-5.49l-22.39,9.18c-1.75,-4.27 -5.9,-6.86 -10.26,-6.86c-1.38,0 -2.8,0.27 -4.15,0.82l-3.1,1.27c-5.62,2.31 -8.33,8.78 -6.03,14.41Zm106.51,38.9l-19.67,-47.99c-2.56,-6.26 -9.43,-9.51 -15.81,-7.76c-6.51,-12.25 -15.49,-22.2 -25.66,-29.19c-10.73,-7.38 -22.76,-11.45 -34.64,-11.4c-6.28,0.03 -12.53,1.21 -18.49,3.66c-27.97,11.46 -40.51,46.8 -30.24,81.51l-1.53,0.62c-0,0 -4.79,-0.33 -12.81,-0.33c-25.33,0 -82.92,3.37 -123.32,31.43c-0,0 -2.54,2.7 -2.64,6.83c-0.05,1.37 0.18,2.9 0.85,4.53c0,0 64.86,-42 124.85,1.16c3.68,2.64 7.25,5.09 10.73,7.35l5.38,13.14c8.93,21.77 34.03,32.28 55.81,23.36l54.94,-22.52l11.45,-4.69c19.39,-7.95 28.76,-30.32 20.8,-49.71Z" style="fill:#c94c43;fill-rule:nonzero;"/><path d="M1672.16,1035.24c-3.48,-2.26 -7.05,-4.71 -10.73,-7.35c-59.99,-43.16 -124.85,-1.16 -124.85,-1.16c-0.67,-1.63 -0.9,-3.16 -0.85,-4.53c9.08,-5.98 43.11,-25.87 85.27,-19.07c49.4,7.97 58.34,14.84 51.16,32.11Z" style="fill:#b23b38;fill-rule:nonzero;"/><path d="M1799.74,1044.53l-11.45,4.69c17.16,-9.37 -4.1,-48.96 -16.53,-75.1c-12.43,-26.13 -31.23,-14.19 -31.23,-14.19c-4.31,-8.76 -13.54,-8.28 -13.54,-8.28c-0.49,-8.44 -6.93,-10.14 -6.93,-10.14l3.1,-1.27c1.35,-0.55 2.77,-0.82 4.15,-0.82c4.36,0 8.51,2.59 10.26,6.86l22.39,-9.18c6.08,-2.49 12.99,-0.01 16.23,5.49l3.3,-1.35c-6.58,-12.11 -15.71,-21.76 -25.95,-28.14c-10.77,-6.72 -22.75,-9.81 -34.25,-8.3c1.79,-1.45 3.73,-3.48 5.47,-6.32c11.88,-0.05 23.91,4.02 34.64,11.4c10.17,6.99 19.15,16.94 25.66,29.19c6.38,-1.75 13.25,1.5 15.81,7.76l19.67,47.99c7.96,19.39 -1.41,41.76 -20.8,49.71Z" style="fill:#b23b38;fill-rule:nonzero;"/><path d="M1773.97,936.482c7.96,3.35 19.16,15.05 37.07,7.96c12.81,-4.98 26.37,-8.46 32.96,-10.08c2.61,-0.5 4.11,-0.87 4.11,-0.87l-7.09,-20.65c-0,0 -0.25,0.13 -0.87,0.25c-4.61,1 -27.99,5.97 -38.94,3.48c-12.31,-2.86 -32.96,11.95 -32.96,11.95c-0,0 -2.24,4.72 5.72,7.96Z" style="fill:#ffb27d;fill-rule:nonzero;"/><path d="M1549.25,1061.39c-0,-7.47 -13.53,-30.53 -13.53,-30.53c-0,0 -13.52,23.06 -13.52,30.53c0,7.47 6.05,13.53 13.52,13.53c7.47,0 13.53,-6.06 13.53,-13.53Z" style="fill:#afcdfb;fill-rule:nonzero;"/><path d="M1876.65,260.681c1.951,-5.266 4.911,-10.428 9,-15.337c0.861,-1.052 1.941,-2.122 3.121,-3.192c5.169,-4.544 12.7,-8.649 18.56,-9.899c44.84,-9.486 74.57,38.833 46.69,74.394c-0.47,0.579 -0.93,1.158 -1.42,1.73c-4.53,5.371 -13.92,10.997 -20.77,12.524c-3.59,0.795 -7.09,1.217 -10.46,1.323c-33.721,0.893 -55.79,-31.531 -44.721,-61.543Zm39.921,-95.144l-19.86,4.326l-0.47,0.106c-2.41,0.542 -4.03,2.792 -3.77,5.235l1.79,16.871c0.03,0.28 0.04,0.554 0.02,0.822c-0.14,1.873 -1.351,3.556 -3.16,4.172c-10.63,3.786 -20.37,9.624 -28.701,17.225c-0.349,0.31 -0.73,0.562 -1.129,0.761c-1.52,0.738 -3.37,0.625 -4.82,-0.328l-11.74,-7.912c-1.56,-1.029 -3.56,-1.054 -5.12,-0.176c-0.46,0.282 -0.92,0.638 -1.3,1.088l-13.37,15.867c-1.65,1.946 -1.53,4.874 0.3,6.69l13.33,13.31c1.31,1.316 1.74,3.257 1.11,5.008c-0.88,2.534 -1.66,5.09 -2.31,7.728c-1.23,4.949 -1.98,9.892 -2.3,14.792l-0.01,0.023c-0.13,2.048 -1.48,3.772 -3.43,4.377l-18.28,5.658l-0.91,0.294c-2.36,0.705 -3.8,3.146 -3.27,5.583l4.42,20.295c0.55,2.466 2.86,4.153 5.38,3.884l18.77,-1.99c2.09,-0.226 4.09,0.913 4.93,2.807c3.71,7.953 8.6,15.309 14.56,21.765c1.5,1.659 1.68,4.109 0.43,5.978l-9.35,13.938c-1.42,2.127 -1,4.931 0.93,6.549l15.919,13.433c1.891,1.582 4.671,1.453 6.391,-0.277l15.67,-15.645c1.32,-1.332 3.29,-1.786 5.08,-1.195c2.19,0.742 4.43,1.396 6.72,1.963c4.32,1.069 8.629,1.788 12.89,2.176c1.94,0.159 3.6,1.462 4.15,3.333l6.78,21.969c0.76,2.419 3.21,3.843 5.67,3.312l20.37,-4.42c2.15,-0.483 3.71,-2.377 3.8,-4.535c0.01,-0.222 0.02,-0.467 -0.03,-0.7l-2.19,-20.836c-0.22,-1.936 0.72,-3.811 2.41,-4.754c0.15,-0.087 0.29,-0.175 0.46,-0.234c0.47,-0.205 0.91,-0.393 1.37,-0.651c5.48,-2.508 10.69,-5.629 15.53,-9.262c1.59,-1.24 3.83,-1.28 5.52,-0.117l14.73,9.865c2.08,1.408 4.91,0.993 6.53,-0.936l2.98,-3.524l10.36,-12.325c1.64,-1.922 1.5,-4.78 -0.28,-6.584l-13.13,-13.113c-1.42,-1.391 -1.76,-3.507 -0.94,-5.312c2.16,-4.718 3.93,-9.755 5.23,-15.008c0.96,-3.898 1.64,-7.843 2.04,-11.735l3.83,-1.181l15.73,-4.876c1.95,-0.582 3.28,-2.358 3.35,-4.324c0.03,-0.414 -0.02,-0.823 -0.12,-1.242l-4.4,-20.441c-0.54,-2.413 -2.82,-4.018 -5.26,-3.78l-12.83,1.382c-2.16,0.233 -4.27,-1.058 -5.02,-3.103c-3.13,-8.481 -7.57,-16.392 -13.13,-23.42c-1.33,-1.665 -1.43,-3.945 -0.24,-5.634l11.81,-17.613c1.31,-1.98 0.95,-4.622 -0.87,-6.163l-16.12,-13.555c-1.91,-1.612 -4.71,-1.489 -6.43,0.265l-16.3,16.281c-1.39,1.415 -3.5,1.81 -5.33,1.033c-3.93,-1.665 -8.05,-3.009 -12.35,-4.073c-2.31,-0.572 -4.62,-1.046 -6.93,-1.42c-1.81,-0.299 -3.3,-1.585 -3.86,-3.333l-6.5,-21.061c-0.76,-2.441 -3.23,-3.895 -5.73,-3.376Z" style="fill:#dfedfb;fill-rule:nonzero;"/><path d="M2140.33,372.471c3.99,-7.694 9.52,-15.036 16.73,-21.772c1.51,-1.448 3.37,-2.879 5.39,-4.291c8.78,-5.972 21.11,-10.817 30.32,-11.609c70.51,-5.935 106.8,73.788 57.27,122.922c-0.83,0.797 -1.65,1.594 -2.51,2.378c-7.96,7.36 -23.43,14.178 -34.21,15.205c-5.66,0.529 -11.1,0.505 -16.28,0.022c-51.83,-5.098 -79.43,-59.001 -56.71,-102.855Zm79.38,-138.107l-31.24,2.821l-0.74,0.072c-3.81,0.367 -6.72,3.503 -6.79,7.296l-0.49,26.19c-0,0.434 -0.05,0.855 -0.12,1.263c-0.58,2.842 -2.76,5.188 -5.65,5.785c-17,3.763 -33.05,10.838 -47.26,20.887c-0.6,0.408 -1.23,0.72 -1.88,0.949c-2.47,0.839 -5.29,0.311 -7.33,-1.427l-16.47,-14.373c-2.18,-1.874 -5.24,-2.295 -7.79,-1.248c-0.77,0.342 -1.55,0.8 -2.22,1.415l-23.52,21.745c-2.9,2.665 -3.28,7.173 -0.82,10.306l17.86,22.946c1.76,2.267 2.05,5.324 0.75,7.886c-1.83,3.713 -3.51,7.48 -5.02,11.396c-2.83,7.347 -4.93,14.774 -6.36,22.22l-0.01,0.034c-0.6,3.112 -2.99,5.495 -6.11,6.047l-29.08,5.164l-1.46,0.275c-3.74,0.628 -6.42,4.091 -6.07,7.927l2.87,31.938c0.38,3.885 3.59,6.91 7.5,6.982l29.15,0.551c3.24,0.054 6.08,2.182 7.01,5.245c4.15,12.895 10.24,25.102 18.13,36.134c1.97,2.829 1.79,6.617 -0.49,9.24l-17,19.561c-2.58,2.986 -2.47,7.363 0.17,10.211l21.83,23.631c2.58,2.787 6.87,3.122 9.83,0.801l27,-20.964c2.28,-1.788 5.39,-2.105 8.01,-0.857c3.22,1.557 6.53,2.989 9.93,4.295c6.41,2.467 12.87,4.394 19.33,5.805c2.94,0.616 5.24,2.93 5.72,5.903l6.17,34.955c0.71,3.852 4.18,6.502 8.05,6.162l32.06,-2.867c3.39,-0.328 6.14,-2.929 6.69,-6.219c0.05,-0.339 0.11,-0.712 0.09,-1.077l0.63,-32.342c0.04,-3.008 1.83,-5.701 4.61,-6.82c0.24,-0.106 0.48,-0.213 0.74,-0.272c0.76,-0.223 1.48,-0.426 2.23,-0.732c8.87,-2.794 17.45,-6.576 25.56,-11.214c2.68,-1.594 6.12,-1.226 8.5,0.88l20.67,17.937c2.91,2.555 7.32,2.461 10.17,-0.183l5.24,-4.828l18.24,-16.895c2.88,-2.631 3.22,-7.035 0.83,-10.14l-17.6,-22.605c-1.9,-2.403 -2.02,-5.711 -0.42,-8.318c4.21,-6.814 7.89,-14.193 10.89,-21.991c2.22,-5.787 4.02,-11.7 5.37,-17.586l6.1,-1.074l25.03,-4.456c3.1,-0.517 5.48,-2.982 5.96,-5.982c0.12,-0.629 0.13,-1.263 0.07,-1.924l-2.83,-32.159c-0.37,-3.801 -3.55,-6.697 -7.33,-6.798l-19.92,-0.343c-3.36,-0.059 -6.34,-2.439 -7.11,-5.719c-3.17,-13.591 -8.44,-26.561 -15.63,-38.395c-1.7,-2.804 -1.42,-6.318 0.72,-8.677l21.48,-24.717c2.38,-2.783 2.34,-6.899 -0.16,-9.61l-22.1,-23.856c-2.61,-2.834 -6.93,-3.183 -9.9,-0.827l-28.09,21.819c-2.4,1.9 -5.7,2.102 -8.37,0.559c-5.69,-3.303 -11.76,-6.154 -18.13,-8.607c-3.43,-1.32 -6.88,-2.488 -10.35,-3.503c-2.71,-0.806 -4.75,-3.062 -5.27,-5.847l-5.93,-33.511c-0.69,-3.887 -4.19,-6.585 -8.13,-6.27Z" style="fill:#cde3fd;fill-rule:nonzero;"/></svg>