<?xml version="1.0" encoding="UTF-8" standalone="no"?><!DOCTYPE svg PUBLIC "-//W3C//DTD SVG 1.1//EN" "http://www.w3.org/Graphics/SVG/1.1/DTD/svg11.dtd"><svg width="100%" height="100%" viewBox="0 0 341 293" version="1.1" xmlns="http://www.w3.org/2000/svg" xmlns:xlink="http://www.w3.org/1999/xlink" xml:space="preserve" xmlns:serif="http://www.serif.com/" style="fill-rule:evenodd;clip-rule:evenodd;stroke-linecap:round;stroke-linejoin:round;stroke-miterlimit:2;"><rect x="133.96" y="184.891" width="75.579" height="30.361" style="fill:#7096a9;fill-rule:nonzero;"/><rect x="133.96" y="184.891" width="75.579" height="30.361" style="fill:none;stroke:#662c91;stroke-width:2.5px;"/><rect x="111.691" y="214.357" width="120.112" height="9.892" style="fill:#99cad5;fill-rule:nonzero;"/><rect x="111.691" y="214.357" width="120.112" height="9.892" style="fill:none;stroke:#662c91;stroke-width:2.5px;"/><path d="M284.603,181.383c-0,5.499 -4.457,9.956 -9.957,9.956l-205.794,0c-5.499,0 -9.956,-4.457 -9.956,-9.956l0,-114.486c0,-5.499 4.457,-9.956 9.956,-9.956l205.794,0c5.5,0 9.957,4.457 9.957,9.956l-0,114.486Z" style="fill:#99cad5;fill-rule:nonzero;"/><path d="M284.603,181.383c-0,5.499 -4.457,9.956 -9.957,9.956l-205.794,0c-5.499,0 -9.956,-4.457 -9.956,-9.956l0,-114.486c0,-5.499 4.457,-9.956 9.956,-9.956l205.794,0c5.5,0 9.957,4.457 9.957,9.956l-0,114.486Z" style="fill:none;stroke:#662c91;stroke-width:2.5px;"/><rect x="67.498" y="73.538" width="208.506" height="101.214" style="fill:#fff;fill-rule:nonzero;"/><rect x="67.498" y="73.538" width="208.506" height="101.214" style="fill:none;stroke:#662c91;stroke-width:2.5px;"/><rect x="81.786" y="233.2" width="179.927" height="57.736" style="fill:#99cad5;fill-rule:nonzero;"/><rect x="81.786" y="233.2" width="179.927" height="57.736" style="fill:none;stroke:#662c91;stroke-width:2.5px;"/><rect x="89.697" y="242.142" width="5.781" height="5.782" style="fill:#99cad5;fill-rule:nonzero;"/><rect x="89.697" y="242.142" width="5.781" height="5.782" style="fill:none;stroke:#662c91;stroke-width:2.5px;"/><rect x="102.709" y="242.142" width="5.776" height="5.782" style="fill:#99cad5;fill-rule:nonzero;"/><rect x="102.709" y="242.142" width="5.776" height="5.782" style="fill:none;stroke:#662c91;stroke-width:2.5px;"/><rect x="115.714" y="242.142" width="5.783" height="5.782" style="fill:#99cad5;fill-rule:nonzero;"/><rect x="115.714" y="242.142" width="5.783" height="5.782" style="fill:none;stroke:#662c91;stroke-width:2.5px;"/><rect x="128.721" y="242.142" width="5.779" height="5.782" style="fill:#99cad5;fill-rule:nonzero;"/><rect x="128.721" y="242.142" width="5.779" height="5.782" style="fill:none;stroke:#662c91;stroke-width:2.5px;"/><rect x="141.728" y="242.142" width="5.777" height="5.782" style="fill:#99cad5;fill-rule:nonzero;"/><rect x="141.728" y="242.142" width="5.777" height="5.782" style="fill:none;stroke:#662c91;stroke-width:2.5px;"/><rect x="154.735" y="242.142" width="5.781" height="5.782" style="fill:#99cad5;fill-rule:nonzero;"/><rect x="154.735" y="242.142" width="5.781" height="5.782" style="fill:none;stroke:#662c91;stroke-width:2.5px;"/><rect x="167.742" y="242.142" width="5.781" height="5.782" style="fill:#99cad5;fill-rule:nonzero;"/><rect x="167.742" y="242.142" width="5.781" height="5.782" style="fill:none;stroke:#662c91;stroke-width:2.5px;"/><rect x="180.75" y="242.142" width="5.781" height="5.782" style="fill:#99cad5;fill-rule:nonzero;"/><rect x="180.75" y="242.142" width="5.781" height="5.782" style="fill:none;stroke:#662c91;stroke-width:2.5px;"/><rect x="193.755" y="242.142" width="5.782" height="5.782" style="fill:#99cad5;fill-rule:nonzero;"/><rect x="193.755" y="242.142" width="5.782" height="5.782" style="fill:none;stroke:#662c91;stroke-width:2.5px;"/><rect x="206.762" y="242.142" width="5.783" height="5.782" style="fill:#99cad5;fill-rule:nonzero;"/><rect x="206.762" y="242.142" width="5.783" height="5.782" style="fill:none;stroke:#662c91;stroke-width:2.5px;"/><rect x="219.771" y="242.142" width="5.781" height="5.782" style="fill:#99cad5;fill-rule:nonzero;"/><rect x="219.771" y="242.142" width="5.781" height="5.782" style="fill:none;stroke:#662c91;stroke-width:2.5px;"/><rect x="232.777" y="242.142" width="5.781" height="5.782" style="fill:#99cad5;fill-rule:nonzero;"/><rect x="232.777" y="242.142" width="5.781" height="5.782" style="fill:none;stroke:#662c91;stroke-width:2.5px;"/><rect x="245.783" y="242.142" width="5.781" height="5.782" style="fill:#99cad5;fill-rule:nonzero;"/><rect x="245.783" y="242.142" width="5.781" height="5.782" style="fill:none;stroke:#662c91;stroke-width:2.5px;"/><rect x="89.697" y="253.496" width="5.781" height="5.781" style="fill:#99cad5;fill-rule:nonzero;"/><rect x="89.697" y="253.496" width="5.781" height="5.781" style="fill:none;stroke:#662c91;stroke-width:2.5px;"/><rect x="102.709" y="253.496" width="5.776" height="5.781" style="fill:#99cad5;fill-rule:nonzero;"/><rect x="102.709" y="253.496" width="5.776" height="5.781" style="fill:none;stroke:#662c91;stroke-width:2.5px;"/><rect x="115.714" y="253.496" width="5.783" height="5.781" style="fill:#99cad5;fill-rule:nonzero;"/><rect x="115.714" y="253.496" width="5.783" height="5.781" style="fill:none;stroke:#662c91;stroke-width:2.5px;"/><rect x="128.721" y="253.496" width="5.779" height="5.781" style="fill:#99cad5;fill-rule:nonzero;"/><rect x="128.721" y="253.496" width="5.779" height="5.781" style="fill:none;stroke:#662c91;stroke-width:2.5px;"/><rect x="141.728" y="253.496" width="5.777" height="5.781" style="fill:#99cad5;fill-rule:nonzero;"/><rect x="141.728" y="253.496" width="5.777" height="5.781" style="fill:none;stroke:#662c91;stroke-width:2.5px;"/><rect x="154.735" y="253.496" width="5.781" height="5.781" style="fill:#99cad5;fill-rule:nonzero;"/><rect x="154.735" y="253.496" width="5.781" height="5.781" style="fill:none;stroke:#662c91;stroke-width:2.5px;"/><rect x="167.742" y="253.496" width="5.781" height="5.781" style="fill:#99cad5;fill-rule:nonzero;"/><rect x="167.742" y="253.496" width="5.781" height="5.781" style="fill:none;stroke:#662c91;stroke-width:2.5px;"/><rect x="180.75" y="253.496" width="5.781" height="5.781" style="fill:#99cad5;fill-rule:nonzero;"/><rect x="180.75" y="253.496" width="5.781" height="5.781" style="fill:none;stroke:#662c91;stroke-width:2.5px;"/><rect x="193.755" y="253.496" width="5.782" height="5.781" style="fill:#99cad5;fill-rule:nonzero;"/><rect x="193.755" y="253.496" width="5.782" height="5.781" style="fill:none;stroke:#662c91;stroke-width:2.5px;"/><rect x="206.762" y="253.496" width="5.783" height="5.781" style="fill:#99cad5;fill-rule:nonzero;"/><rect x="206.762" y="253.496" width="5.783" height="5.781" style="fill:none;stroke:#662c91;stroke-width:2.5px;"/><rect x="219.771" y="253.496" width="5.781" height="5.781" style="fill:#99cad5;fill-rule:nonzero;"/><rect x="219.771" y="253.496" width="5.781" height="5.781" style="fill:none;stroke:#662c91;stroke-width:2.5px;"/><rect x="232.777" y="253.496" width="5.781" height="5.781" style="fill:#99cad5;fill-rule:nonzero;"/><rect x="232.777" y="253.496" width="5.781" height="5.781" style="fill:none;stroke:#662c91;stroke-width:2.5px;"/><rect x="245.783" y="253.496" width="5.781" height="5.781" style="fill:#99cad5;fill-rule:nonzero;"/><rect x="245.783" y="253.496" width="5.781" height="5.781" style="fill:none;stroke:#662c91;stroke-width:2.5px;"/><rect x="89.697" y="264.849" width="5.781" height="5.783" style="fill:#99cad5;fill-rule:nonzero;"/><rect x="89.697" y="264.849" width="5.781" height="5.783" style="fill:none;stroke:#662c91;stroke-width:2.5px;"/><rect x="102.709" y="264.849" width="5.776" height="5.783" style="fill:#99cad5;fill-rule:nonzero;"/><rect x="102.709" y="264.849" width="5.776" height="5.783" style="fill:none;stroke:#662c91;stroke-width:2.5px;"/><rect x="115.714" y="264.849" width="5.783" height="5.783" style="fill:#99cad5;fill-rule:nonzero;"/><rect x="115.714" y="264.849" width="5.783" height="5.783" style="fill:none;stroke:#662c91;stroke-width:2.5px;"/><rect x="128.721" y="264.849" width="5.779" height="5.783" style="fill:#99cad5;fill-rule:nonzero;"/><rect x="128.721" y="264.849" width="5.779" height="5.783" style="fill:none;stroke:#662c91;stroke-width:2.5px;"/><rect x="141.728" y="264.849" width="5.777" height="5.783" style="fill:#99cad5;fill-rule:nonzero;"/><rect x="141.728" y="264.849" width="5.777" height="5.783" style="fill:none;stroke:#662c91;stroke-width:2.5px;"/><rect x="154.735" y="264.849" width="5.781" height="5.783" style="fill:#99cad5;fill-rule:nonzero;"/><rect x="154.735" y="264.849" width="5.781" height="5.783" style="fill:none;stroke:#662c91;stroke-width:2.5px;"/><rect x="167.742" y="264.849" width="5.781" height="5.783" style="fill:#99cad5;fill-rule:nonzero;"/><rect x="167.742" y="264.849" width="5.781" height="5.783" style="fill:none;stroke:#662c91;stroke-width:2.5px;"/><rect x="180.75" y="264.849" width="5.781" height="5.783" style="fill:#99cad5;fill-rule:nonzero;"/><rect x="180.75" y="264.849" width="5.781" height="5.783" style="fill:none;stroke:#662c91;stroke-width:2.5px;"/><rect x="193.755" y="264.849" width="5.782" height="5.783" style="fill:#99cad5;fill-rule:nonzero;"/><rect x="193.755" y="264.849" width="5.782" height="5.783" style="fill:none;stroke:#662c91;stroke-width:2.5px;"/><rect x="206.762" y="264.849" width="5.783" height="5.783" style="fill:#99cad5;fill-rule:nonzero;"/><rect x="206.762" y="264.849" width="5.783" height="5.783" style="fill:none;stroke:#662c91;stroke-width:2.5px;"/><rect x="219.771" y="264.849" width="5.781" height="5.783" style="fill:#99cad5;fill-rule:nonzero;"/><rect x="219.771" y="264.849" width="5.781" height="5.783" style="fill:none;stroke:#662c91;stroke-width:2.5px;"/><rect x="232.777" y="264.849" width="5.781" height="5.783" style="fill:#99cad5;fill-rule:nonzero;"/><rect x="232.777" y="264.849" width="5.781" height="5.783" style="fill:none;stroke:#662c91;stroke-width:2.5px;"/><rect x="245.783" y="264.849" width="5.781" height="5.783" style="fill:#99cad5;fill-rule:nonzero;"/><rect x="245.783" y="264.849" width="5.781" height="5.783" style="fill:none;stroke:#662c91;stroke-width:2.5px;"/><rect x="89.697" y="276.213" width="5.781" height="5.772" style="fill:#99cad5;fill-rule:nonzero;"/><rect x="89.697" y="276.213" width="5.781" height="5.772" style="fill:none;stroke:#662c91;stroke-width:2.5px;"/><rect x="102.709" y="276.213" width="5.776" height="5.772" style="fill:#99cad5;fill-rule:nonzero;"/><rect x="102.709" y="276.213" width="5.776" height="5.772" style="fill:none;stroke:#662c91;stroke-width:2.5px;"/><rect x="115.714" y="276.213" width="5.783" height="5.772" style="fill:#99cad5;fill-rule:nonzero;"/><rect x="115.714" y="276.213" width="5.783" height="5.772" style="fill:none;stroke:#662c91;stroke-width:2.5px;"/><rect x="128.721" y="276.213" width="5.779" height="5.772" style="fill:#99cad5;fill-rule:nonzero;"/><rect x="128.721" y="276.213" width="5.779" height="5.772" style="fill:none;stroke:#662c91;stroke-width:2.5px;"/><rect x="141.728" y="276.213" width="5.777" height="5.772" style="fill:#99cad5;fill-rule:nonzero;"/><rect x="141.728" y="276.213" width="5.777" height="5.772" style="fill:none;stroke:#662c91;stroke-width:2.5px;"/><rect x="154.735" y="276.213" width="5.781" height="5.772" style="fill:#99cad5;fill-rule:nonzero;"/><rect x="154.735" y="276.213" width="5.781" height="5.772" style="fill:none;stroke:#662c91;stroke-width:2.5px;"/><rect x="167.742" y="276.213" width="5.781" height="5.772" style="fill:#99cad5;fill-rule:nonzero;"/><rect x="167.742" y="276.213" width="5.781" height="5.772" style="fill:none;stroke:#662c91;stroke-width:2.5px;"/><rect x="180.75" y="276.213" width="5.781" height="5.772" style="fill:#99cad5;fill-rule:nonzero;"/><rect x="180.75" y="276.213" width="5.781" height="5.772" style="fill:none;stroke:#662c91;stroke-width:2.5px;"/><rect x="193.755" y="276.213" width="5.782" height="5.772" style="fill:#99cad5;fill-rule:nonzero;"/><rect x="193.755" y="276.213" width="5.782" height="5.772" style="fill:none;stroke:#662c91;stroke-width:2.5px;"/><rect x="206.762" y="276.213" width="5.783" height="5.772" style="fill:#99cad5;fill-rule:nonzero;"/><rect x="206.762" y="276.213" width="5.783" height="5.772" style="fill:none;stroke:#662c91;stroke-width:2.5px;"/><rect x="219.771" y="276.213" width="5.781" height="5.772" style="fill:#99cad5;fill-rule:nonzero;"/><rect x="219.771" y="276.213" width="5.781" height="5.772" style="fill:none;stroke:#662c91;stroke-width:2.5px;"/><rect x="232.777" y="276.213" width="5.781" height="5.772" style="fill:#99cad5;fill-rule:nonzero;"/><rect x="232.777" y="276.213" width="5.781" height="5.772" style="fill:none;stroke:#662c91;stroke-width:2.5px;"/><rect x="245.783" y="276.213" width="5.781" height="5.772" style="fill:#99cad5;fill-rule:nonzero;"/><rect x="245.783" y="276.213" width="5.781" height="5.772" style="fill:none;stroke:#662c91;stroke-width:2.5px;"/><path d="M76.119,64.019l63.509,0" style="fill:none;stroke:#662c91;stroke-width:2.5px;"/><path d="M144.378,64.019l7.417,0" style="fill:none;stroke:#662c91;stroke-width:2.5px;"/><path d="M174.945,167.288l68.254,0" style="fill:none;stroke:#662c91;stroke-width:2.5px;"/><path d="M249.427,166.997l12.166,0" style="fill:none;stroke:#662c91;stroke-width:2.5px;"/><path d="M139.332,196.071l0,12.768" style="fill:none;stroke:#662c91;stroke-width:2.5px;"/><path d="M87.994,238.216l73.596,0" style="fill:none;stroke:#662c91;stroke-width:2.5px;"/><path d="M143.657,37.982l80.245,-0" style="fill:none;fill-rule:nonzero;"/><path d="M143.657,37.982l80.245,-0" style="fill:none;stroke:#662c91;stroke-width:2.5px;"/><path d="M193.951,24.986l94.373,0" style="fill:none;fill-rule:nonzero;"/><path d="M193.951,24.986l94.373,0" style="fill:none;stroke:#662c91;stroke-width:2.5px;"/><path d="M266.849,213.166l57.641,0" style="fill:none;fill-rule:nonzero;"/><path d="M266.849,213.166l57.641,0" style="fill:none;stroke:#662c91;stroke-width:2.5px;"/><path d="M283.802,200.733l55.947,0" style="fill:none;fill-rule:nonzero;"/><path d="M283.802,200.733l55.947,0" style="fill:none;stroke:#662c91;stroke-width:2.5px;"/><path d="M28.941,208.08l51.989,0" style="fill:none;fill-rule:nonzero;"/><path d="M28.941,208.08l51.989,0" style="fill:none;stroke:#662c91;stroke-width:2.5px;"/><path d="M41.938,217.121l35.602,0" style="fill:none;fill-rule:nonzero;"/><path d="M41.938,217.121l35.602,0" style="fill:none;stroke:#662c91;stroke-width:2.5px;"/><path d="M19.899,113.707l19.778,0" style="fill:none;fill-rule:nonzero;"/><path d="M19.899,113.707l19.778,0" style="fill:none;stroke:#662c91;stroke-width:2.5px;"/><path d="M1.25,105.23l50.294,0" style="fill:none;fill-rule:nonzero;"/><path d="M1.25,105.23l50.294,0" style="fill:none;stroke:#662c91;stroke-width:2.5px;"/><path d="M156.447,53.341l-18.455,17.093l0,86.266l67.515,0l0,-86.266l-18.451,-17.093l-30.609,0Z" style="fill:#ef5094;fill-rule:nonzero;"/><path d="M156.447,53.341l-18.455,17.093l0,86.266l67.515,0l0,-86.266l-18.451,-17.093l-30.609,0Z" style="fill:none;stroke:#662c91;stroke-width:2.5px;"/><path d="M197.797,105.813c-0,14.386 -11.661,26.053 -26.047,26.053c-14.387,0 -26.049,-11.667 -26.049,-26.053c0,-14.387 11.662,-26.044 26.049,-26.044c14.386,0 26.047,11.657 26.047,26.044Z" style="fill:#fff;fill-rule:nonzero;"/><path d="M197.797,105.813c-0,14.386 -11.661,26.053 -26.047,26.053c-14.387,0 -26.049,-11.667 -26.049,-26.053c0,-14.387 11.662,-26.044 26.049,-26.044c14.386,0 26.047,11.657 26.047,26.044Z" style="fill:none;stroke:#662c91;stroke-width:2.5px;"/><path d="M170.109,125.311l-0,-4.753c-2.754,-0.049 -5.561,-0.904 -7.229,-2.097l1.145,-3.188c1.662,1.101 4.135,2.048 6.799,2.048c3.371,0 5.656,-1.951 5.656,-4.66c-0,-2.616 -1.851,-4.229 -5.373,-5.658c-4.846,-1.902 -7.844,-4.135 -7.844,-8.278c0,-3.939 2.807,-6.94 7.133,-7.651l-0,-4.754l2.998,0l-0,4.611c2.809,0.096 4.75,0.854 6.182,1.662l-1.194,3.14c-0.998,-0.571 -2.947,-1.664 -5.988,-1.664c-3.662,0 -5.039,2.187 -5.039,4.135c-0,2.423 1.758,3.663 5.895,5.422c4.894,2 7.367,4.424 7.367,8.653c0,3.809 -2.612,7.325 -7.514,8.083l-0,4.949l-2.994,0Z" style="fill:#662c91;fill-rule:nonzero;"/><path d="M177.769,66.755c-0,3.328 -2.697,6.024 -6.019,6.024c-3.321,0 -6.016,-2.696 -6.016,-6.024c-0,-3.323 2.695,-6.013 6.016,-6.013c3.322,0 6.019,2.69 6.019,6.013Z" style="fill:#fff;fill-rule:nonzero;"/><path d="M177.769,66.755c-0,3.328 -2.697,6.024 -6.019,6.024c-3.321,0 -6.016,-2.696 -6.016,-6.024c-0,-3.323 2.695,-6.013 6.016,-6.013c3.322,0 6.019,2.69 6.019,6.013Z" style="fill:none;stroke:#662c91;stroke-width:2.5px;"/><path d="M169.582,71.056c0,0 30.945,-69.806 -0.315,-69.806c-19.224,0 -15.47,34.637 -4.217,52.145" style="fill:none;stroke:#662c91;stroke-width:2.5px;"/><path d="M144.377,151.703l37.777,0" style="fill:none;fill-rule:nonzero;"/><path d="M144.377,151.703l37.777,0" style="fill:none;stroke:#662c91;stroke-width:2.5px;"/><path d="M186.379,151.703l3.164,0" style="fill:none;fill-rule:nonzero;"/><path d="M186.379,151.703l3.164,0" style="fill:none;stroke:#662c91;stroke-width:2.5px;"/><path d="M64.651,247.278l-15.658,-8.303l39.154,-73.806l15.651,8.301l-39.147,73.808Z" style="fill:#99cad5;fill-rule:nonzero;"/><path d="M64.651,247.278l-15.658,-8.303l39.154,-73.806l15.651,8.301l-39.147,73.808Z" style="fill:none;stroke:#662c91;stroke-width:2.5px;"/><path d="M93.291,193.279l-15.655,-8.305l10.511,-19.805l15.651,8.301l-10.507,19.809Z" style="fill:#bad756;fill-rule:nonzero;"/><path d="M93.291,193.279l-15.655,-8.305l10.511,-19.805l15.651,8.301l-10.507,19.809Z" style="fill:none;stroke:#662c91;stroke-width:2.5px;stroke-linecap:butt;stroke-linejoin:miter;"/><path d="M155.465,156.14c-12.002,22.639 -40.086,31.251 -62.715,19.244c-22.629,-11.999 -31.245,-40.078 -19.242,-62.714c11.999,-22.625 40.08,-31.244 62.713,-19.241c22.63,12.003 31.248,40.085 19.244,62.711Z" style="fill:#99cad5;fill-rule:nonzero;"/><path d="M155.465,156.14c-12.002,22.639 -40.086,31.251 -62.715,19.244c-22.629,-11.999 -31.245,-40.078 -19.242,-62.714c11.999,-22.625 40.08,-31.244 62.713,-19.241c22.63,12.003 31.248,40.085 19.244,62.711Z" style="fill:none;stroke:#662c91;stroke-width:2.5px;"/><path d="M150.07,153.278c-10.42,19.652 -34.807,27.134 -54.457,16.711c-19.652,-10.424 -27.125,-34.804 -16.705,-54.453c10.422,-19.648 34.801,-27.134 54.451,-16.712c19.652,10.424 27.135,34.81 16.711,54.454Z" style="fill:#fff;fill-rule:nonzero;"/><path d="M150.07,153.278c-10.42,19.652 -34.807,27.134 -54.457,16.711c-19.652,-10.424 -27.125,-34.804 -16.705,-54.453c10.422,-19.648 34.801,-27.134 54.451,-16.712c19.652,10.424 27.135,34.81 16.711,54.454Z" style="fill:none;stroke:#662c91;stroke-width:2.5px;"/><path d="M84.49,118.667c8.89,-16.769 29.699,-23.148 46.467,-14.253" style="fill:#fff;fill-rule:nonzero;"/><path d="M84.49,118.667c8.89,-16.769 29.699,-23.148 46.467,-14.253" style="fill:none;stroke:#662c91;stroke-width:2.5px;"/><path d="M56.033,234.632l18.421,-34.733" style="fill:none;stroke:#662c91;stroke-width:2.5px;"/></svg>