<?xml version="1.0" encoding="UTF-8" standalone="no"?>
<!DOCTYPE svg PUBLIC "-//W3C//DTD SVG 1.1//EN" "http://www.w3.org/Graphics/SVG/1.1/DTD/svg11.dtd">
<svg width="100%" height="100%" viewBox="0 0 10327 10300" version="1.1" xmlns="http://www.w3.org/2000/svg" xmlns:xlink="http://www.w3.org/1999/xlink" xml:space="preserve" xmlns:serif="http://www.serif.com/" style="fill-rule:evenodd;clip-rule:evenodd;stroke-linejoin:round;stroke-miterlimit:2;">
    <g id="Artboard1" transform="matrix(0.92711,0,0,0.593466,-4491.17,-2231.8)">
        <rect x="4844.26" y="3760.62" width="11138.4" height="17354.9" style="fill:none;"/>
        <clipPath id="_clip1">
            <rect x="4844.26" y="3760.62" width="11138.4" height="17354.9"/>
        </clipPath>
        <g clip-path="url(#_clip1)">
            <g transform="matrix(4.49425,0,0,7.0209,-702.004,-3700.92)">
                <path d="M2250.52,2865.56C2200.49,2815.53 2142.2,2776.24 2077.28,2748.78C2010.02,2720.33 1938.62,2705.91 1865.07,2705.91L1365.8,2705.91L1365.8,2901.59L1865.07,2901.59C2057.75,2901.59 2214.5,3058.34 2214.5,3251.01L2214.5,5000L2410.17,5000L2410.17,3251.01C2410.17,3177.46 2395.75,3106.07 2367.3,3038.8C2339.84,2973.88 2300.55,2915.59 2250.52,2865.56Z" style="fill:rgb(90,191,143);fill-rule:nonzero;"/>
                <path d="M1735.23,2415.31C1697.02,2377.11 1635.07,2377.11 1596.87,2415.31L1293.19,2718.99C1254.98,2757.2 1254.98,2819.15 1293.19,2857.36L1596.87,3161.03C1615.97,3180.14 1641.01,3189.69 1666.05,3189.69C1691.09,3189.69 1716.13,3180.14 1735.23,3161.03C1773.44,3122.83 1773.44,3060.88 1735.23,3022.67L1500.74,2788.17L1735.23,2553.68C1773.44,2515.47 1773.44,2453.52 1735.23,2415.31Z" style="fill:rgb(90,191,143);fill-rule:nonzero;"/>
                <path d="M2888.63,1624.81C2850.42,1586.6 2788.47,1586.6 2750.27,1624.81C2712.06,1663.01 2712.06,1724.96 2750.27,1763.17L2984.76,1997.66L2750.27,2232.16C2712.06,2270.37 2712.06,2332.32 2750.27,2370.53C2769.37,2389.63 2794.41,2399.18 2819.45,2399.18C2844.49,2399.18 2869.53,2389.63 2888.63,2370.53L3192.31,2066.85C3230.52,2028.64 3230.52,1966.69 3192.31,1928.48L2888.63,1624.81Z" style="fill:rgb(51,193,211);fill-rule:nonzero;"/>
                <path d="M1947,2712.01L1947,2911.29C2026.06,2930.36 2094.72,2976.37 2142.68,3039.03L2142.68,2781.77C2121.73,2769.37 2099.91,2758.36 2077.28,2748.78C2035.3,2731.03 1991.72,2718.74 1947,2712.01Z" style="fill:rgb(17,149,71);fill-rule:nonzero;"/>
                <path d="M1814.31,2705.91L1814.31,2901.59L1865.07,2901.59C1916.74,2901.59 1965.82,2912.86 2009.99,2933.07L2009.99,2725.39C1963.06,2712.45 1914.55,2705.91 1865.07,2705.91L1814.31,2705.91Z" style="fill:rgb(17,149,71);fill-rule:nonzero;"/>
                <path d="M3060.83,1899.83L2425.76,1899.83C2352.21,1899.83 2280.82,1914.25 2213.55,1942.7C2148.63,1970.16 2090.34,2009.45 2040.31,2059.48C1990.28,2109.51 1950.99,2167.8 1923.53,2232.72C1895.08,2299.98 1880.66,2371.38 1880.66,2444.93L1880.66,5000L2076.33,5000L2076.33,2444.93C2076.33,2252.25 2233.09,2095.5 2425.76,2095.5L3060.83,2095.5C3114.87,2095.5 3158.67,2051.7 3158.67,1997.66C3158.67,1943.63 3114.87,1899.83 3060.83,1899.83Z" style="fill:rgb(51,193,211);fill-rule:nonzero;"/>
                <path d="M2975.68,2607.69C2925.65,2557.66 2867.37,2518.37 2802.44,2490.91C2735.18,2462.46 2663.78,2448.04 2590.23,2448.04L2458.21,2448.04C2404.17,2448.04 2360.37,2491.84 2360.37,2545.88C2360.37,2599.91 2404.17,2643.71 2458.21,2643.71L2590.23,2643.71C2782.91,2643.71 2939.66,2800.46 2939.66,2993.14L2939.66,5000L3135.34,5000L3135.34,2993.14C3135.34,2919.59 3120.91,2848.2 3092.46,2780.93C3065,2716.01 3025.71,2657.72 2975.68,2607.69Z" style="fill:rgb(238,89,101);fill-rule:nonzero;"/>
                <path d="M2802.44,2490.91C2801.21,2490.39 2799.97,2489.88 2798.73,2489.37C2746.32,2515.54 2698.73,2549.85 2656.91,2591.67C2640.26,2608.32 2624.81,2625.89 2610.58,2644.31C2684.46,2648.57 2752.27,2675.89 2806.88,2719.17C2858.57,2671.94 2924.45,2640 2997.3,2630.59C2990.33,2622.78 2983.13,2615.14 2975.68,2607.69C2925.65,2557.66 2867.37,2518.37 2802.44,2490.91Z" style="fill:rgb(184,89,101);fill-rule:nonzero;"/>
                <path d="M3357.99,2250.66C3319.78,2212.45 3257.83,2212.45 3219.62,2250.66C3181.42,2288.87 3181.42,2350.81 3219.62,2389.02L3454.12,2623.52L3219.62,2858.01C3181.42,2896.22 3181.42,2958.17 3219.62,2996.38C3238.73,3015.48 3263.76,3025.03 3288.81,3025.03C3313.84,3025.03 3338.88,3015.48 3357.99,2996.38L3661.67,2692.7C3680.01,2674.35 3690.32,2649.46 3690.32,2623.52C3690.32,2597.57 3680.01,2572.68 3661.67,2554.33L3357.99,2250.66Z" style="fill:rgb(90,191,143);fill-rule:nonzero;"/>
                <path d="M2979.31,2611.36C2964.54,2616.17 2949.94,2621.61 2935.54,2627.71C2885.35,2648.93 2839.14,2677.23 2797.64,2712.09C2850.8,2751.43 2892.46,2805.46 2916.55,2868.14C2965.48,2824.88 3026.58,2795.09 3094,2784.64C3093.49,2783.4 3092.98,2782.16 3092.46,2780.93C3065.67,2717.59 3027.61,2660.57 2979.31,2611.36Z" style="fill:rgb(184,89,101);fill-rule:nonzero;"/>
                <path d="M2074.82,2027.78C2062.92,2037.81 2051.41,2048.38 2040.31,2059.48C1990.28,2109.51 1950.99,2167.8 1923.53,2232.72C1921.85,2236.69 1920.23,2240.68 1918.65,2244.67C1919.75,2247.41 1920.87,2250.14 1922.02,2252.86C1949.48,2317.78 1988.77,2376.07 2038.8,2426.1C2050.84,2438.14 2063.36,2449.55 2076.33,2460.33L2076.33,2444.93C2076.33,2370.13 2099.96,2300.75 2140.14,2243.85C2099.04,2186.56 2074.82,2116.38 2074.82,2040.65L2074.82,2027.78Z" style="fill:rgb(51,158,211);fill-rule:nonzero;"/>
                <path d="M1987.77,2120.31C1962.01,2154.99 1940.51,2192.58 1923.53,2232.72C1895.08,2299.98 1880.66,2371.38 1880.66,2444.93L1880.66,2473.57C1901.15,2504.93 1924.9,2534.15 1951.75,2561C1988.94,2598.19 2030.69,2629.44 2076.33,2654.31L2076.33,2444.93C2076.33,2433.06 2076.93,2421.33 2078.09,2409.76C2021.99,2347.74 1987.77,2265.57 1987.77,2175.56L1987.77,2120.31Z" style="fill:rgb(51,158,211);fill-rule:nonzero;"/>
                <path d="M1982.93,1118.48C1944.72,1080.28 1882.78,1080.28 1844.57,1118.48L1540.89,1422.16C1502.68,1460.37 1502.68,1522.32 1540.89,1560.53C1579.1,1598.73 1641.05,1598.73 1679.25,1560.53L1913.75,1326.03L2148.24,1560.53C2167.35,1579.63 2192.39,1589.18 2217.43,1589.18C2242.47,1589.18 2267.51,1579.63 2286.61,1560.53C2324.82,1522.32 2324.82,1460.37 2286.61,1422.16L1982.93,1118.48Z" style="fill:rgb(238,89,101);fill-rule:nonzero;"/>
                <path d="M2493.04,2448.04L2361.01,2448.04C2168.34,2448.04 2011.59,2291.29 2011.59,2098.62L2011.59,1249.96C2011.59,1195.92 1967.78,1152.12 1913.75,1152.12C1859.71,1152.12 1815.91,1195.92 1815.91,1249.96L1815.91,2098.62C1815.91,2172.16 1830.34,2243.56 1858.79,2310.82C1886.25,2375.74 1925.54,2434.03 1975.57,2484.06C2025.6,2534.09 2083.88,2573.38 2148.8,2600.84C2216.07,2629.29 2287.47,2643.72 2361.01,2643.72L2493.04,2643.72C2547.07,2643.72 2590.88,2599.91 2590.88,2545.88C2590.88,2491.84 2547.07,2448.04 2493.04,2448.04Z" style="fill:rgb(238,89,101);fill-rule:nonzero;"/>
                <path d="M2877.57,2564.47C2812.65,2591.93 2754.37,2631.22 2704.34,2681.25C2654.3,2731.28 2615.01,2789.57 2587.56,2854.49C2559.1,2921.75 2544.68,2993.15 2544.68,3066.7L2544.68,5000L2740.36,5000L2740.36,3066.7C2740.36,2874.02 2897.11,2717.27 3089.78,2717.27L3589.06,2717.27L3589.06,2521.6L3089.78,2521.6C3016.24,2521.6 2944.84,2536.02 2877.57,2564.47Z" style="fill:rgb(90,191,143);fill-rule:nonzero;"/>
            </g>
        </g>
    </g>
</svg>
